  0
SECTION
  2
HEADER
  9
$ACADVER
  1
AC1009
  9
$FILLMODE
 70
 0
  9
$SPLFRAME
 70
 1
  9
$EXTMIN
 10
0
 20
0
 30
0.0
  9
$EXTMAX
 10
1058.33
 20
1058.33
 30
0.0
  0
ENDSEC
  0
SECTION
  2
TABLES
  0
TABLE
  2
LAYER
 70
1
  0
LAYER
  2
0
 70
     0
 62
     7
  6
CONTINUOUS
  0
ENDTAB
  0
ENDSEC
  0
SECTION
  2
ENTITIES
  0
LINE
  8
0
 62
     0
 10
0.0950846
 20
114.91
 30
0.0
 11
238.496
 21
114.91
 31
0.0
  0
LINE
  8
0
 62
     0
 10
238.496
 20
114.91
 30
0.0
 11
238.496
 21
0.304546
 31
0.0
  0
LINE
  8
0
 62
     0
 10
238.496
 20
0.304546
 30
0.0
 11
0.0950846
 21
0.304546
 31
0.0
  0
LINE
  8
0
 62
     0
 10
0.0950846
 20
0.304546
 30
0.0
 11
0.0950846
 21
114.91
 31
0.0
  0
LINE
  8
0
 62
     0
 10
103.699
 20
19.5792
 30
0.0
 11
102.926
 21
19.7859
 31
0.0
  0
LINE
  8
0
 62
     0
 10
102.926
 20
19.7859
 30
0.0
 11
102.124
 21
16.7914
 31
0.0
  0
LINE
  8
0
 62
     0
 10
102.124
 20
16.7914
 30
0.0
 11
102.897
 21
16.5847
 31
0.0
  0
LINE
  8
0
 62
     0
 10
102.897
 20
16.5847
 30
0.0
 11
101.396
 21
10.9816
 31
0.0
  0
LINE
  8
0
 62
     0
 10
101.396
 20
10.9816
 30
0.0
 11
100.623
 21
11.1897
 31
0.0
  0
LINE
  8
0
 62
     0
 10
100.623
 20
11.1897
 30
0.0
 11
99.8209
 21
8.1952
 31
0.0
  0
LINE
  8
0
 62
     0
 10
99.8209
 20
8.1952
 30
0.0
 11
100.593
 21
7.98848
 31
0.0
  0
LINE
  8
0
 62
     0
 10
100.593
 20
7.98848
 30
0.0
 11
100.335
 21
7.0225
 31
0.0
  0
LINE
  8
0
 62
     0
 10
100.335
 20
7.0225
 30
0.0
 11
113.858
 21
3.39824
 31
0.0
  0
LINE
  8
0
 62
     0
 10
113.858
 20
3.39824
 30
0.0
 11
114.115
 21
4.36425
 31
0.0
  0
LINE
  8
0
 62
     0
 10
114.115
 20
4.36425
 30
0.0
 11
114.888
 21
4.15756
 31
0.0
  0
LINE
  8
0
 62
     0
 10
114.888
 20
4.15756
 30
0.0
 11
115.69
 21
7.15063
 31
0.0
  0
LINE
  8
0
 62
     0
 10
115.69
 20
7.15063
 30
0.0
 11
114.919
 21
7.35873
 31
0.0
  0
LINE
  8
0
 62
     0
 10
114.919
 20
7.35873
 30
0.0
 11
116.419
 21
12.9605
 31
0.0
  0
LINE
  8
0
 62
     0
 10
116.419
 20
12.9605
 30
0.0
 11
117.192
 21
12.7537
 31
0.0
  0
LINE
  8
0
 62
     0
 10
117.192
 20
12.7537
 30
0.0
 11
117.995
 21
15.7482
 31
0.0
  0
LINE
  8
0
 62
     0
 10
117.995
 20
15.7482
 30
0.0
 11
117.221
 21
15.9549
 31
0.0
  0
LINE
  8
0
 62
     0
 10
117.221
 20
15.9549
 30
0.0
 11
117.481
 21
16.9209
 31
0.0
  0
LINE
  8
0
 62
     0
 10
117.481
 20
16.9209
 30
0.0
 11
103.958
 21
20.5452
 31
0.0
  0
LINE
  8
0
 62
     0
 10
103.958
 20
20.5452
 30
0.0
 11
103.699
 21
19.5792
 31
0.0
  0
LINE
  8
0
 62
     0
 10
132.198
 20
18.9315
 30
0.0
 11
132.457
 21
17.9655
 31
0.0
  0
LINE
  8
0
 62
     0
 10
132.457
 20
17.9655
 30
0.0
 11
131.684
 21
17.7588
 31
0.0
  0
LINE
  8
0
 62
     0
 10
131.684
 20
17.7588
 30
0.0
 11
132.486
 21
14.7657
 31
0.0
  0
LINE
  8
0
 62
     0
 10
132.486
 20
14.7657
 30
0.0
 11
133.259
 21
14.9724
 31
0.0
  0
LINE
  8
0
 62
     0
 10
133.259
 20
14.9724
 30
0.0
 11
134.76
 21
9.37066
 31
0.0
  0
LINE
  8
0
 62
     0
 10
134.76
 20
9.37066
 30
0.0
 11
133.987
 21
9.16259
 31
0.0
  0
LINE
  8
0
 62
     0
 10
133.987
 20
9.16259
 30
0.0
 11
134.79
 21
6.16811
 31
0.0
  0
LINE
  8
0
 62
     0
 10
134.79
 20
6.16811
 30
0.0
 11
135.562
 21
6.3748
 31
0.0
  0
LINE
  8
0
 62
     0
 10
135.562
 20
6.3748
 30
0.0
 11
135.821
 21
5.40879
 31
0.0
  0
LINE
  8
0
 62
     0
 10
135.821
 20
5.40879
 30
0.0
 11
149.344
 21
9.03305
 31
0.0
  0
LINE
  8
0
 62
     0
 10
149.344
 20
9.03305
 30
0.0
 11
149.085
 21
9.99906
 31
0.0
  0
LINE
  8
0
 62
     0
 10
149.085
 20
9.99906
 30
0.0
 11
149.858
 21
10.2058
 31
0.0
  0
LINE
  8
0
 62
     0
 10
149.858
 20
10.2058
 30
0.0
 11
149.056
 21
13.2002
 31
0.0
  0
LINE
  8
0
 62
     0
 10
149.056
 20
13.2002
 30
0.0
 11
148.282
 21
12.9935
 31
0.0
  0
LINE
  8
0
 62
     0
 10
148.282
 20
12.9935
 30
0.0
 11
146.782
 21
18.5952
 31
0.0
  0
LINE
  8
0
 62
     0
 10
146.782
 20
18.5952
 30
0.0
 11
147.555
 21
18.8033
 31
0.0
  0
LINE
  8
0
 62
     0
 10
147.555
 20
18.8033
 30
0.0
 11
146.751
 21
21.7964
 31
0.0
  0
LINE
  8
0
 62
     0
 10
146.751
 20
21.7964
 30
0.0
 11
145.98
 21
21.5897
 31
0.0
  0
LINE
  8
0
 62
     0
 10
145.98
 20
21.5897
 30
0.0
 11
145.721
 21
22.5557
 31
0.0
  0
LINE
  8
0
 62
     0
 10
145.721
 20
22.5557
 30
0.0
 11
132.198
 21
18.9315
 31
0.0
  0
LINE
  8
0
 62
     0
 10
83.4581
 20
25.0017
 30
0.0
 11
82.6851
 21
25.2084
 31
0.0
  0
LINE
  8
0
 62
     0
 10
82.6851
 20
25.2084
 30
0.0
 11
81.8829
 21
22.2154
 31
0.0
  0
LINE
  8
0
 62
     0
 10
81.8829
 20
22.2154
 30
0.0
 11
82.6562
 21
22.0086
 31
0.0
  0
LINE
  8
0
 62
     0
 10
82.6562
 20
22.0086
 30
0.0
 11
81.1541
 21
16.4055
 31
0.0
  0
LINE
  8
0
 62
     0
 10
81.1541
 20
16.4055
 30
0.0
 11
80.3811
 21
16.6136
 31
0.0
  0
LINE
  8
0
 62
     0
 10
80.3811
 20
16.6136
 30
0.0
 11
79.5789
 21
13.6178
 31
0.0
  0
LINE
  8
0
 62
     0
 10
79.5789
 20
13.6178
 30
0.0
 11
80.3522
 21
13.4111
 31
0.0
  0
LINE
  8
0
 62
     0
 10
80.3522
 20
13.4111
 30
0.0
 11
80.0929
 21
12.445
 31
0.0
  0
LINE
  8
0
 62
     0
 10
80.0929
 20
12.445
 30
0.0
 11
93.617
 21
8.8222
 31
0.0
  0
LINE
  8
0
 62
     0
 10
93.617
 20
8.8222
 30
0.0
 11
93.8749
 21
9.78821
 31
0.0
  0
LINE
  8
0
 62
     0
 10
93.8749
 20
9.78821
 30
0.0
 11
94.6478
 21
9.58152
 31
0.0
  0
LINE
  8
0
 62
     0
 10
94.6478
 20
9.58152
 30
0.0
 11
95.4497
 21
12.5746
 31
0.0
  0
LINE
  8
0
 62
     0
 10
95.4497
 20
12.5746
 30
0.0
 11
94.6781
 21
12.7827
 31
0.0
  0
LINE
  8
0
 62
     0
 10
94.6781
 20
12.7827
 30
0.0
 11
96.1789
 21
18.3844
 31
0.0
  0
LINE
  8
0
 62
     0
 10
96.1789
 20
18.3844
 30
0.0
 11
96.9518
 21
18.1777
 31
0.0
  0
LINE
  8
0
 62
     0
 10
96.9518
 20
18.1777
 30
0.0
 11
97.754
 21
21.1722
 31
0.0
  0
LINE
  8
0
 62
     0
 10
97.754
 20
21.1722
 30
0.0
 11
96.9807
 21
21.3789
 31
0.0
  0
LINE
  8
0
 62
     0
 10
96.9807
 20
21.3789
 30
0.0
 11
97.24
 21
22.3449
 31
0.0
  0
LINE
  8
0
 62
     0
 10
97.24
 20
22.3449
 30
0.0
 11
83.7159
 21
25.9678
 31
0.0
  0
LINE
  8
0
 62
     0
 10
83.7159
 20
25.9678
 30
0.0
 11
83.4581
 21
25.0017
 31
0.0
  0
LINE
  8
0
 62
     0
 10
152.438
 20
24.3555
 30
0.0
 11
152.698
 21
23.3894
 31
0.0
  0
LINE
  8
0
 62
     0
 10
152.698
 20
23.3894
 30
0.0
 11
151.924
 21
23.1827
 31
0.0
  0
LINE
  8
0
 62
     0
 10
151.924
 20
23.1827
 30
0.0
 11
152.727
 21
20.1896
 31
0.0
  0
LINE
  8
0
 62
     0
 10
152.727
 20
20.1896
 30
0.0
 11
153.5
 21
20.3963
 31
0.0
  0
LINE
  8
0
 62
     0
 10
153.5
 20
20.3963
 30
0.0
 11
155
 21
14.7932
 31
0.0
  0
LINE
  8
0
 62
     0
 10
155
 20
14.7932
 30
0.0
 11
154.227
 21
14.5865
 31
0.0
  0
LINE
  8
0
 62
     0
 10
154.227
 20
14.5865
 30
0.0
 11
155.031
 21
11.5921
 31
0.0
  0
LINE
  8
0
 62
     0
 10
155.031
 20
11.5921
 30
0.0
 11
155.803
 21
11.7988
 31
0.0
  0
LINE
  8
0
 62
     0
 10
155.803
 20
11.7988
 30
0.0
 11
156.061
 21
10.8327
 31
0.0
  0
LINE
  8
0
 62
     0
 10
156.061
 20
10.8327
 30
0.0
 11
169.584
 21
14.4556
 31
0.0
  0
LINE
  8
0
 62
     0
 10
169.584
 20
14.4556
 30
0.0
 11
169.325
 21
15.4216
 31
0.0
  0
LINE
  8
0
 62
     0
 10
169.325
 20
15.4216
 30
0.0
 11
170.098
 21
15.6297
 31
0.0
  0
LINE
  8
0
 62
     0
 10
170.098
 20
15.6297
 30
0.0
 11
169.296
 21
18.6242
 31
0.0
  0
LINE
  8
0
 62
     0
 10
169.296
 20
18.6242
 30
0.0
 11
168.523
 21
18.4175
 31
0.0
  0
LINE
  8
0
 62
     0
 10
168.523
 20
18.4175
 30
0.0
 11
167.022
 21
24.0192
 31
0.0
  0
LINE
  8
0
 62
     0
 10
167.022
 20
24.0192
 30
0.0
 11
167.796
 21
24.2259
 31
0.0
  0
LINE
  8
0
 62
     0
 10
167.796
 20
24.2259
 30
0.0
 11
166.992
 21
27.2204
 31
0.0
  0
LINE
  8
0
 62
     0
 10
166.992
 20
27.2204
 30
0.0
 11
166.22
 21
27.0137
 31
0.0
  0
LINE
  8
0
 62
     0
 10
166.22
 20
27.0137
 30
0.0
 11
165.961
 21
27.9797
 31
0.0
  0
LINE
  8
0
 62
     0
 10
165.961
 20
27.9797
 30
0.0
 11
152.438
 21
24.3555
 31
0.0
  0
LINE
  8
0
 62
     0
 10
87.46
 20
48.992
 30
0.0
 11
86.6733
 21
49.1314
 31
0.0
  0
LINE
  8
0
 62
     0
 10
86.6733
 20
49.1314
 30
0.0
 11
86.1328
 21
46.0774
 31
0.0
  0
LINE
  8
0
 62
     0
 10
86.1328
 20
46.0774
 30
0.0
 11
86.9213
 21
45.9398
 31
0.0
  0
LINE
  8
0
 62
     0
 10
86.9213
 20
45.9398
 30
0.0
 11
85.9151
 21
40.2276
 31
0.0
  0
LINE
  8
0
 62
     0
 10
85.9151
 20
40.2276
 30
0.0
 11
85.127
 21
40.3655
 31
0.0
  0
LINE
  8
0
 62
     0
 10
85.127
 20
40.3655
 30
0.0
 11
84.588
 21
37.3133
 31
0.0
  0
LINE
  8
0
 62
     0
 10
84.588
 20
37.3133
 30
0.0
 11
85.3765
 21
37.174
 31
0.0
  0
LINE
  8
0
 62
     0
 10
85.3765
 20
37.174
 30
0.0
 11
85.2029
 21
36.1901
 31
0.0
  0
LINE
  8
0
 62
     0
 10
85.2029
 20
36.1901
 30
0.0
 11
98.9901
 21
33.7578
 31
0.0
  0
LINE
  8
0
 62
     0
 10
98.9901
 20
33.7578
 30
0.0
 11
99.1637
 21
34.7431
 31
0.0
  0
LINE
  8
0
 62
     0
 10
99.1637
 20
34.7431
 30
0.0
 11
99.9518
 21
34.6039
 31
0.0
  0
LINE
  8
0
 62
     0
 10
99.9518
 20
34.6039
 30
0.0
 11
100.489
 21
37.6576
 31
0.0
  0
LINE
  8
0
 62
     0
 10
100.489
 20
37.6576
 30
0.0
 11
99.701
 21
37.7956
 31
0.0
  0
LINE
  8
0
 62
     0
 10
99.701
 20
37.7956
 30
0.0
 11
100.71
 21
43.5074
 31
0.0
  0
LINE
  8
0
 62
     0
 10
100.71
 20
43.5074
 30
0.0
 11
101.497
 21
43.3698
 31
0.0
  0
LINE
  8
0
 62
     0
 10
101.497
 20
43.3698
 30
0.0
 11
102.035
 21
46.422
 31
0.0
  0
LINE
  8
0
 62
     0
 10
102.035
 20
46.422
 30
0.0
 11
101.247
 21
46.561
 31
0.0
  0
LINE
  8
0
 62
     0
 10
101.247
 20
46.561
 30
0.0
 11
101.421
 21
47.5463
 31
0.0
  0
LINE
  8
0
 62
     0
 10
101.421
 20
47.5463
 30
0.0
 11
87.6335
 21
49.9773
 31
0.0
  0
LINE
  8
0
 62
     0
 10
87.6335
 20
49.9773
 30
0.0
 11
87.46
 21
48.992
 31
0.0
  0
LINE
  8
0
 62
     0
 10
144.639
 20
47.5795
 30
0.0
 11
144.812
 21
46.5942
 31
0.0
  0
LINE
  8
0
 62
     0
 10
144.812
 20
46.5942
 30
0.0
 11
144.024
 21
46.4552
 31
0.0
  0
LINE
  8
0
 62
     0
 10
144.024
 20
46.4552
 30
0.0
 11
144.563
 21
43.4026
 31
0.0
  0
LINE
  8
0
 62
     0
 10
144.563
 20
43.4026
 30
0.0
 11
145.351
 21
43.5405
 31
0.0
  0
LINE
  8
0
 62
     0
 10
145.351
 20
43.5405
 30
0.0
 11
146.359
 21
37.8284
 31
0.0
  0
LINE
  8
0
 62
     0
 10
146.359
 20
37.8284
 30
0.0
 11
145.571
 21
37.6908
 31
0.0
  0
LINE
  8
0
 62
     0
 10
145.571
 20
37.6908
 30
0.0
 11
146.108
 21
34.637
 31
0.0
  0
LINE
  8
0
 62
     0
 10
146.108
 20
34.637
 30
0.0
 11
146.896
 21
34.7762
 31
0.0
  0
LINE
  8
0
 62
     0
 10
146.896
 20
34.7762
 30
0.0
 11
147.071
 21
33.7909
 31
0.0
  0
LINE
  8
0
 62
     0
 10
147.071
 20
33.7909
 30
0.0
 11
160.857
 21
36.2218
 31
0.0
  0
LINE
  8
0
 62
     0
 10
160.857
 20
36.2218
 30
0.0
 11
160.683
 21
37.2071
 31
0.0
  0
LINE
  8
0
 62
     0
 10
160.683
 20
37.2071
 30
0.0
 11
161.472
 21
37.3461
 31
0.0
  0
LINE
  8
0
 62
     0
 10
161.472
 20
37.3461
 30
0.0
 11
160.933
 21
40.3987
 31
0.0
  0
LINE
  8
0
 62
     0
 10
160.933
 20
40.3987
 30
0.0
 11
160.146
 21
40.2594
 31
0.0
  0
LINE
  8
0
 62
     0
 10
160.146
 20
40.2594
 30
0.0
 11
159.139
 21
45.9726
 31
0.0
  0
LINE
  8
0
 62
     0
 10
159.139
 20
45.9726
 30
0.0
 11
159.927
 21
46.1105
 31
0.0
  0
LINE
  8
0
 62
     0
 10
159.927
 20
46.1105
 30
0.0
 11
159.388
 21
49.1642
 31
0.0
  0
LINE
  8
0
 62
     0
 10
159.388
 20
49.1642
 30
0.0
 11
158.601
 21
49.0252
 31
0.0
  0
LINE
  8
0
 62
     0
 10
158.601
 20
49.0252
 30
0.0
 11
158.426
 21
50.0105
 31
0.0
  0
LINE
  8
0
 62
     0
 10
158.426
 20
50.0105
 30
0.0
 11
144.639
 21
47.5795
 31
0.0
  0
LINE
  8
0
 62
     0
 10
69.8571
 20
58.8656
 30
0.0
 11
69.07
 21
59.0049
 31
0.0
  0
LINE
  8
0
 62
     0
 10
69.07
 20
59.0049
 30
0.0
 11
68.5313
 21
55.9523
 31
0.0
  0
LINE
  8
0
 62
     0
 10
68.5313
 20
55.9523
 30
0.0
 11
69.318
 21
55.8133
 31
0.0
  0
LINE
  8
0
 62
     0
 10
69.318
 20
55.8133
 30
0.0
 11
68.3122
 21
50.1015
 31
0.0
  0
LINE
  8
0
 62
     0
 10
68.3122
 20
50.1015
 30
0.0
 11
67.5238
 21
50.2405
 31
0.0
  0
LINE
  8
0
 62
     0
 10
67.5238
 20
50.2405
 30
0.0
 11
66.9851
 21
47.1883
 31
0.0
  0
LINE
  8
0
 62
     0
 10
66.9851
 20
47.1883
 30
0.0
 11
67.7732
 21
47.0489
 31
0.0
  0
LINE
  8
0
 62
     0
 10
67.7732
 20
47.0489
 30
0.0
 11
67.5996
 21
46.0636
 31
0.0
  0
LINE
  8
0
 62
     0
 10
67.5996
 20
46.0636
 30
0.0
 11
81.3869
 21
43.633
 31
0.0
  0
LINE
  8
0
 62
     0
 10
81.3869
 20
43.633
 30
0.0
 11
81.5605
 21
44.6183
 31
0.0
  0
LINE
  8
0
 62
     0
 10
81.5605
 20
44.6183
 30
0.0
 11
82.3489
 21
44.4789
 31
0.0
  0
LINE
  8
0
 62
     0
 10
82.3489
 20
44.4789
 30
0.0
 11
82.8862
 21
47.5312
 31
0.0
  0
LINE
  8
0
 62
     0
 10
82.8862
 20
47.5312
 30
0.0
 11
82.0995
 21
47.6705
 31
0.0
  0
LINE
  8
0
 62
     0
 10
82.0995
 20
47.6705
 30
0.0
 11
83.1067
 21
53.3823
 31
0.0
  0
LINE
  8
0
 62
     0
 10
83.1067
 20
53.3823
 30
0.0
 11
83.8951
 21
53.2433
 31
0.0
  0
LINE
  8
0
 62
     0
 10
83.8951
 20
53.2433
 30
0.0
 11
84.4324
 21
56.2956
 31
0.0
  0
LINE
  8
0
 62
     0
 10
84.4324
 20
56.2956
 30
0.0
 11
83.6443
 21
56.4349
 31
0.0
  0
LINE
  8
0
 62
     0
 10
83.6443
 20
56.4349
 30
0.0
 11
83.8193
 21
57.4202
 31
0.0
  0
LINE
  8
0
 62
     0
 10
83.8193
 20
57.4202
 30
0.0
 11
70.0306
 21
59.8509
 31
0.0
  0
LINE
  8
0
 62
     0
 10
70.0306
 20
59.8509
 30
0.0
 11
69.8571
 21
58.8656
 31
0.0
  0
LINE
  8
0
 62
     0
 10
162.242
 20
57.453
 30
0.0
 11
162.416
 21
56.4677
 31
0.0
  0
LINE
  8
0
 62
     0
 10
162.416
 20
56.4677
 30
0.0
 11
161.627
 21
56.3287
 31
0.0
  0
LINE
  8
0
 62
     0
 10
161.627
 20
56.3287
 30
0.0
 11
162.166
 21
53.2765
 31
0.0
  0
LINE
  8
0
 62
     0
 10
162.166
 20
53.2765
 30
0.0
 11
162.953
 21
53.4155
 31
0.0
  0
LINE
  8
0
 62
     0
 10
162.953
 20
53.4155
 30
0.0
 11
163.962
 21
47.7037
 31
0.0
  0
LINE
  8
0
 62
     0
 10
163.962
 20
47.7037
 30
0.0
 11
163.173
 21
47.5643
 31
0.0
  0
LINE
  8
0
 62
     0
 10
163.173
 20
47.5643
 30
0.0
 11
163.711
 21
44.5107
 31
0.0
  0
LINE
  8
0
 62
     0
 10
163.711
 20
44.5107
 30
0.0
 11
164.499
 21
44.6497
 31
0.0
  0
LINE
  8
0
 62
     0
 10
164.499
 20
44.6497
 30
0.0
 11
164.673
 21
43.6644
 31
0.0
  0
LINE
  8
0
 62
     0
 10
164.673
 20
43.6644
 30
0.0
 11
178.46
 21
46.0968
 31
0.0
  0
LINE
  8
0
 62
     0
 10
178.46
 20
46.0968
 30
0.0
 11
178.286
 21
47.0807
 31
0.0
  0
LINE
  8
0
 62
     0
 10
178.286
 20
47.0807
 30
0.0
 11
179.075
 21
47.22
 31
0.0
  0
LINE
  8
0
 62
     0
 10
179.075
 20
47.22
 30
0.0
 11
178.536
 21
50.2737
 31
0.0
  0
LINE
  8
0
 62
     0
 10
178.536
 20
50.2737
 30
0.0
 11
177.749
 21
50.1343
 31
0.0
  0
LINE
  8
0
 62
     0
 10
177.749
 20
50.1343
 30
0.0
 11
176.742
 21
55.8465
 31
0.0
  0
LINE
  8
0
 62
     0
 10
176.742
 20
55.8465
 30
0.0
 11
177.528
 21
55.9855
 31
0.0
  0
LINE
  8
0
 62
     0
 10
177.528
 20
55.9855
 30
0.0
 11
176.991
 21
59.0381
 31
0.0
  0
LINE
  8
0
 62
     0
 10
176.991
 20
59.0381
 30
0.0
 11
176.203
 21
58.8987
 31
0.0
  0
LINE
  8
0
 62
     0
 10
176.203
 20
58.8987
 30
0.0
 11
176.029
 21
59.884
 31
0.0
  0
LINE
  8
0
 62
     0
 10
176.029
 20
59.884
 30
0.0
 11
162.242
 21
57.453
 31
0.0
  0
LINE
  8
0
 62
     0
 10
12.7482
 20
64.0994
 30
0.0
 11
11.96
 21
64.2387
 31
0.0
  0
LINE
  8
0
 62
     0
 10
11.96
 20
64.2387
 30
0.0
 11
11.4226
 21
61.1861
 31
0.0
  0
LINE
  8
0
 62
     0
 10
11.4226
 20
61.1861
 30
0.0
 11
12.2108
 21
61.0471
 31
0.0
  0
LINE
  8
0
 62
     0
 10
12.2108
 20
61.0471
 30
0.0
 11
11.2034
 21
55.3364
 31
0.0
  0
LINE
  8
0
 62
     0
 10
11.2034
 20
55.3364
 30
0.0
 11
10.4152
 21
55.4743
 31
0.0
  0
LINE
  8
0
 62
     0
 10
10.4152
 20
55.4743
 30
0.0
 11
9.8764
 21
52.4207
 31
0.0
  0
LINE
  8
0
 62
     0
 10
9.8764
 20
52.4207
 30
0.0
 11
10.6646
 21
52.2813
 31
0.0
  0
LINE
  8
0
 62
     0
 10
10.6646
 20
52.2813
 30
0.0
 11
10.491
 21
51.2974
 31
0.0
  0
LINE
  8
0
 62
     0
 10
10.491
 20
51.2974
 30
0.0
 11
24.2783
 21
48.8668
 31
0.0
  0
LINE
  8
0
 62
     0
 10
24.2783
 20
48.8668
 30
0.0
 11
24.4519
 21
49.8507
 31
0.0
  0
LINE
  8
0
 62
     0
 10
24.4519
 20
49.8507
 30
0.0
 11
25.2402
 21
49.7127
 31
0.0
  0
LINE
  8
0
 62
     0
 10
25.2402
 20
49.7127
 30
0.0
 11
25.779
 21
52.765
 31
0.0
  0
LINE
  8
0
 62
     0
 10
25.779
 20
52.765
 30
0.0
 11
24.9907
 21
52.9043
 31
0.0
  0
LINE
  8
0
 62
     0
 10
24.9907
 20
52.9043
 30
0.0
 11
25.9981
 21
58.6161
 31
0.0
  0
LINE
  8
0
 62
     0
 10
25.9981
 20
58.6161
 30
0.0
 11
26.7849
 21
58.4771
 31
0.0
  0
LINE
  8
0
 62
     0
 10
26.7849
 20
58.4771
 30
0.0
 11
27.3237
 21
61.5294
 31
0.0
  0
LINE
  8
0
 62
     0
 10
27.3237
 20
61.5294
 30
0.0
 11
26.5355
 21
61.6687
 31
0.0
  0
LINE
  8
0
 62
     0
 10
26.5355
 20
61.6687
 30
0.0
 11
26.7091
 21
62.654
 31
0.0
  0
LINE
  8
0
 62
     0
 10
26.7091
 20
62.654
 30
0.0
 11
12.9219
 21
65.0847
 31
0.0
  0
LINE
  8
0
 62
     0
 10
12.9219
 20
65.0847
 30
0.0
 11
12.7482
 21
64.0994
 31
0.0
  0
LINE
  8
0
 62
     0
 10
219.351
 20
62.6869
 30
0.0
 11
219.524
 21
61.7015
 31
0.0
  0
LINE
  8
0
 62
     0
 10
219.524
 20
61.7015
 30
0.0
 11
218.736
 21
61.5625
 31
0.0
  0
LINE
  8
0
 62
     0
 10
218.736
 20
61.5625
 30
0.0
 11
219.275
 21
58.51
 31
0.0
  0
LINE
  8
0
 62
     0
 10
219.275
 20
58.51
 30
0.0
 11
220.063
 21
58.6493
 31
0.0
  0
LINE
  8
0
 62
     0
 10
220.063
 20
58.6493
 30
0.0
 11
221.069
 21
52.9375
 31
0.0
  0
LINE
  8
0
 62
     0
 10
221.069
 20
52.9375
 30
0.0
 11
220.282
 21
52.7981
 31
0.0
  0
LINE
  8
0
 62
     0
 10
220.282
 20
52.7981
 30
0.0
 11
220.821
 21
49.7445
 31
0.0
  0
LINE
  8
0
 62
     0
 10
220.821
 20
49.7445
 30
0.0
 11
221.608
 21
49.8835
 31
0.0
  0
LINE
  8
0
 62
     0
 10
221.608
 20
49.8835
 30
0.0
 11
221.782
 21
48.8996
 31
0.0
  0
LINE
  8
0
 62
     0
 10
221.782
 20
48.8996
 30
0.0
 11
235.57
 21
51.3306
 31
0.0
  0
LINE
  8
0
 62
     0
 10
235.57
 20
51.3306
 30
0.0
 11
235.395
 21
52.3145
 31
0.0
  0
LINE
  8
0
 62
     0
 10
235.395
 20
52.3145
 30
0.0
 11
236.183
 21
52.4538
 31
0.0
  0
LINE
  8
0
 62
     0
 10
236.183
 20
52.4538
 30
0.0
 11
235.645
 21
55.5075
 31
0.0
  0
LINE
  8
0
 62
     0
 10
235.645
 20
55.5075
 30
0.0
 11
234.858
 21
55.3681
 31
0.0
  0
LINE
  8
0
 62
     0
 10
234.858
 20
55.3681
 30
0.0
 11
233.849
 21
61.0803
 31
0.0
  0
LINE
  8
0
 62
     0
 10
233.849
 20
61.0803
 30
0.0
 11
234.637
 21
61.2193
 31
0.0
  0
LINE
  8
0
 62
     0
 10
234.637
 20
61.2193
 30
0.0
 11
234.1
 21
64.2719
 31
0.0
  0
LINE
  8
0
 62
     0
 10
234.1
 20
64.2719
 30
0.0
 11
233.311
 21
64.1325
 31
0.0
  0
LINE
  8
0
 62
     0
 10
233.311
 20
64.1325
 30
0.0
 11
233.138
 21
65.1178
 31
0.0
  0
LINE
  8
0
 62
     0
 10
233.138
 20
65.1178
 30
0.0
 11
219.351
 21
62.6869
 31
0.0
  0
LINE
  8
0
 62
     0
 10
32.3371
 20
65.4816
 30
0.0
 11
31.5488
 21
65.6209
 31
0.0
  0
LINE
  8
0
 62
     0
 10
31.5488
 20
65.6209
 30
0.0
 11
31.01
 21
62.5683
 31
0.0
  0
LINE
  8
0
 62
     0
 10
31.01
 20
62.5683
 30
0.0
 11
31.7968
 21
62.4293
 31
0.0
  0
LINE
  8
0
 62
     0
 10
31.7968
 20
62.4293
 30
0.0
 11
30.7909
 21
56.7171
 31
0.0
  0
LINE
  8
0
 62
     0
 10
30.7909
 20
56.7171
 30
0.0
 11
30.0027
 21
56.8565
 31
0.0
  0
LINE
  8
0
 62
     0
 10
30.0027
 20
56.8565
 30
0.0
 11
29.4638
 21
53.8028
 31
0.0
  0
LINE
  8
0
 62
     0
 10
29.4638
 20
53.8028
 30
0.0
 11
30.2521
 21
53.6649
 31
0.0
  0
LINE
  8
0
 62
     0
 10
30.2521
 20
53.6649
 30
0.0
 11
30.0784
 21
52.6796
 31
0.0
  0
LINE
  8
0
 62
     0
 10
30.0784
 20
52.6796
 30
0.0
 11
43.8672
 21
50.249
 31
0.0
  0
LINE
  8
0
 62
     0
 10
43.8672
 20
50.249
 30
0.0
 11
44.0394
 21
51.2339
 31
0.0
  0
LINE
  8
0
 62
     0
 10
44.0394
 20
51.2339
 30
0.0
 11
44.8275
 21
51.0949
 31
0.0
  0
LINE
  8
0
 62
     0
 10
44.8275
 20
51.0949
 30
0.0
 11
45.3651
 21
54.1472
 31
0.0
  0
LINE
  8
0
 62
     0
 10
45.3651
 20
54.1472
 30
0.0
 11
44.5781
 21
54.2865
 31
0.0
  0
LINE
  8
0
 62
     0
 10
44.5781
 20
54.2865
 30
0.0
 11
45.5856
 21
59.9983
 31
0.0
  0
LINE
  8
0
 62
     0
 10
45.5856
 20
59.9983
 30
0.0
 11
46.3723
 21
59.8593
 31
0.0
  0
LINE
  8
0
 62
     0
 10
46.3723
 20
59.8593
 30
0.0
 11
46.9113
 21
62.9116
 31
0.0
  0
LINE
  8
0
 62
     0
 10
46.9113
 20
62.9116
 30
0.0
 11
46.1229
 21
63.0509
 31
0.0
  0
LINE
  8
0
 62
     0
 10
46.1229
 20
63.0509
 30
0.0
 11
46.2979
 21
64.0362
 31
0.0
  0
LINE
  8
0
 62
     0
 10
46.2979
 20
64.0362
 30
0.0
 11
32.5093
 21
66.4669
 31
0.0
  0
LINE
  8
0
 62
     0
 10
32.5093
 20
66.4669
 30
0.0
 11
32.3371
 21
65.4816
 31
0.0
  0
LINE
  8
0
 62
     0
 10
199.763
 20
64.069
 30
0.0
 11
199.937
 21
63.0837
 31
0.0
  0
LINE
  8
0
 62
     0
 10
199.937
 20
63.0837
 30
0.0
 11
199.149
 21
62.9447
 31
0.0
  0
LINE
  8
0
 62
     0
 10
199.149
 20
62.9447
 30
0.0
 11
199.687
 21
59.8921
 31
0.0
  0
LINE
  8
0
 62
     0
 10
199.687
 20
59.8921
 30
0.0
 11
200.475
 21
60.0315
 31
0.0
  0
LINE
  8
0
 62
     0
 10
200.475
 20
60.0315
 30
0.0
 11
201.483
 21
54.3197
 31
0.0
  0
LINE
  8
0
 62
     0
 10
201.483
 20
54.3197
 30
0.0
 11
200.695
 21
54.1803
 31
0.0
  0
LINE
  8
0
 62
     0
 10
200.695
 20
54.1803
 30
0.0
 11
201.232
 21
51.1267
 31
0.0
  0
LINE
  8
0
 62
     0
 10
201.232
 20
51.1267
 30
0.0
 11
202.02
 21
51.2657
 31
0.0
  0
LINE
  8
0
 62
     0
 10
202.02
 20
51.2657
 30
0.0
 11
202.194
 21
50.2804
 31
0.0
  0
LINE
  8
0
 62
     0
 10
202.194
 20
50.2804
 30
0.0
 11
215.981
 21
52.7128
 31
0.0
  0
LINE
  8
0
 62
     0
 10
215.981
 20
52.7128
 30
0.0
 11
215.808
 21
53.6967
 31
0.0
  0
LINE
  8
0
 62
     0
 10
215.808
 20
53.6967
 30
0.0
 11
216.596
 21
53.8357
 31
0.0
  0
LINE
  8
0
 62
     0
 10
216.596
 20
53.8357
 30
0.0
 11
216.057
 21
56.8896
 31
0.0
  0
LINE
  8
0
 62
     0
 10
216.057
 20
56.8896
 30
0.0
 11
215.269
 21
56.7503
 31
0.0
  0
LINE
  8
0
 62
     0
 10
215.269
 20
56.7503
 30
0.0
 11
214.263
 21
62.4625
 31
0.0
  0
LINE
  8
0
 62
     0
 10
214.263
 20
62.4625
 30
0.0
 11
215.051
 21
62.6015
 31
0.0
  0
LINE
  8
0
 62
     0
 10
215.051
 20
62.6015
 30
0.0
 11
214.511
 21
65.6537
 31
0.0
  0
LINE
  8
0
 62
     0
 10
214.511
 20
65.6537
 30
0.0
 11
213.724
 21
65.5147
 31
0.0
  0
LINE
  8
0
 62
     0
 10
213.724
 20
65.5147
 30
0.0
 11
213.551
 21
66.5
 31
0.0
  0
LINE
  8
0
 62
     0
 10
213.551
 20
66.5
 30
0.0
 11
199.763
 21
64.069
 31
0.0
  0
LINE
  8
0
 62
     0
 10
90.7687
 20
67.7527
 30
0.0
 11
89.9806
 21
67.8917
 31
0.0
  0
LINE
  8
0
 62
     0
 10
89.9806
 20
67.8917
 30
0.0
 11
89.4415
 21
64.8395
 31
0.0
  0
LINE
  8
0
 62
     0
 10
89.4415
 20
64.8395
 30
0.0
 11
90.23
 21
64.7001
 31
0.0
  0
LINE
  8
0
 62
     0
 10
90.23
 20
64.7001
 30
0.0
 11
89.2224
 21
58.9883
 31
0.0
  0
LINE
  8
0
 62
     0
 10
89.2224
 20
58.9883
 30
0.0
 11
88.4343
 21
59.1273
 31
0.0
  0
LINE
  8
0
 62
     0
 10
88.4343
 20
59.1273
 30
0.0
 11
87.8967
 21
56.0737
 31
0.0
  0
LINE
  8
0
 62
     0
 10
87.8967
 20
56.0737
 30
0.0
 11
88.6852
 21
55.9347
 31
0.0
  0
LINE
  8
0
 62
     0
 10
88.6852
 20
55.9347
 30
0.0
 11
88.5102
 21
54.9508
 31
0.0
  0
LINE
  8
0
 62
     0
 10
88.5102
 20
54.9508
 30
0.0
 11
102.297
 21
52.5184
 31
0.0
  0
LINE
  8
0
 62
     0
 10
102.297
 20
52.5184
 30
0.0
 11
102.471
 21
53.5037
 31
0.0
  0
LINE
  8
0
 62
     0
 10
102.471
 20
53.5037
 30
0.0
 11
103.259
 21
53.3647
 31
0.0
  0
LINE
  8
0
 62
     0
 10
103.259
 20
53.3647
 30
0.0
 11
103.798
 21
56.4183
 31
0.0
  0
LINE
  8
0
 62
     0
 10
103.798
 20
56.4183
 30
0.0
 11
103.01
 21
56.5573
 31
0.0
  0
LINE
  8
0
 62
     0
 10
103.01
 20
56.5573
 30
0.0
 11
104.017
 21
62.2695
 31
0.0
  0
LINE
  8
0
 62
     0
 10
104.017
 20
62.2695
 30
0.0
 11
104.804
 21
62.1302
 31
0.0
  0
LINE
  8
0
 62
     0
 10
104.804
 20
62.1302
 30
0.0
 11
105.344
 21
65.1828
 31
0.0
  0
LINE
  8
0
 62
     0
 10
105.344
 20
65.1828
 30
0.0
 11
104.556
 21
65.3217
 31
0.0
  0
LINE
  8
0
 62
     0
 10
104.556
 20
65.3217
 30
0.0
 11
104.729
 21
66.3056
 31
0.0
  0
LINE
  8
0
 62
     0
 10
104.729
 20
66.3056
 30
0.0
 11
90.9408
 21
68.7366
 31
0.0
  0
LINE
  8
0
 62
     0
 10
90.9408
 20
68.7366
 30
0.0
 11
90.7687
 21
67.7527
 31
0.0
  0
LINE
  8
0
 62
     0
 10
141.332
 20
66.3388
 30
0.0
 11
141.504
 21
65.3535
 31
0.0
  0
LINE
  8
0
 62
     0
 10
141.504
 20
65.3535
 30
0.0
 11
140.717
 21
65.2156
 31
0.0
  0
LINE
  8
0
 62
     0
 10
140.717
 20
65.2156
 30
0.0
 11
141.256
 21
62.1633
 31
0.0
  0
LINE
  8
0
 62
     0
 10
141.256
 20
62.1633
 30
0.0
 11
142.044
 21
62.3013
 31
0.0
  0
LINE
  8
0
 62
     0
 10
142.044
 20
62.3013
 30
0.0
 11
143.05
 21
56.5905
 31
0.0
  0
LINE
  8
0
 62
     0
 10
143.05
 20
56.5905
 30
0.0
 11
142.263
 21
56.4515
 31
0.0
  0
LINE
  8
0
 62
     0
 10
142.263
 20
56.4515
 30
0.0
 11
142.801
 21
53.3975
 31
0.0
  0
LINE
  8
0
 62
     0
 10
142.801
 20
53.3975
 30
0.0
 11
143.589
 21
53.5368
 31
0.0
  0
LINE
  8
0
 62
     0
 10
143.589
 20
53.5368
 30
0.0
 11
143.763
 21
52.5515
 31
0.0
  0
LINE
  8
0
 62
     0
 10
143.763
 20
52.5515
 30
0.0
 11
157.55
 21
54.9836
 31
0.0
  0
LINE
  8
0
 62
     0
 10
157.55
 20
54.9836
 30
0.0
 11
157.376
 21
55.9675
 31
0.0
  0
LINE
  8
0
 62
     0
 10
157.376
 20
55.9675
 30
0.0
 11
158.163
 21
56.1068
 31
0.0
  0
LINE
  8
0
 62
     0
 10
158.163
 20
56.1068
 30
0.0
 11
157.626
 21
59.1605
 31
0.0
  0
LINE
  8
0
 62
     0
 10
157.626
 20
59.1605
 30
0.0
 11
156.837
 21
59.0215
 31
0.0
  0
LINE
  8
0
 62
     0
 10
156.837
 20
59.0215
 30
0.0
 11
155.83
 21
64.7333
 31
0.0
  0
LINE
  8
0
 62
     0
 10
155.83
 20
64.7333
 30
0.0
 11
156.618
 21
64.8712
 31
0.0
  0
LINE
  8
0
 62
     0
 10
156.618
 20
64.8712
 30
0.0
 11
156.079
 21
67.9235
 31
0.0
  0
LINE
  8
0
 62
     0
 10
156.079
 20
67.9235
 30
0.0
 11
155.292
 21
67.7855
 31
0.0
  0
LINE
  8
0
 62
     0
 10
155.292
 20
67.7855
 30
0.0
 11
155.119
 21
68.7698
 31
0.0
  0
LINE
  8
0
 62
     0
 10
155.119
 20
68.7698
 30
0.0
 11
141.332
 21
66.3388
 31
0.0
  0
LINE
  8
0
 62
     0
 10
52.2538
 20
68.7405
 30
0.0
 11
51.4671
 21
68.8785
 31
0.0
  0
LINE
  8
0
 62
     0
 10
51.4671
 20
68.8785
 30
0.0
 11
50.9281
 21
65.8262
 31
0.0
  0
LINE
  8
0
 62
     0
 10
50.9281
 20
65.8262
 30
0.0
 11
51.7165
 21
65.6883
 31
0.0
  0
LINE
  8
0
 62
     0
 10
51.7165
 20
65.6883
 30
0.0
 11
50.709
 21
59.9765
 31
0.0
  0
LINE
  8
0
 62
     0
 10
50.709
 20
59.9765
 30
0.0
 11
49.9209
 21
60.1155
 31
0.0
  0
LINE
  8
0
 62
     0
 10
49.9209
 20
60.1155
 30
0.0
 11
49.3818
 21
57.0618
 31
0.0
  0
LINE
  8
0
 62
     0
 10
49.3818
 20
57.0618
 30
0.0
 11
50.1703
 21
56.9225
 31
0.0
  0
LINE
  8
0
 62
     0
 10
50.1703
 20
56.9225
 30
0.0
 11
49.9981
 21
55.9386
 31
0.0
  0
LINE
  8
0
 62
     0
 10
49.9981
 20
55.9386
 30
0.0
 11
63.784
 21
53.5065
 31
0.0
  0
LINE
  8
0
 62
     0
 10
63.784
 20
53.5065
 30
0.0
 11
63.959
 21
54.4918
 31
0.0
  0
LINE
  8
0
 62
     0
 10
63.959
 20
54.4918
 30
0.0
 11
64.7457
 21
54.3525
 31
0.0
  0
LINE
  8
0
 62
     0
 10
64.7457
 20
54.3525
 30
0.0
 11
65.2847
 21
57.4065
 31
0.0
  0
LINE
  8
0
 62
     0
 10
65.2847
 20
57.4065
 30
0.0
 11
64.4962
 21
57.5455
 31
0.0
  0
LINE
  8
0
 62
     0
 10
64.4962
 20
57.5455
 30
0.0
 11
65.5038
 21
63.2576
 31
0.0
  0
LINE
  8
0
 62
     0
 10
65.5038
 20
63.2576
 30
0.0
 11
66.2919
 21
63.1183
 31
0.0
  0
LINE
  8
0
 62
     0
 10
66.2919
 20
63.1183
 30
0.0
 11
66.8295
 21
66.1705
 31
0.0
  0
LINE
  8
0
 62
     0
 10
66.8295
 20
66.1705
 30
0.0
 11
66.0411
 21
66.3085
 31
0.0
  0
LINE
  8
0
 62
     0
 10
66.0411
 20
66.3085
 30
0.0
 11
66.216
 21
67.2938
 31
0.0
  0
LINE
  8
0
 62
     0
 10
66.216
 20
67.2938
 30
0.0
 11
52.4288
 21
69.7248
 31
0.0
  0
LINE
  8
0
 62
     0
 10
52.4288
 20
69.7248
 30
0.0
 11
52.2538
 21
68.7405
 31
0.0
  0
LINE
  8
0
 62
     0
 10
179.845
 20
67.3269
 30
0.0
 11
180.019
 21
66.3416
 31
0.0
  0
LINE
  8
0
 62
     0
 10
180.019
 20
66.3416
 30
0.0
 11
179.231
 21
66.2037
 31
0.0
  0
LINE
  8
0
 62
     0
 10
179.231
 20
66.2037
 30
0.0
 11
179.768
 21
63.15
 31
0.0
  0
LINE
  8
0
 62
     0
 10
179.768
 20
63.15
 30
0.0
 11
180.556
 21
63.289
 31
0.0
  0
LINE
  8
0
 62
     0
 10
180.556
 20
63.289
 30
0.0
 11
181.563
 21
57.5772
 31
0.0
  0
LINE
  8
0
 62
     0
 10
181.563
 20
57.5772
 30
0.0
 11
180.775
 21
57.4379
 31
0.0
  0
LINE
  8
0
 62
     0
 10
180.775
 20
57.4379
 30
0.0
 11
181.314
 21
54.3856
 31
0.0
  0
LINE
  8
0
 62
     0
 10
181.314
 20
54.3856
 30
0.0
 11
182.102
 21
54.5264
 31
0.0
  0
LINE
  8
0
 62
     0
 10
182.102
 20
54.5264
 30
0.0
 11
182.276
 21
53.5397
 31
0.0
  0
LINE
  8
0
 62
     0
 10
182.276
 20
53.5397
 30
0.0
 11
196.063
 21
55.9703
 31
0.0
  0
LINE
  8
0
 62
     0
 10
196.063
 20
55.9703
 30
0.0
 11
195.889
 21
56.9556
 31
0.0
  0
LINE
  8
0
 62
     0
 10
195.889
 20
56.9556
 30
0.0
 11
196.678
 21
57.095
 31
0.0
  0
LINE
  8
0
 62
     0
 10
196.678
 20
57.095
 30
0.0
 11
196.139
 21
60.1472
 31
0.0
  0
LINE
  8
0
 62
     0
 10
196.139
 20
60.1472
 30
0.0
 11
195.352
 21
60.0082
 31
0.0
  0
LINE
  8
0
 62
     0
 10
195.352
 20
60.0082
 30
0.0
 11
194.344
 21
65.72
 31
0.0
  0
LINE
  8
0
 62
     0
 10
194.344
 20
65.72
 30
0.0
 11
195.132
 21
65.8594
 31
0.0
  0
LINE
  8
0
 62
     0
 10
195.132
 20
65.8594
 30
0.0
 11
194.594
 21
68.9116
 31
0.0
  0
LINE
  8
0
 62
     0
 10
194.594
 20
68.9116
 30
0.0
 11
193.806
 21
68.7737
 31
0.0
  0
LINE
  8
0
 62
     0
 10
193.806
 20
68.7737
 30
0.0
 11
193.631
 21
69.7576
 31
0.0
  0
LINE
  8
0
 62
     0
 10
193.631
 20
69.7576
 30
0.0
 11
179.845
 21
67.3269
 31
0.0
  0
LINE
  8
0
 62
     0
 10
73.1654
 20
77.6277
 30
0.0
 11
72.3773
 21
77.7656
 31
0.0
  0
LINE
  8
0
 62
     0
 10
72.3773
 20
77.7656
 30
0.0
 11
71.84
 21
74.713
 31
0.0
  0
LINE
  8
0
 62
     0
 10
71.84
 20
74.713
 30
0.0
 11
72.6267
 21
74.574
 31
0.0
  0
LINE
  8
0
 62
     0
 10
72.6267
 20
74.574
 30
0.0
 11
71.6195
 21
68.8619
 31
0.0
  0
LINE
  8
0
 62
     0
 10
71.6195
 20
68.8619
 30
0.0
 11
70.8311
 21
69.0012
 31
0.0
  0
LINE
  8
0
 62
     0
 10
70.8311
 20
69.0012
 30
0.0
 11
70.2938
 21
65.9476
 31
0.0
  0
LINE
  8
0
 62
     0
 10
70.2938
 20
65.9476
 30
0.0
 11
71.0819
 21
65.8096
 31
0.0
  0
LINE
  8
0
 62
     0
 10
71.0819
 20
65.8096
 30
0.0
 11
70.9069
 21
64.8243
 31
0.0
  0
LINE
  8
0
 62
     0
 10
70.9069
 20
64.8243
 30
0.0
 11
84.6956
 21
62.3933
 31
0.0
  0
LINE
  8
0
 62
     0
 10
84.6956
 20
62.3933
 30
0.0
 11
84.8678
 21
63.3786
 31
0.0
  0
LINE
  8
0
 62
     0
 10
84.8678
 20
63.3786
 30
0.0
 11
85.6562
 21
63.2396
 31
0.0
  0
LINE
  8
0
 62
     0
 10
85.6562
 20
63.2396
 30
0.0
 11
86.1949
 21
66.2919
 31
0.0
  0
LINE
  8
0
 62
     0
 10
86.1949
 20
66.2919
 30
0.0
 11
85.4082
 21
66.4312
 31
0.0
  0
LINE
  8
0
 62
     0
 10
85.4082
 20
66.4312
 30
0.0
 11
86.414
 21
72.1431
 31
0.0
  0
LINE
  8
0
 62
     0
 10
86.414
 20
72.1431
 30
0.0
 11
87.2024
 21
72.0037
 31
0.0
  0
LINE
  8
0
 62
     0
 10
87.2024
 20
72.0037
 30
0.0
 11
87.7411
 21
75.0577
 31
0.0
  0
LINE
  8
0
 62
     0
 10
87.7411
 20
75.0577
 30
0.0
 11
86.9527
 21
75.1953
 31
0.0
  0
LINE
  8
0
 62
     0
 10
86.9527
 20
75.1953
 30
0.0
 11
87.1266
 21
76.1806
 31
0.0
  0
LINE
  8
0
 62
     0
 10
87.1266
 20
76.1806
 30
0.0
 11
73.3379
 21
78.6116
 31
0.0
  0
LINE
  8
0
 62
     0
 10
73.3379
 20
78.6116
 30
0.0
 11
73.1654
 21
77.6277
 31
0.0
  0
LINE
  8
0
 62
     0
 10
158.933
 20
76.2123
 30
0.0
 11
159.107
 21
75.2285
 31
0.0
  0
LINE
  8
0
 62
     0
 10
159.107
 20
75.2285
 30
0.0
 11
158.32
 21
75.0905
 31
0.0
  0
LINE
  8
0
 62
     0
 10
158.32
 20
75.0905
 30
0.0
 11
158.858
 21
72.0369
 31
0.0
  0
LINE
  8
0
 62
     0
 10
158.858
 20
72.0369
 30
0.0
 11
159.646
 21
72.1762
 31
0.0
  0
LINE
  8
0
 62
     0
 10
159.646
 20
72.1762
 30
0.0
 11
160.653
 21
66.464
 31
0.0
  0
LINE
  8
0
 62
     0
 10
160.653
 20
66.464
 30
0.0
 11
159.865
 21
66.325
 31
0.0
  0
LINE
  8
0
 62
     0
 10
159.865
 20
66.325
 30
0.0
 11
160.404
 21
63.2725
 31
0.0
  0
LINE
  8
0
 62
     0
 10
160.404
 20
63.2725
 30
0.0
 11
161.192
 21
63.4104
 31
0.0
  0
LINE
  8
0
 62
     0
 10
161.192
 20
63.4104
 30
0.0
 11
161.364
 21
62.4265
 31
0.0
  0
LINE
  8
0
 62
     0
 10
161.364
 20
62.4265
 30
0.0
 11
175.153
 21
64.8575
 31
0.0
  0
LINE
  8
0
 62
     0
 10
175.153
 20
64.8575
 30
0.0
 11
174.979
 21
65.8428
 31
0.0
  0
LINE
  8
0
 62
     0
 10
174.979
 20
65.8428
 30
0.0
 11
175.766
 21
65.9804
 31
0.0
  0
LINE
  8
0
 62
     0
 10
175.766
 20
65.9804
 30
0.0
 11
175.229
 21
69.0344
 31
0.0
  0
LINE
  8
0
 62
     0
 10
175.229
 20
69.0344
 30
0.0
 11
174.44
 21
68.895
 31
0.0
  0
LINE
  8
0
 62
     0
 10
174.44
 20
68.895
 30
0.0
 11
173.433
 21
74.6069
 31
0.0
  0
LINE
  8
0
 62
     0
 10
173.433
 20
74.6069
 30
0.0
 11
174.22
 21
74.7462
 31
0.0
  0
LINE
  8
0
 62
     0
 10
174.22
 20
74.7462
 30
0.0
 11
173.682
 21
77.7984
 31
0.0
  0
LINE
  8
0
 62
     0
 10
173.682
 20
77.7984
 30
0.0
 11
172.894
 21
77.6609
 31
0.0
  0
LINE
  8
0
 62
     0
 10
172.894
 20
77.6609
 30
0.0
 11
172.722
 21
78.6447
 31
0.0
  0
LINE
  8
0
 62
     0
 10
172.722
 20
78.6447
 30
0.0
 11
158.933
 21
76.2123
 31
0.0
  0
LINE
  8
0
 62
     0
 10
16.0569
 20
82.8615
 30
0.0
 11
15.2687
 21
83.0005
 31
0.0
  0
LINE
  8
0
 62
     0
 10
15.2687
 20
83.0005
 30
0.0
 11
14.7298
 21
79.9469
 31
0.0
  0
LINE
  8
0
 62
     0
 10
14.7298
 20
79.9469
 30
0.0
 11
15.5181
 21
79.8079
 31
0.0
  0
LINE
  8
0
 62
     0
 10
15.5181
 20
79.8079
 30
0.0
 11
14.5121
 21
74.0957
 31
0.0
  0
LINE
  8
0
 62
     0
 10
14.5121
 20
74.0957
 30
0.0
 11
13.7239
 21
74.235
 31
0.0
  0
LINE
  8
0
 62
     0
 10
13.7239
 20
74.235
 30
0.0
 11
13.1851
 21
71.1824
 31
0.0
  0
LINE
  8
0
 62
     0
 10
13.1851
 20
71.1824
 30
0.0
 11
13.9719
 21
71.0434
 31
0.0
  0
LINE
  8
0
 62
     0
 10
13.9719
 20
71.0434
 30
0.0
 11
13.7997
 21
70.0581
 31
0.0
  0
LINE
  8
0
 62
     0
 10
13.7997
 20
70.0581
 30
0.0
 11
27.5856
 21
67.6271
 31
0.0
  0
LINE
  8
0
 62
     0
 10
27.5856
 20
67.6271
 30
0.0
 11
27.7592
 21
68.6125
 31
0.0
  0
LINE
  8
0
 62
     0
 10
27.7592
 20
68.6125
 30
0.0
 11
28.5474
 21
68.4735
 31
0.0
  0
LINE
  8
0
 62
     0
 10
28.5474
 20
68.4735
 30
0.0
 11
29.0862
 21
71.5257
 31
0.0
  0
LINE
  8
0
 62
     0
 10
29.0862
 20
71.5257
 30
0.0
 11
28.298
 21
71.665
 31
0.0
  0
LINE
  8
0
 62
     0
 10
28.298
 20
71.665
 30
0.0
 11
29.3054
 21
77.3769
 31
0.0
  0
LINE
  8
0
 62
     0
 10
29.3054
 20
77.3769
 30
0.0
 11
30.0936
 21
77.2375
 31
0.0
  0
LINE
  8
0
 62
     0
 10
30.0936
 20
77.2375
 30
0.0
 11
30.631
 21
80.2915
 31
0.0
  0
LINE
  8
0
 62
     0
 10
30.631
 20
80.2915
 30
0.0
 11
29.8442
 21
80.4305
 31
0.0
  0
LINE
  8
0
 62
     0
 10
29.8442
 20
80.4305
 30
0.0
 11
30.0178
 21
81.4144
 31
0.0
  0
LINE
  8
0
 62
     0
 10
30.0178
 20
81.4144
 30
0.0
 11
16.2305
 21
83.8468
 31
0.0
  0
LINE
  8
0
 62
     0
 10
16.2305
 20
83.8468
 30
0.0
 11
16.0569
 21
82.8615
 31
0.0
  0
LINE
  8
0
 62
     0
 10
216.042
 20
81.4476
 30
0.0
 11
216.217
 21
80.4623
 31
0.0
  0
LINE
  8
0
 62
     0
 10
216.217
 20
80.4623
 30
0.0
 11
215.429
 21
80.3243
 31
0.0
  0
LINE
  8
0
 62
     0
 10
215.429
 20
80.3243
 30
0.0
 11
215.966
 21
77.2707
 31
0.0
  0
LINE
  8
0
 62
     0
 10
215.966
 20
77.2707
 30
0.0
 11
216.754
 21
77.41
 31
0.0
  0
LINE
  8
0
 62
     0
 10
216.754
 20
77.41
 30
0.0
 11
217.762
 21
71.6979
 31
0.0
  0
LINE
  8
0
 62
     0
 10
217.762
 20
71.6979
 30
0.0
 11
216.974
 21
71.5589
 31
0.0
  0
LINE
  8
0
 62
     0
 10
216.974
 20
71.5589
 30
0.0
 11
217.512
 21
68.5063
 31
0.0
  0
LINE
  8
0
 62
     0
 10
217.512
 20
68.5063
 30
0.0
 11
218.301
 21
68.6456
 31
0.0
  0
LINE
  8
0
 62
     0
 10
218.301
 20
68.6456
 30
0.0
 11
218.474
 21
67.6603
 31
0.0
  0
LINE
  8
0
 62
     0
 10
218.474
 20
67.6603
 30
0.0
 11
232.261
 21
70.0913
 31
0.0
  0
LINE
  8
0
 62
     0
 10
232.261
 20
70.0913
 30
0.0
 11
232.088
 21
71.0766
 31
0.0
  0
LINE
  8
0
 62
     0
 10
232.088
 20
71.0766
 30
0.0
 11
232.876
 21
71.2156
 31
0.0
  0
LINE
  8
0
 62
     0
 10
232.876
 20
71.2156
 30
0.0
 11
232.336
 21
74.2678
 31
0.0
  0
LINE
  8
0
 62
     0
 10
232.336
 20
74.2678
 30
0.0
 11
231.549
 21
74.1288
 31
0.0
  0
LINE
  8
0
 62
     0
 10
231.549
 20
74.1288
 30
0.0
 11
230.542
 21
79.8407
 31
0.0
  0
LINE
  8
0
 62
     0
 10
230.542
 20
79.8407
 30
0.0
 11
231.33
 21
79.98
 31
0.0
  0
LINE
  8
0
 62
     0
 10
231.33
 20
79.98
 30
0.0
 11
230.791
 21
83.0322
 31
0.0
  0
LINE
  8
0
 62
     0
 10
230.791
 20
83.0322
 30
0.0
 11
230.003
 21
82.8947
 31
0.0
  0
LINE
  8
0
 62
     0
 10
230.003
 20
82.8947
 30
0.0
 11
229.829
 21
83.8786
 31
0.0
  0
LINE
  8
0
 62
     0
 10
229.829
 20
83.8786
 30
0.0
 11
216.042
 21
81.4476
 31
0.0
  0
LINE
  8
0
 62
     0
 10
35.6443
 20
84.2437
 30
0.0
 11
34.8561
 21
84.3813
 31
0.0
  0
LINE
  8
0
 62
     0
 10
34.8561
 20
84.3813
 30
0.0
 11
34.3173
 21
81.329
 31
0.0
  0
LINE
  8
0
 62
     0
 10
34.3173
 20
81.329
 30
0.0
 11
35.1055
 21
81.19
 31
0.0
  0
LINE
  8
0
 62
     0
 10
35.1055
 20
81.19
 30
0.0
 11
34.0982
 21
75.4779
 31
0.0
  0
LINE
  8
0
 62
     0
 10
34.0982
 20
75.4779
 30
0.0
 11
33.3099
 21
75.6172
 31
0.0
  0
LINE
  8
0
 62
     0
 10
33.3099
 20
75.6172
 30
0.0
 11
32.7725
 21
72.5646
 31
0.0
  0
LINE
  8
0
 62
     0
 10
32.7725
 20
72.5646
 30
0.0
 11
33.5607
 21
72.4256
 31
0.0
  0
LINE
  8
0
 62
     0
 10
33.5607
 20
72.4256
 30
0.0
 11
33.3871
 21
71.4403
 31
0.0
  0
LINE
  8
0
 62
     0
 10
33.3871
 20
71.4403
 30
0.0
 11
47.1745
 21
69.0093
 31
0.0
  0
LINE
  8
0
 62
     0
 10
47.1745
 20
69.0093
 30
0.0
 11
47.3481
 21
69.9946
 31
0.0
  0
LINE
  8
0
 62
     0
 10
47.3481
 20
69.9946
 30
0.0
 11
48.1348
 21
69.8556
 31
0.0
  0
LINE
  8
0
 62
     0
 10
48.1348
 20
69.8556
 30
0.0
 11
48.6738
 21
72.9079
 31
0.0
  0
LINE
  8
0
 62
     0
 10
48.6738
 20
72.9079
 30
0.0
 11
47.8854
 21
73.0472
 31
0.0
  0
LINE
  8
0
 62
     0
 10
47.8854
 20
73.0472
 30
0.0
 11
48.8943
 21
78.759
 31
0.0
  0
LINE
  8
0
 62
     0
 10
48.8943
 20
78.759
 30
0.0
 11
49.681
 21
78.6197
 31
0.0
  0
LINE
  8
0
 62
     0
 10
49.681
 20
78.6197
 30
0.0
 11
50.2197
 21
81.6737
 31
0.0
  0
LINE
  8
0
 62
     0
 10
50.2197
 20
81.6737
 30
0.0
 11
49.4316
 21
81.8127
 31
0.0
  0
LINE
  8
0
 62
     0
 10
49.4316
 20
81.8127
 30
0.0
 11
49.6051
 21
82.7966
 31
0.0
  0
LINE
  8
0
 62
     0
 10
49.6051
 20
82.7966
 30
0.0
 11
35.8179
 21
85.2276
 31
0.0
  0
LINE
  8
0
 62
     0
 10
35.8179
 20
85.2276
 30
0.0
 11
35.6443
 21
84.2437
 31
0.0
  0
LINE
  8
0
 62
     0
 10
196.456
 20
82.8298
 30
0.0
 11
196.628
 21
81.8444
 31
0.0
  0
LINE
  8
0
 62
     0
 10
196.628
 20
81.8444
 30
0.0
 11
195.84
 21
81.7065
 31
0.0
  0
LINE
  8
0
 62
     0
 10
195.84
 20
81.7065
 30
0.0
 11
196.38
 21
78.6529
 31
0.0
  0
LINE
  8
0
 62
     0
 10
196.38
 20
78.6529
 30
0.0
 11
197.167
 21
78.7922
 31
0.0
  0
LINE
  8
0
 62
     0
 10
197.167
 20
78.7922
 30
0.0
 11
198.174
 21
73.08
 31
0.0
  0
LINE
  8
0
 62
     0
 10
198.174
 20
73.08
 30
0.0
 11
197.386
 21
72.941
 31
0.0
  0
LINE
  8
0
 62
     0
 10
197.386
 20
72.941
 30
0.0
 11
197.925
 21
69.8885
 31
0.0
  0
LINE
  8
0
 62
     0
 10
197.925
 20
69.8885
 30
0.0
 11
198.713
 21
70.0264
 31
0.0
  0
LINE
  8
0
 62
     0
 10
198.713
 20
70.0264
 30
0.0
 11
198.887
 21
69.0425
 31
0.0
  0
LINE
  8
0
 62
     0
 10
198.887
 20
69.0425
 30
0.0
 11
212.674
 21
71.4735
 31
0.0
  0
LINE
  8
0
 62
     0
 10
212.674
 20
71.4735
 30
0.0
 11
212.499
 21
72.4588
 31
0.0
  0
LINE
  8
0
 62
     0
 10
212.499
 20
72.4588
 30
0.0
 11
213.287
 21
72.5964
 31
0.0
  0
LINE
  8
0
 62
     0
 10
213.287
 20
72.5964
 30
0.0
 11
212.75
 21
75.65
 31
0.0
  0
LINE
  8
0
 62
     0
 10
212.75
 20
75.65
 30
0.0
 11
211.962
 21
75.511
 31
0.0
  0
LINE
  8
0
 62
     0
 10
211.962
 20
75.511
 30
0.0
 11
210.954
 21
81.2229
 31
0.0
  0
LINE
  8
0
 62
     0
 10
210.954
 20
81.2229
 30
0.0
 11
211.743
 21
81.3622
 31
0.0
  0
LINE
  8
0
 62
     0
 10
211.743
 20
81.3622
 30
0.0
 11
211.204
 21
84.4144
 31
0.0
  0
LINE
  8
0
 62
     0
 10
211.204
 20
84.4144
 30
0.0
 11
210.417
 21
84.2768
 31
0.0
  0
LINE
  8
0
 62
     0
 10
210.417
 20
84.2768
 30
0.0
 11
210.243
 21
85.2607
 31
0.0
  0
LINE
  8
0
 62
     0
 10
210.243
 20
85.2607
 30
0.0
 11
196.456
 21
82.8298
 31
0.0
  0
LINE
  8
0
 62
     0
 10
94.076
 20
86.5131
 30
0.0
 11
93.2889
 21
86.6525
 31
0.0
  0
LINE
  8
0
 62
     0
 10
93.2889
 20
86.6525
 30
0.0
 11
92.7488
 21
83.5988
 31
0.0
  0
LINE
  8
0
 62
     0
 10
92.7488
 20
83.5988
 30
0.0
 11
93.5373
 21
83.4595
 31
0.0
  0
LINE
  8
0
 62
     0
 10
93.5373
 20
83.4595
 30
0.0
 11
92.5311
 21
77.7476
 31
0.0
  0
LINE
  8
0
 62
     0
 10
92.5311
 20
77.7476
 30
0.0
 11
91.743
 21
77.8866
 31
0.0
  0
LINE
  8
0
 62
     0
 10
91.743
 20
77.8866
 30
0.0
 11
91.204
 21
74.8344
 31
0.0
  0
LINE
  8
0
 62
     0
 10
91.204
 20
74.8344
 30
0.0
 11
91.9924
 21
74.6965
 31
0.0
  0
LINE
  8
0
 62
     0
 10
91.9924
 20
74.6965
 30
0.0
 11
91.8185
 21
73.7112
 31
0.0
  0
LINE
  8
0
 62
     0
 10
91.8185
 20
73.7112
 30
0.0
 11
105.606
 21
71.2805
 31
0.0
  0
LINE
  8
0
 62
     0
 10
105.606
 20
71.2805
 30
0.0
 11
105.78
 21
72.2644
 31
0.0
  0
LINE
  8
0
 62
     0
 10
105.78
 20
72.2644
 30
0.0
 11
106.568
 21
72.1265
 31
0.0
  0
LINE
  8
0
 62
     0
 10
106.568
 20
72.1265
 30
0.0
 11
107.105
 21
75.1777
 31
0.0
  0
LINE
  8
0
 62
     0
 10
107.105
 20
75.1777
 30
0.0
 11
106.317
 21
75.3166
 31
0.0
  0
LINE
  8
0
 62
     0
 10
106.317
 20
75.3166
 30
0.0
 11
107.326
 21
81.0288
 31
0.0
  0
LINE
  8
0
 62
     0
 10
107.326
 20
81.0288
 30
0.0
 11
108.113
 21
80.8895
 31
0.0
  0
LINE
  8
0
 62
     0
 10
108.113
 20
80.8895
 30
0.0
 11
108.651
 21
83.9431
 31
0.0
  0
LINE
  8
0
 62
     0
 10
108.651
 20
83.9431
 30
0.0
 11
107.863
 21
84.0825
 31
0.0
  0
LINE
  8
0
 62
     0
 10
107.863
 20
84.0825
 30
0.0
 11
108.037
 21
85.0678
 31
0.0
  0
LINE
  8
0
 62
     0
 10
108.037
 20
85.0678
 30
0.0
 11
94.2495
 21
87.4984
 31
0.0
  0
LINE
  8
0
 62
     0
 10
94.2495
 20
87.4984
 30
0.0
 11
94.076
 21
86.5131
 31
0.0
  0
LINE
  8
0
 62
     0
 10
138.023
 20
85.1006
 30
0.0
 11
138.196
 21
84.1156
 31
0.0
  0
LINE
  8
0
 62
     0
 10
138.196
 20
84.1156
 30
0.0
 11
137.408
 21
83.9763
 31
0.0
  0
LINE
  8
0
 62
     0
 10
137.408
 20
83.9763
 30
0.0
 11
137.947
 21
80.9226
 31
0.0
  0
LINE
  8
0
 62
     0
 10
137.947
 20
80.9226
 30
0.0
 11
138.736
 21
81.0616
 31
0.0
  0
LINE
  8
0
 62
     0
 10
138.736
 20
81.0616
 30
0.0
 11
139.743
 21
75.3498
 31
0.0
  0
LINE
  8
0
 62
     0
 10
139.743
 20
75.3498
 30
0.0
 11
138.955
 21
75.2105
 31
0.0
  0
LINE
  8
0
 62
     0
 10
138.955
 20
75.2105
 30
0.0
 11
139.492
 21
72.1582
 31
0.0
  0
LINE
  8
0
 62
     0
 10
139.492
 20
72.1582
 30
0.0
 11
140.28
 21
72.2976
 31
0.0
  0
LINE
  8
0
 62
     0
 10
140.28
 20
72.2976
 30
0.0
 11
140.455
 21
71.3123
 31
0.0
  0
LINE
  8
0
 62
     0
 10
140.455
 20
71.3123
 30
0.0
 11
154.241
 21
73.7443
 31
0.0
  0
LINE
  8
0
 62
     0
 10
154.241
 20
73.7443
 30
0.0
 11
154.068
 21
74.7282
 31
0.0
  0
LINE
  8
0
 62
     0
 10
154.068
 20
74.7282
 30
0.0
 11
154.856
 21
74.8676
 31
0.0
  0
LINE
  8
0
 62
     0
 10
154.856
 20
74.8676
 30
0.0
 11
154.317
 21
77.9198
 31
0.0
  0
LINE
  8
0
 62
     0
 10
154.317
 20
77.9198
 30
0.0
 11
153.53
 21
77.7804
 31
0.0
  0
LINE
  8
0
 62
     0
 10
153.53
 20
77.7804
 30
0.0
 11
152.523
 21
83.4926
 31
0.0
  0
LINE
  8
0
 62
     0
 10
152.523
 20
83.4926
 30
0.0
 11
153.311
 21
83.6316
 31
0.0
  0
LINE
  8
0
 62
     0
 10
153.311
 20
83.6316
 30
0.0
 11
152.772
 21
86.6856
 31
0.0
  0
LINE
  8
0
 62
     0
 10
152.772
 20
86.6856
 30
0.0
 11
151.984
 21
86.5463
 31
0.0
  0
LINE
  8
0
 62
     0
 10
151.984
 20
86.5463
 30
0.0
 11
151.81
 21
87.5316
 31
0.0
  0
LINE
  8
0
 62
     0
 10
151.81
 20
87.5316
 30
0.0
 11
138.023
 21
85.1006
 31
0.0
  0
LINE
  8
0
 62
     0
 10
55.5625
 20
87.5026
 30
0.0
 11
54.7744
 21
87.6406
 31
0.0
  0
LINE
  8
0
 62
     0
 10
54.7744
 20
87.6406
 30
0.0
 11
54.2368
 21
84.5866
 31
0.0
  0
LINE
  8
0
 62
     0
 10
54.2368
 20
84.5866
 30
0.0
 11
55.0252
 21
84.4476
 31
0.0
  0
LINE
  8
0
 62
     0
 10
55.0252
 20
84.4476
 30
0.0
 11
54.0177
 21
78.7358
 31
0.0
  0
LINE
  8
0
 62
     0
 10
54.0177
 20
78.7358
 30
0.0
 11
53.2296
 21
78.8748
 31
0.0
  0
LINE
  8
0
 62
     0
 10
53.2296
 20
78.8748
 30
0.0
 11
52.6905
 21
75.8225
 31
0.0
  0
LINE
  8
0
 62
     0
 10
52.6905
 20
75.8225
 30
0.0
 11
53.479
 21
75.6832
 31
0.0
  0
LINE
  8
0
 62
     0
 10
53.479
 20
75.6832
 30
0.0
 11
53.3054
 21
74.6993
 31
0.0
  0
LINE
  8
0
 62
     0
 10
53.3054
 20
74.6993
 30
0.0
 11
67.0927
 21
72.2672
 31
0.0
  0
LINE
  8
0
 62
     0
 10
67.0927
 20
72.2672
 30
0.0
 11
67.2663
 21
73.2525
 31
0.0
  0
LINE
  8
0
 62
     0
 10
67.2663
 20
73.2525
 30
0.0
 11
68.053
 21
73.1132
 31
0.0
  0
LINE
  8
0
 62
     0
 10
68.053
 20
73.1132
 30
0.0
 11
68.592
 21
76.1654
 31
0.0
  0
LINE
  8
0
 62
     0
 10
68.592
 20
76.1654
 30
0.0
 11
67.8049
 21
76.3048
 31
0.0
  0
LINE
  8
0
 62
     0
 10
67.8049
 20
76.3048
 30
0.0
 11
68.8111
 21
82.0166
 31
0.0
  0
LINE
  8
0
 62
     0
 10
68.8111
 20
82.0166
 30
0.0
 11
69.5992
 21
81.8776
 31
0.0
  0
LINE
  8
0
 62
     0
 10
69.5992
 20
81.8776
 30
0.0
 11
70.1379
 21
84.9313
 31
0.0
  0
LINE
  8
0
 62
     0
 10
70.1379
 20
84.9313
 30
0.0
 11
69.3498
 21
85.0706
 31
0.0
  0
LINE
  8
0
 62
     0
 10
69.3498
 20
85.0706
 30
0.0
 11
69.5233
 21
86.0559
 31
0.0
  0
LINE
  8
0
 62
     0
 10
69.5233
 20
86.0559
 30
0.0
 11
55.7361
 21
88.4865
 31
0.0
  0
LINE
  8
0
 62
     0
 10
55.7361
 20
88.4865
 30
0.0
 11
55.5625
 21
87.5026
 31
0.0
  0
LINE
  8
0
 62
     0
 10
176.536
 20
86.0873
 30
0.0
 11
176.71
 21
85.1034
 31
0.0
  0
LINE
  8
0
 62
     0
 10
176.71
 20
85.1034
 30
0.0
 11
175.923
 21
84.9644
 31
0.0
  0
LINE
  8
0
 62
     0
 10
175.923
 20
84.9644
 30
0.0
 11
176.461
 21
81.9108
 31
0.0
  0
LINE
  8
0
 62
     0
 10
176.461
 20
81.9108
 30
0.0
 11
177.249
 21
82.0498
 31
0.0
  0
LINE
  8
0
 62
     0
 10
177.249
 20
82.0498
 30
0.0
 11
178.256
 21
76.3379
 31
0.0
  0
LINE
  8
0
 62
     0
 10
178.256
 20
76.3379
 30
0.0
 11
177.468
 21
76.1986
 31
0.0
  0
LINE
  8
0
 62
     0
 10
177.468
 20
76.1986
 30
0.0
 11
178.007
 21
73.1464
 31
0.0
  0
LINE
  8
0
 62
     0
 10
178.007
 20
73.1464
 30
0.0
 11
178.795
 21
73.2854
 31
0.0
  0
LINE
  8
0
 62
     0
 10
178.795
 20
73.2854
 30
0.0
 11
178.967
 21
72.3
 31
0.0
  0
LINE
  8
0
 62
     0
 10
178.967
 20
72.3
 30
0.0
 11
192.756
 21
74.731
 31
0.0
  0
LINE
  8
0
 62
     0
 10
192.756
 20
74.731
 30
0.0
 11
192.581
 21
75.7163
 31
0.0
  0
LINE
  8
0
 62
     0
 10
192.581
 20
75.7163
 30
0.0
 11
193.369
 21
75.8553
 31
0.0
  0
LINE
  8
0
 62
     0
 10
193.369
 20
75.8553
 30
0.0
 11
192.83
 21
78.9079
 31
0.0
  0
LINE
  8
0
 62
     0
 10
192.83
 20
78.9079
 30
0.0
 11
192.043
 21
78.7686
 31
0.0
  0
LINE
  8
0
 62
     0
 10
192.043
 20
78.7686
 30
0.0
 11
191.036
 21
84.4808
 31
0.0
  0
LINE
  8
0
 62
     0
 10
191.036
 20
84.4808
 30
0.0
 11
191.823
 21
84.6197
 31
0.0
  0
LINE
  8
0
 62
     0
 10
191.823
 20
84.6197
 30
0.0
 11
191.286
 21
87.6734
 31
0.0
  0
LINE
  8
0
 62
     0
 10
191.286
 20
87.6734
 30
0.0
 11
190.497
 21
87.5344
 31
0.0
  0
LINE
  8
0
 62
     0
 10
190.497
 20
87.5344
 30
0.0
 11
190.324
 21
88.5197
 31
0.0
  0
LINE
  8
0
 62
     0
 10
190.324
 20
88.5197
 30
0.0
 11
176.536
 21
86.0873
 31
0.0
  0
LINE
  8
0
 62
     0
 10
76.4727
 20
96.387
 30
0.0
 11
75.686
 21
96.526
 31
0.0
  0
LINE
  8
0
 62
     0
 10
75.686
 20
96.526
 30
0.0
 11
75.1473
 21
93.4738
 31
0.0
  0
LINE
  8
0
 62
     0
 10
75.1473
 20
93.4738
 30
0.0
 11
75.934
 21
93.3344
 31
0.0
  0
LINE
  8
0
 62
     0
 10
75.934
 20
93.3344
 30
0.0
 11
74.9282
 21
87.624
 31
0.0
  0
LINE
  8
0
 62
     0
 10
74.9282
 20
87.624
 30
0.0
 11
74.1398
 21
87.7616
 31
0.0
  0
LINE
  8
0
 62
     0
 10
74.1398
 20
87.7616
 30
0.0
 11
73.6011
 21
84.7094
 31
0.0
  0
LINE
  8
0
 62
     0
 10
73.6011
 20
84.7094
 30
0.0
 11
74.3892
 21
84.5704
 31
0.0
  0
LINE
  8
0
 62
     0
 10
74.3892
 20
84.5704
 30
0.0
 11
74.2156
 21
83.5851
 31
0.0
  0
LINE
  8
0
 62
     0
 10
74.2156
 20
83.5851
 30
0.0
 11
88.0029
 21
81.1541
 31
0.0
  0
LINE
  8
0
 62
     0
 10
88.0029
 20
81.1541
 30
0.0
 11
88.1765
 21
82.1394
 31
0.0
  0
LINE
  8
0
 62
     0
 10
88.1765
 20
82.1394
 30
0.0
 11
88.9649
 21
82
 31
0.0
  0
LINE
  8
0
 62
     0
 10
88.9649
 20
82
 30
0.0
 11
89.5022
 21
85.0526
 31
0.0
  0
LINE
  8
0
 62
     0
 10
89.5022
 20
85.0526
 30
0.0
 11
88.7155
 21
85.1916
 31
0.0
  0
LINE
  8
0
 62
     0
 10
88.7155
 20
85.1916
 30
0.0
 11
89.7227
 21
90.9038
 31
0.0
  0
LINE
  8
0
 62
     0
 10
89.7227
 20
90.9038
 30
0.0
 11
90.5108
 21
90.7644
 31
0.0
  0
LINE
  8
0
 62
     0
 10
90.5108
 20
90.7644
 30
0.0
 11
91.0484
 21
93.817
 31
0.0
  0
LINE
  8
0
 62
     0
 10
91.0484
 20
93.817
 30
0.0
 11
90.26
 21
93.956
 31
0.0
  0
LINE
  8
0
 62
     0
 10
90.26
 20
93.956
 30
0.0
 11
90.4353
 21
94.9413
 31
0.0
  0
LINE
  8
0
 62
     0
 10
90.4353
 20
94.9413
 30
0.0
 11
76.6466
 21
97.3723
 31
0.0
  0
LINE
  8
0
 62
     0
 10
76.6466
 20
97.3723
 30
0.0
 11
76.4727
 21
96.387
 31
0.0
  0
LINE
  8
0
 62
     0
 10
155.626
 20
94.9745
 30
0.0
 11
155.8
 21
93.9892
 31
0.0
  0
LINE
  8
0
 62
     0
 10
155.8
 20
93.9892
 30
0.0
 11
155.011
 21
93.8498
 31
0.0
  0
LINE
  8
0
 62
     0
 10
155.011
 20
93.8498
 30
0.0
 11
155.549
 21
90.7976
 31
0.0
  0
LINE
  8
0
 62
     0
 10
155.549
 20
90.7976
 30
0.0
 11
156.337
 21
90.9366
 31
0.0
  0
LINE
  8
0
 62
     0
 10
156.337
 20
90.9366
 30
0.0
 11
157.346
 21
85.2234
 31
0.0
  0
LINE
  8
0
 62
     0
 10
157.346
 20
85.2234
 30
0.0
 11
156.557
 21
85.0858
 31
0.0
  0
LINE
  8
0
 62
     0
 10
156.557
 20
85.0858
 30
0.0
 11
157.095
 21
82.0332
 31
0.0
  0
LINE
  8
0
 62
     0
 10
157.095
 20
82.0332
 30
0.0
 11
157.883
 21
82.1711
 31
0.0
  0
LINE
  8
0
 62
     0
 10
157.883
 20
82.1711
 30
0.0
 11
158.057
 21
81.1872
 31
0.0
  0
LINE
  8
0
 62
     0
 10
158.057
 20
81.1872
 30
0.0
 11
171.844
 21
83.6179
 31
0.0
  0
LINE
  8
0
 62
     0
 10
171.844
 20
83.6179
 30
0.0
 11
171.67
 21
84.6032
 31
0.0
  0
LINE
  8
0
 62
     0
 10
171.67
 20
84.6032
 30
0.0
 11
172.459
 21
84.7411
 31
0.0
  0
LINE
  8
0
 62
     0
 10
172.459
 20
84.7411
 30
0.0
 11
171.92
 21
87.7947
 31
0.0
  0
LINE
  8
0
 62
     0
 10
171.92
 20
87.7947
 30
0.0
 11
171.133
 21
87.6558
 31
0.0
  0
LINE
  8
0
 62
     0
 10
171.133
 20
87.6558
 30
0.0
 11
170.126
 21
93.3676
 31
0.0
  0
LINE
  8
0
 62
     0
 10
170.126
 20
93.3676
 30
0.0
 11
170.914
 21
93.5055
 31
0.0
  0
LINE
  8
0
 62
     0
 10
170.914
 20
93.5055
 30
0.0
 11
170.375
 21
96.5592
 31
0.0
  0
LINE
  8
0
 62
     0
 10
170.375
 20
96.5592
 30
0.0
 11
169.587
 21
96.4198
 31
0.0
  0
LINE
  8
0
 62
     0
 10
169.587
 20
96.4198
 30
0.0
 11
169.413
 21
97.4051
 31
0.0
  0
LINE
  8
0
 62
     0
 10
169.413
 20
97.4051
 30
0.0
 11
155.626
 21
94.9745
 31
0.0
  0
LINE
  8
0
 62
     0
 10
19.3642
 20
101.621
 30
0.0
 11
18.576
 21
101.76
 31
0.0
  0
LINE
  8
0
 62
     0
 10
18.576
 20
101.76
 30
0.0
 11
18.0385
 21
98.7076
 31
0.0
  0
LINE
  8
0
 62
     0
 10
18.0385
 20
98.7076
 30
0.0
 11
18.8268
 21
98.5682
 31
0.0
  0
LINE
  8
0
 62
     0
 10
18.8268
 20
98.5682
 30
0.0
 11
17.8194
 21
92.8578
 31
0.0
  0
LINE
  8
0
 62
     0
 10
17.8194
 20
92.8578
 30
0.0
 11
17.0312
 21
92.9954
 31
0.0
  0
LINE
  8
0
 62
     0
 10
17.0312
 20
92.9954
 30
0.0
 11
16.4924
 21
89.9432
 31
0.0
  0
LINE
  8
0
 62
     0
 10
16.4924
 20
89.9432
 30
0.0
 11
17.2806
 21
89.8042
 31
0.0
  0
LINE
  8
0
 62
     0
 10
17.2806
 20
89.8042
 30
0.0
 11
17.107
 21
88.8189
 31
0.0
  0
LINE
  8
0
 62
     0
 10
17.107
 20
88.8189
 30
0.0
 11
30.8942
 21
86.3879
 31
0.0
  0
LINE
  8
0
 62
     0
 10
30.8942
 20
86.3879
 30
0.0
 11
31.0679
 21
87.3746
 31
0.0
  0
LINE
  8
0
 62
     0
 10
31.0679
 20
87.3746
 30
0.0
 11
31.8561
 21
87.2338
 31
0.0
  0
LINE
  8
0
 62
     0
 10
31.8561
 20
87.2338
 30
0.0
 11
32.3949
 21
90.2878
 31
0.0
  0
LINE
  8
0
 62
     0
 10
32.3949
 20
90.2878
 30
0.0
 11
31.6067
 21
90.4254
 31
0.0
  0
LINE
  8
0
 62
     0
 10
31.6067
 20
90.4254
 30
0.0
 11
32.614
 21
96.1376
 31
0.0
  0
LINE
  8
0
 62
     0
 10
32.614
 20
96.1376
 30
0.0
 11
33.4009
 21
95.9982
 31
0.0
  0
LINE
  8
0
 62
     0
 10
33.4009
 20
95.9982
 30
0.0
 11
33.9397
 21
99.0505
 31
0.0
  0
LINE
  8
0
 62
     0
 10
33.9397
 20
99.0505
 30
0.0
 11
33.1515
 21
99.1898
 31
0.0
  0
LINE
  8
0
 62
     0
 10
33.1515
 20
99.1898
 30
0.0
 11
33.3251
 21
100.175
 31
0.0
  0
LINE
  8
0
 62
     0
 10
33.3251
 20
100.175
 30
0.0
 11
19.5378
 21
102.606
 31
0.0
  0
LINE
  8
0
 62
     0
 10
19.5378
 20
102.606
 30
0.0
 11
19.3642
 21
101.621
 31
0.0
  0
LINE
  8
0
 62
     0
 10
212.735
 20
100.208
 30
0.0
 11
212.908
 21
99.223
 31
0.0
  0
LINE
  8
0
 62
     0
 10
212.908
 20
99.223
 30
0.0
 11
212.12
 21
99.0836
 31
0.0
  0
LINE
  8
0
 62
     0
 10
212.12
 20
99.0836
 30
0.0
 11
212.659
 21
96.0314
 31
0.0
  0
LINE
  8
0
 62
     0
 10
212.659
 20
96.0314
 30
0.0
 11
213.447
 21
96.1704
 31
0.0
  0
LINE
  8
0
 62
     0
 10
213.447
 20
96.1704
 30
0.0
 11
214.453
 21
90.4586
 31
0.0
  0
LINE
  8
0
 62
     0
 10
214.453
 20
90.4586
 30
0.0
 11
213.665
 21
90.3192
 31
0.0
  0
LINE
  8
0
 62
     0
 10
213.665
 20
90.3192
 30
0.0
 11
214.205
 21
87.2656
 31
0.0
  0
LINE
  8
0
 62
     0
 10
214.205
 20
87.2656
 30
0.0
 11
214.992
 21
87.4049
 31
0.0
  0
LINE
  8
0
 62
     0
 10
214.992
 20
87.4049
 30
0.0
 11
215.166
 21
86.421
 31
0.0
  0
LINE
  8
0
 62
     0
 10
215.166
 20
86.421
 30
0.0
 11
228.954
 21
88.8517
 31
0.0
  0
LINE
  8
0
 62
     0
 10
228.954
 20
88.8517
 30
0.0
 11
228.779
 21
89.8356
 31
0.0
  0
LINE
  8
0
 62
     0
 10
228.779
 20
89.8356
 30
0.0
 11
229.567
 21
89.9749
 31
0.0
  0
LINE
  8
0
 62
     0
 10
229.567
 20
89.9749
 30
0.0
 11
229.029
 21
93.0286
 31
0.0
  0
LINE
  8
0
 62
     0
 10
229.029
 20
93.0286
 30
0.0
 11
228.242
 21
92.8896
 31
0.0
  0
LINE
  8
0
 62
     0
 10
228.242
 20
92.8896
 30
0.0
 11
227.233
 21
98.6014
 31
0.0
  0
LINE
  8
0
 62
     0
 10
227.233
 20
98.6014
 30
0.0
 11
228.021
 21
98.7407
 31
0.0
  0
LINE
  8
0
 62
     0
 10
228.021
 20
98.7407
 30
0.0
 11
227.484
 21
101.793
 31
0.0
  0
LINE
  8
0
 62
     0
 10
227.484
 20
101.793
 30
0.0
 11
226.696
 21
101.654
 31
0.0
  0
LINE
  8
0
 62
     0
 10
226.696
 20
101.654
 30
0.0
 11
226.522
 21
102.639
 31
0.0
  0
LINE
  8
0
 62
     0
 10
226.522
 20
102.639
 30
0.0
 11
212.735
 21
100.208
 31
0.0
  0
LINE
  8
0
 62
     0
 10
38.953
 20
103.003
 30
0.0
 11
38.1649
 21
103.142
 31
0.0
  0
LINE
  8
0
 62
     0
 10
38.1649
 20
103.142
 30
0.0
 11
37.6259
 21
100.09
 31
0.0
  0
LINE
  8
0
 62
     0
 10
37.6259
 20
100.09
 30
0.0
 11
38.4129
 21
99.9504
 31
0.0
  0
LINE
  8
0
 62
     0
 10
38.4129
 20
99.9504
 30
0.0
 11
37.4068
 21
94.2386
 31
0.0
  0
LINE
  8
0
 62
     0
 10
37.4068
 20
94.2386
 30
0.0
 11
36.6187
 21
94.3776
 31
0.0
  0
LINE
  8
0
 62
     0
 10
36.6187
 20
94.3776
 30
0.0
 11
36.0811
 21
91.3253
 31
0.0
  0
LINE
  8
0
 62
     0
 10
36.0811
 20
91.3253
 30
0.0
 11
36.8681
 21
91.186
 31
0.0
  0
LINE
  8
0
 62
     0
 10
36.8681
 20
91.186
 30
0.0
 11
36.6945
 21
90.201
 31
0.0
  0
LINE
  8
0
 62
     0
 10
36.6945
 20
90.201
 30
0.0
 11
50.4832
 21
87.7701
 31
0.0
  0
LINE
  8
0
 62
     0
 10
50.4832
 20
87.7701
 30
0.0
 11
50.6554
 21
88.7554
 31
0.0
  0
LINE
  8
0
 62
     0
 10
50.6554
 20
88.7554
 30
0.0
 11
51.4435
 21
88.616
 31
0.0
  0
LINE
  8
0
 62
     0
 10
51.4435
 20
88.616
 30
0.0
 11
51.9811
 21
91.6686
 31
0.0
  0
LINE
  8
0
 62
     0
 10
51.9811
 20
91.6686
 30
0.0
 11
51.1941
 21
91.8076
 31
0.0
  0
LINE
  8
0
 62
     0
 10
51.1941
 20
91.8076
 30
0.0
 11
52.2016
 21
97.5198
 31
0.0
  0
LINE
  8
0
 62
     0
 10
52.2016
 20
97.5198
 30
0.0
 11
52.9883
 21
97.3804
 31
0.0
  0
LINE
  8
0
 62
     0
 10
52.9883
 20
97.3804
 30
0.0
 11
53.527
 21
100.433
 31
0.0
  0
LINE
  8
0
 62
     0
 10
53.527
 20
100.433
 30
0.0
 11
52.7389
 21
100.572
 31
0.0
  0
LINE
  8
0
 62
     0
 10
52.7389
 20
100.572
 30
0.0
 11
52.9138
 21
101.557
 31
0.0
  0
LINE
  8
0
 62
     0
 10
52.9138
 20
101.557
 30
0.0
 11
39.1252
 21
103.988
 31
0.0
  0
LINE
  8
0
 62
     0
 10
39.1252
 20
103.988
 30
0.0
 11
38.953
 21
103.003
 31
0.0
  0
LINE
  8
0
 62
     0
 10
193.147
 20
101.59
 30
0.0
 11
193.321
 21
100.605
 31
0.0
  0
LINE
  8
0
 62
     0
 10
193.321
 20
100.605
 30
0.0
 11
192.533
 21
100.466
 31
0.0
  0
LINE
  8
0
 62
     0
 10
192.533
 20
100.466
 30
0.0
 11
193.071
 21
97.4136
 31
0.0
  0
LINE
  8
0
 62
     0
 10
193.071
 20
97.4136
 30
0.0
 11
193.86
 21
97.5526
 31
0.0
  0
LINE
  8
0
 62
     0
 10
193.86
 20
97.5526
 30
0.0
 11
194.867
 21
91.8408
 31
0.0
  0
LINE
  8
0
 62
     0
 10
194.867
 20
91.8408
 30
0.0
 11
194.079
 21
91.7014
 31
0.0
  0
LINE
  8
0
 62
     0
 10
194.079
 20
91.7014
 30
0.0
 11
194.616
 21
88.6492
 31
0.0
  0
LINE
  8
0
 62
     0
 10
194.616
 20
88.6492
 30
0.0
 11
195.404
 21
88.7871
 31
0.0
  0
LINE
  8
0
 62
     0
 10
195.404
 20
88.7871
 30
0.0
 11
195.578
 21
87.8046
 31
0.0
  0
LINE
  8
0
 62
     0
 10
195.578
 20
87.8046
 30
0.0
 11
209.365
 21
90.2339
 31
0.0
  0
LINE
  8
0
 62
     0
 10
209.365
 20
90.2339
 30
0.0
 11
209.192
 21
91.2192
 31
0.0
  0
LINE
  8
0
 62
     0
 10
209.192
 20
91.2192
 30
0.0
 11
209.98
 21
91.3571
 31
0.0
  0
LINE
  8
0
 62
     0
 10
209.98
 20
91.3571
 30
0.0
 11
209.441
 21
94.4093
 31
0.0
  0
LINE
  8
0
 62
     0
 10
209.441
 20
94.4093
 30
0.0
 11
208.653
 21
94.2717
 31
0.0
  0
LINE
  8
0
 62
     0
 10
208.653
 20
94.2717
 30
0.0
 11
207.647
 21
99.9836
 31
0.0
  0
LINE
  8
0
 62
     0
 10
207.647
 20
99.9836
 30
0.0
 11
208.435
 21
100.123
 31
0.0
  0
LINE
  8
0
 62
     0
 10
208.435
 20
100.123
 30
0.0
 11
207.895
 21
103.175
 31
0.0
  0
LINE
  8
0
 62
     0
 10
207.895
 20
103.175
 30
0.0
 11
207.108
 21
103.036
 31
0.0
  0
LINE
  8
0
 62
     0
 10
207.108
 20
103.036
 30
0.0
 11
206.935
 21
104.021
 31
0.0
  0
LINE
  8
0
 62
     0
 10
206.935
 20
104.021
 30
0.0
 11
193.147
 21
101.59
 31
0.0
  0
LINE
  8
0
 62
     0
 10
58.8712
 20
106.262
 30
0.0
 11
58.0831
 21
106.401
 31
0.0
  0
LINE
  8
0
 62
     0
 10
58.0831
 20
106.401
 30
0.0
 11
57.5441
 21
103.349
 31
0.0
  0
LINE
  8
0
 62
     0
 10
57.5441
 20
103.349
 30
0.0
 11
58.3325
 21
103.21
 31
0.0
  0
LINE
  8
0
 62
     0
 10
58.3325
 20
103.21
 30
0.0
 11
57.325
 21
97.4975
 31
0.0
  0
LINE
  8
0
 62
     0
 10
57.325
 20
97.4975
 30
0.0
 11
56.5383
 21
97.6355
 31
0.0
  0
LINE
  8
0
 62
     0
 10
56.5383
 20
97.6355
 30
0.0
 11
55.9978
 21
94.5829
 31
0.0
  0
LINE
  8
0
 62
     0
 10
55.9978
 20
94.5829
 30
0.0
 11
56.7863
 21
94.4439
 31
0.0
  0
LINE
  8
0
 62
     0
 10
56.7863
 20
94.4439
 30
0.0
 11
56.6138
 21
93.4586
 31
0.0
  0
LINE
  8
0
 62
     0
 10
56.6138
 20
93.4586
 30
0.0
 11
70.4
 21
91.0276
 31
0.0
  0
LINE
  8
0
 62
     0
 10
70.4
 20
91.0276
 30
0.0
 11
70.575
 21
92.0129
 31
0.0
  0
LINE
  8
0
 62
     0
 10
70.575
 20
92.0129
 30
0.0
 11
71.3617
 21
91.8739
 31
0.0
  0
LINE
  8
0
 62
     0
 10
71.3617
 20
91.8739
 30
0.0
 11
71.9007
 21
94.9276
 31
0.0
  0
LINE
  8
0
 62
     0
 10
71.9007
 20
94.9276
 30
0.0
 11
71.1122
 21
95.0666
 31
0.0
  0
LINE
  8
0
 62
     0
 10
71.1122
 20
95.0666
 30
0.0
 11
72.1198
 21
100.779
 31
0.0
  0
LINE
  8
0
 62
     0
 10
72.1198
 20
100.779
 30
0.0
 11
72.9079
 21
100.639
 31
0.0
  0
LINE
  8
0
 62
     0
 10
72.9079
 20
100.639
 30
0.0
 11
73.4452
 21
103.692
 31
0.0
  0
LINE
  8
0
 62
     0
 10
73.4452
 20
103.692
 30
0.0
 11
72.6571
 21
103.832
 31
0.0
  0
LINE
  8
0
 62
     0
 10
72.6571
 20
103.832
 30
0.0
 11
72.832
 21
104.815
 31
0.0
  0
LINE
  8
0
 62
     0
 10
72.832
 20
104.815
 30
0.0
 11
59.0448
 21
107.246
 31
0.0
  0
LINE
  8
0
 62
     0
 10
59.0448
 20
107.246
 30
0.0
 11
58.8712
 21
106.262
 31
0.0
  0
LINE
  8
0
 62
     0
 10
173.229
 20
104.848
 30
0.0
 11
173.403
 21
103.864
 31
0.0
  0
LINE
  8
0
 62
     0
 10
173.403
 20
103.864
 30
0.0
 11
172.615
 21
103.724
 31
0.0
  0
LINE
  8
0
 62
     0
 10
172.615
 20
103.724
 30
0.0
 11
173.152
 21
100.673
 31
0.0
  0
LINE
  8
0
 62
     0
 10
173.152
 20
100.673
 30
0.0
 11
173.94
 21
100.81
 31
0.0
  0
LINE
  8
0
 62
     0
 10
173.94
 20
100.81
 30
0.0
 11
174.947
 21
95.0983
 31
0.0
  0
LINE
  8
0
 62
     0
 10
174.947
 20
95.0983
 30
0.0
 11
174.159
 21
94.9607
 31
0.0
  0
LINE
  8
0
 62
     0
 10
174.159
 20
94.9607
 30
0.0
 11
174.698
 21
91.9067
 31
0.0
  0
LINE
  8
0
 62
     0
 10
174.698
 20
91.9067
 30
0.0
 11
175.486
 21
92.0461
 31
0.0
  0
LINE
  8
0
 62
     0
 10
175.486
 20
92.0461
 30
0.0
 11
175.66
 21
91.0608
 31
0.0
  0
LINE
  8
0
 62
     0
 10
175.66
 20
91.0608
 30
0.0
 11
189.447
 21
93.4918
 31
0.0
  0
LINE
  8
0
 62
     0
 10
189.447
 20
93.4918
 30
0.0
 11
189.273
 21
94.4771
 31
0.0
  0
LINE
  8
0
 62
     0
 10
189.273
 20
94.4771
 30
0.0
 11
190.062
 21
94.6161
 31
0.0
  0
LINE
  8
0
 62
     0
 10
190.062
 20
94.6161
 30
0.0
 11
189.523
 21
97.6683
 31
0.0
  0
LINE
  8
0
 62
     0
 10
189.523
 20
97.6683
 30
0.0
 11
188.736
 21
97.5307
 31
0.0
  0
LINE
  8
0
 62
     0
 10
188.736
 20
97.5307
 30
0.0
 11
187.728
 21
103.243
 31
0.0
  0
LINE
  8
0
 62
     0
 10
187.728
 20
103.243
 30
0.0
 11
188.516
 21
103.38
 31
0.0
  0
LINE
  8
0
 62
     0
 10
188.516
 20
103.38
 30
0.0
 11
187.977
 21
106.433
 31
0.0
  0
LINE
  8
0
 62
     0
 10
187.977
 20
106.433
 30
0.0
 11
187.19
 21
106.294
 31
0.0
  0
LINE
  8
0
 62
     0
 10
187.19
 20
106.294
 30
0.0
 11
187.015
 21
107.279
 31
0.0
  0
LINE
  8
0
 62
     0
 10
187.015
 20
107.279
 30
0.0
 11
173.229
 21
104.848
 31
0.0
  0
ENDSEC
  0
EOF
