0
SECTION
2
HEADER
9
$INSUNITS
70
4
0
ENDSEC
0
SECTION
2
TABLES
0
TABLE
2
LTYPE
0
LTYPE
72
65
70
64
2
CONTINUOUS
3
______
73
0
40
0
0
ENDTAB
0
TABLE
2
LAYER
0
ENDTAB
0
ENDSEC
0
SECTION
2
ENTITIES
0
LINE
8
0
10
59.4425569
20
-7.7518621
11
72.2450577
21
-10.0092884
0
LINE
8
0
10
57.0114825
20
-21.5391706
11
69.8139833
21
-23.7965969
0
LINE
8
0
10
58.863329
20
-8.1574419
11
56.6059027
21
-20.9599427
0
LINE
8
0
10
72.6506375
20
-10.5885163
11
70.3932112
21
-23.3910171
0
ARC
8
0
10
59.3557329
20
-8.244266
40
0.5
50
80
51
170
0
ARC
8
0
10
72.1582336
20
-10.5016923
40
0.5
50
350
51
80
0
ARC
8
0
10
57.0983066
20
-21.0467667
40
0.5
50
170
51
260
0
ARC
8
0
10
69.9008073
20
-23.304193
40
0.5
50
260
51
350
0
LINE
8
0
10
39.52417
20
-11.01007
11
52.3266708
21
-13.2674963
0
LINE
8
0
10
37.0930956
20
-24.7973785
11
49.8955964
21
-27.0548048
0
LINE
8
0
10
38.9449421
20
-11.4156498
11
36.6875158
21
-24.2181506
0
LINE
8
0
10
52.7322506
20
-13.8467242
11
50.4748243
21
-26.649225
0
ARC
8
0
10
39.437346
20
-11.5024739
40
0.5
50
80
51
170
0
ARC
8
0
10
52.2398467
20
-13.7599002
40
0.5
50
350
51
80
0
ARC
8
0
10
37.1799197
20
-24.3049746
40
0.5
50
170
51
260
0
ARC
8
0
10
49.9824204
20
-26.5624009
40
0.5
50
260
51
350
0
LINE
8
0
10
77.0453454
20
-17.6260656
11
89.8478462
21
-19.8834919
0
LINE
8
0
10
74.614271
20
-31.4133741
11
87.4167718
21
-33.6708004
0
LINE
8
0
10
76.4661175
20
-18.0316454
11
74.2086912
21
-30.8341462
0
LINE
8
0
10
90.253426
20
-20.4627198
11
87.9959997
21
-33.2652206
0
ARC
8
0
10
76.9585214
20
-18.1184695
40
0.5
50
80
51
170
0
ARC
8
0
10
89.7610221
20
-20.3758958
40
0.5
50
350
51
80
0
ARC
8
0
10
74.7010951
20
-30.9209702
40
0.5
50
170
51
260
0
ARC
8
0
10
87.5035958
20
-33.1783965
40
0.5
50
260
51
350
0
LINE
8
0
10
19.9365829
20
-12.3922192
11
32.7390837
21
-14.6496455
0
LINE
8
0
10
17.5055085
20
-26.1795277
11
30.3080093
21
-28.436954
0
LINE
8
0
10
19.357355
20
-12.797799
11
17.0999287
21
-25.6002998
0
LINE
8
0
10
33.1446635
20
-15.2288734
11
30.8872372
21
-28.0313742
0
ARC
8
0
10
19.8497589
20
-12.8846231
40
0.5
50
80
51
170
0
ARC
8
0
10
32.6522596
20
-15.1420494
40
0.5
50
350
51
80
0
ARC
8
0
10
17.5923326
20
-25.6871238
40
0.5
50
170
51
260
0
ARC
8
0
10
30.3948333
20
-27.9445501
40
0.5
50
260
51
350
0
LINE
8
0
10
94.6481339
20
-27.5002691
11
107.4506347
21
-29.7576954
0
LINE
8
0
10
92.2170595
20
-41.2875776
11
105.0195603
21
-43.5450039
0
LINE
8
0
10
94.068906
20
-27.9058489
11
91.8114797
21
-40.7083497
0
LINE
8
0
10
107.8562145
20
-30.3369233
11
105.5987882
21
-43.1394241
0
ARC
8
0
10
94.5613099
20
-27.992673
40
0.5
50
80
51
170
0
ARC
8
0
10
107.3638106
20
-30.2500993
40
0.5
50
350
51
80
0
ARC
8
0
10
92.3038836
20
-40.7951737
40
0.5
50
170
51
260
0
ARC
8
0
10
105.1063843
20
-43.0526
40
0.5
50
260
51
350
0
LINE
8
0
10
56.1345591
20
-26.5124498
11
68.9370599
21
-28.7698761
0
LINE
8
0
10
53.7034847
20
-40.2997583
11
66.5059855
21
-42.5571846
0
LINE
8
0
10
55.5553312
20
-26.9180296
11
53.2979049
21
-39.7205304
0
LINE
8
0
10
69.3426397
20
-29.349104
11
67.0852134
21
-42.1516048
0
ARC
8
0
10
56.0477351
20
-27.0048537
40
0.5
50
80
51
170
0
ARC
8
0
10
68.8502358
20
-29.26228
40
0.5
50
350
51
80
0
ARC
8
0
10
53.7903088
20
-39.8073544
40
0.5
50
170
51
260
0
ARC
8
0
10
66.5928095
20
-42.0647807
40
0.5
50
260
51
350
0
LINE
8
0
10
36.2161722
20
-29.7706577
11
49.018673
21
-32.028084
0
LINE
8
0
10
33.7850978
20
-43.5579662
11
46.5875986
21
-45.8153925
0
LINE
8
0
10
35.6369443
20
-30.1762375
11
33.379518
21
-42.9787383
0
LINE
8
0
10
49.4242528
20
-32.6073119
11
47.1668265
21
-45.4098127
0
ARC
8
0
10
36.1293482
20
-30.2630616
40
0.5
50
80
51
170
0
ARC
8
0
10
48.9318489
20
-32.5204879
40
0.5
50
350
51
80
0
ARC
8
0
10
33.8719219
20
-43.0655623
40
0.5
50
170
51
260
0
ARC
8
0
10
46.6744226
20
-45.3229886
40
0.5
50
260
51
350
0
LINE
8
0
10
73.7373476
20
-36.3866533
11
86.5398484
21
-38.6440796
0
LINE
8
0
10
71.3062732
20
-50.1739618
11
84.108774
21
-52.4313881
0
LINE
8
0
10
73.1581197
20
-36.7922331
11
70.9006934
21
-49.5947339
0
LINE
8
0
10
86.9454282
20
-39.2233075
11
84.6880019
21
-52.0258083
0
ARC
8
0
10
73.6505236
20
-36.8790572
40
0.5
50
80
51
170
0
ARC
8
0
10
86.4530243
20
-39.1364835
40
0.5
50
350
51
80
0
ARC
8
0
10
71.3930973
20
-49.6815579
40
0.5
50
170
51
260
0
ARC
8
0
10
84.195598
20
-51.9389842
40
0.5
50
260
51
350
0
LINE
8
0
10
16.6285851
20
-31.1528069
11
29.4310859
21
-33.4102332
0
LINE
8
0
10
14.1975107
20
-44.9401154
11
27.0000115
21
-47.1975417
0
LINE
8
0
10
16.0493572
20
-31.5583867
11
13.7919309
21
-44.3608875
0
LINE
8
0
10
29.8366657
20
-33.9894611
11
27.5792394
21
-46.7919619
0
ARC
8
0
10
16.5417611
20
-31.6452108
40
0.5
50
80
51
170
0
ARC
8
0
10
29.3442618
20
-33.9026371
40
0.5
50
350
51
80
0
ARC
8
0
10
14.2843348
20
-44.4477115
40
0.5
50
170
51
260
0
ARC
8
0
10
27.0868355
20
-46.7051378
40
0.5
50
260
51
350
0
LINE
8
0
10
91.3401361
20
-46.2608568
11
104.1426369
21
-48.5182831
0
LINE
8
0
10
88.9090617
20
-60.0481653
11
101.7115625
21
-62.3055916
0
LINE
8
0
10
90.7609082
20
-46.6664366
11
88.5034819
21
-59.4689374
0
LINE
8
0
10
104.5482167
20
-49.097511
11
102.2907904
21
-61.9000118
0
ARC
8
0
10
91.2533121
20
-46.7532607
40
0.5
50
80
51
170
0
ARC
8
0
10
104.0558128
20
-49.010687
40
0.5
50
350
51
80
0
ARC
8
0
10
88.9958858
20
-59.5557614
40
0.5
50
170
51
260
0
ARC
8
0
10
101.7983865
20
-61.8131877
40
0.5
50
260
51
350
0
LINE
8
0
10
52.8265614
20
-45.2730375
11
65.6290622
21
-47.5304638
0
LINE
8
0
10
50.395487
20
-59.060346
11
63.1979878
21
-61.3177723
0
LINE
8
0
10
52.2473335
20
-45.6786173
11
49.9899072
21
-58.4811181
0
LINE
8
0
10
66.034642
20
-48.1096917
11
63.7772157
21
-60.9121925
0
ARC
8
0
10
52.7397374
20
-45.7654414
40
0.5
50
80
51
170
0
ARC
8
0
10
65.5422381
20
-48.0228677
40
0.5
50
350
51
80
0
ARC
8
0
10
50.4823111
20
-58.5679421
40
0.5
50
170
51
260
0
ARC
8
0
10
63.2848118
20
-60.8253684
40
0.5
50
260
51
350
0
LINE
8
0
10
32.9081744
20
-48.5312454
11
45.7106752
21
-50.7886717
0
LINE
8
0
10
30.4771
20
-62.3185539
11
43.2796008
21
-64.5759802
0
LINE
8
0
10
32.3289465
20
-48.9368252
11
30.0715202
21
-61.739326
0
LINE
8
0
10
46.116255
20
-51.3678996
11
43.8588287
21
-64.1704004
0
ARC
8
0
10
32.8213504
20
-49.0236493
40
0.5
50
80
51
170
0
ARC
8
0
10
45.6238511
20
-51.2810756
40
0.5
50
350
51
80
0
ARC
8
0
10
30.5639241
20
-61.82615
40
0.5
50
170
51
260
0
ARC
8
0
10
43.3664248
20
-64.0835763
40
0.5
50
260
51
350
0
LINE
8
0
10
70.4293498
20
-55.147241
11
83.2318506
21
-57.4046673
0
LINE
8
0
10
67.9982754
20
-68.9345495
11
80.8007762
21
-71.1919758
0
LINE
8
0
10
69.8501219
20
-55.5528208
11
67.5926956
21
-68.3553216
0
LINE
8
0
10
83.6374304
20
-57.9838952
11
81.3800041
21
-70.786396
0
ARC
8
0
10
70.3425258
20
-55.6396449
40
0.5
50
80
51
170
0
ARC
8
0
10
83.1450265
20
-57.8970712
40
0.5
50
350
51
80
0
ARC
8
0
10
68.0850995
20
-68.4421456
40
0.5
50
170
51
260
0
ARC
8
0
10
80.8876002
20
-70.6995719
40
0.5
50
260
51
350
0
LINE
8
0
10
13.3205873
20
-49.9133946
11
26.1230881
21
-52.1708209
0
LINE
8
0
10
10.8895129
20
-63.7007031
11
23.6920137
21
-65.9581294
0
LINE
8
0
10
12.7413594
20
-50.3189744
11
10.4839331
21
-63.1214752
0
LINE
8
0
10
26.5286679
20
-52.7500488
11
24.2712416
21
-65.5525496
0
ARC
8
0
10
13.2337633
20
-50.4057985
40
0.5
50
80
51
170
0
ARC
8
0
10
26.036264
20
-52.6632248
40
0.5
50
350
51
80
0
ARC
8
0
10
10.976337
20
-63.2082992
40
0.5
50
170
51
260
0
ARC
8
0
10
23.7788377
20
-65.4657255
40
0.5
50
260
51
350
0
LINE
8
0
10
88.0321383
20
-65.0214445
11
100.8346391
21
-67.2788708
0
LINE
8
0
10
85.6010639
20
-78.808753
11
98.4035647
21
-81.0661793
0
LINE
8
0
10
87.4529104
20
-65.4270243
11
85.1954841
21
-78.2295251
0
LINE
8
0
10
101.2402189
20
-67.8580987
11
98.9827926
21
-80.6605995
0
ARC
8
0
10
87.9453143
20
-65.5138484
40
0.5
50
80
51
170
0
ARC
8
0
10
100.747815
20
-67.7712747
40
0.5
50
350
51
80
0
ARC
8
0
10
85.687888
20
-78.3163491
40
0.5
50
170
51
260
0
ARC
8
0
10
98.4903887
20
-80.5737754
40
0.5
50
260
51
350
0
LINE
8
0
10
84.1055061
20
-89.072682
11
96.6625419
21
-92.4373296
0
LINE
8
0
10
80.4820395
20
-102.5956436
11
93.0390753
21
-105.9602912
0
LINE
8
0
10
83.4931337
20
-89.4262354
11
80.1284861
21
-101.9832712
0
LINE
8
0
10
97.0160953
20
-93.049702
11
93.6514477
21
-105.6067378
0
ARC
8
0
10
83.9760966
20
-89.5556449
40
0.5
50
75
51
165
0
ARC
8
0
10
96.5331324
20
-92.9202925
40
0.5
50
345
51
75
0
ARC
8
0
10
80.611449
20
-102.1126807
40
0.5
50
165
51
255
0
ARC
8
0
10
93.1684848
20
-105.4773283
40
0.5
50
255
51
345
0
LINE
8
0
10
104.3464818
20
-94.4962351
11
116.9035176
21
-97.8608827
0
LINE
8
0
10
100.7230152
20
-108.0191967
11
113.280051
21
-111.3838443
0
LINE
8
0
10
103.7341094
20
-94.8497885
11
100.3694618
21
-107.4068243
0
LINE
8
0
10
117.257071
20
-98.4732551
11
113.8924234
21
-111.0302909
0
ARC
8
0
10
104.2170723
20
-94.979198
40
0.5
50
75
51
165
0
ARC
8
0
10
116.7741081
20
-98.3438456
40
0.5
50
345
51
75
0
ARC
8
0
10
100.8524247
20
-107.5362338
40
0.5
50
165
51
255
0
ARC
8
0
10
113.4094605
20
-110.9008814
40
0.5
50
255
51
345
0
LINE
8
0
10
132.5862881
20
-95.8497709
11
145.1433239
21
-92.4851233
0
LINE
8
0
10
136.2097547
20
-109.3727325
11
148.7667905
21
-106.0080849
0
LINE
8
0
10
132.2327347
20
-96.4621433
11
135.5973823
21
-109.0191791
0
LINE
8
0
10
145.7556963
20
-92.8386767
11
149.1203439
21
-105.3957125
0
ARC
8
0
10
132.7156976
20
-96.3327338
40
0.5
50
105
51
195
0
ARC
8
0
10
145.2727334
20
-92.9680862
40
0.5
50
15
51
105
0
ARC
8
0
10
136.0803452
20
-108.8897696
40
0.5
50
195
51
285
0
ARC
8
0
10
148.637381
20
-105.525122
40
0.5
50
285
51
15
0
LINE
8
0
10
152.8272638
20
-90.4262178
11
165.3842996
21
-87.0615702
0
LINE
8
0
10
156.4507304
20
-103.9491794
11
169.0077662
21
-100.5845318
0
LINE
8
0
10
152.4737104
20
-91.0385902
11
155.838358
21
-103.595626
0
LINE
8
0
10
165.996672
20
-87.4151236
11
169.3613196
21
-99.9721594
0
ARC
8
0
10
152.9566733
20
-90.9091807
40
0.5
50
105
51
195
0
ARC
8
0
10
165.5137091
20
-87.5445331
40
0.5
50
15
51
105
0
ARC
8
0
10
156.3213209
20
-103.4662165
40
0.5
50
195
51
285
0
ARC
8
0
10
168.8783567
20
-100.1015689
40
0.5
50
285
51
15
0
LINE
8
0
10
173.627081
20
-9.9764907
11
186.4295818
21
-7.7190644
0
LINE
8
0
10
176.0581554
20
-23.7637992
11
188.8606562
21
-21.5063729
0
LINE
8
0
10
173.2215012
20
-10.5557186
11
175.4789275
21
-23.3582194
0
LINE
8
0
10
187.0088097
20
-8.1246442
11
189.266236
21
-20.927145
0
ARC
8
0
10
173.7139051
20
-10.4688946
40
0.5
50
100
51
190
0
ARC
8
0
10
186.5164058
20
-8.2114683
40
0.5
50
10
51
100
0
ARC
8
0
10
175.9713314
20
-23.2713953
40
0.5
50
190
51
280
0
ARC
8
0
10
188.7738321
20
-21.013969
40
0.5
50
280
51
10
0
LINE
8
0
10
156.0242925
20
-19.8506942
11
168.8267933
21
-17.5932679
0
LINE
8
0
10
158.4553669
20
-33.6380027
11
171.2578677
21
-31.3805764
0
LINE
8
0
10
155.6187127
20
-20.4299221
11
157.876139
21
-33.2324229
0
LINE
8
0
10
169.4060212
20
-17.9988477
11
171.6634475
21
-30.8013485
0
ARC
8
0
10
156.1111166
20
-20.3430981
40
0.5
50
100
51
190
0
ARC
8
0
10
168.9136173
20
-18.0856718
40
0.5
50
10
51
100
0
ARC
8
0
10
158.3685429
20
-33.1455988
40
0.5
50
190
51
280
0
ARC
8
0
10
171.1710436
20
-30.8881725
40
0.5
50
280
51
10
0
LINE
8
0
10
193.5454679
20
-13.2346987
11
206.3479687
21
-10.9772724
0
LINE
8
0
10
195.9765423
20
-27.0220072
11
208.7790431
21
-24.7645809
0
LINE
8
0
10
193.1398881
20
-13.8139266
11
195.3973144
21
-26.6164274
0
LINE
8
0
10
206.9271966
20
-11.3828522
11
209.1846229
21
-24.185353
0
ARC
8
0
10
193.632292
20
-13.7271026
40
0.5
50
100
51
190
0
ARC
8
0
10
206.4347927
20
-11.4696763
40
0.5
50
10
51
100
0
ARC
8
0
10
195.8897183
20
-26.5296033
40
0.5
50
190
51
280
0
ARC
8
0
10
208.692219
20
-24.272177
40
0.5
50
280
51
10
0
LINE
8
0
10
213.133055
20
-14.6168478
11
225.9355558
21
-12.3594215
0
LINE
8
0
10
215.5641294
20
-28.4041563
11
228.3666302
21
-26.14673
0
LINE
8
0
10
212.7274752
20
-15.1960757
11
214.9849015
21
-27.9985765
0
LINE
8
0
10
226.5147837
20
-12.7650013
11
228.77221
21
-25.5675021
0
ARC
8
0
10
213.2198791
20
-15.1092517
40
0.5
50
100
51
190
0
ARC
8
0
10
226.0223798
20
-12.8518254
40
0.5
50
10
51
100
0
ARC
8
0
10
215.4773054
20
-27.9117524
40
0.5
50
190
51
280
0
ARC
8
0
10
228.2798061
20
-25.6543261
40
0.5
50
280
51
10
0
LINE
8
0
10
138.421504
20
-29.7248977
11
151.2240048
21
-27.4674714
0
LINE
8
0
10
140.8525784
20
-43.5122062
11
153.6550792
21
-41.2547799
0
LINE
8
0
10
138.0159242
20
-30.3041256
11
140.2733505
21
-43.1066264
0
LINE
8
0
10
151.8032327
20
-27.8730512
11
154.060659
21
-40.675552
0
ARC
8
0
10
138.5083281
20
-30.2173016
40
0.5
50
100
51
190
0
ARC
8
0
10
151.3108288
20
-27.9598753
40
0.5
50
10
51
100
0
ARC
8
0
10
140.7657544
20
-43.0198023
40
0.5
50
190
51
280
0
ARC
8
0
10
153.5682551
20
-40.762376
40
0.5
50
280
51
10
0
LINE
8
0
10
176.9350788
20
-28.7370784
11
189.7375796
21
-26.4796521
0
LINE
8
0
10
179.3661532
20
-42.5243869
11
192.168654
21
-40.2669606
0
LINE
8
0
10
176.529499
20
-29.3163063
11
178.7869253
21
-42.1188071
0
LINE
8
0
10
190.3168075
20
-26.8852319
11
192.5742338
21
-39.6877327
0
ARC
8
0
10
177.0219029
20
-29.2294823
40
0.5
50
100
51
190
0
ARC
8
0
10
189.8244036
20
-26.972056
40
0.5
50
10
51
100
0
ARC
8
0
10
179.2793292
20
-42.031983
40
0.5
50
190
51
280
0
ARC
8
0
10
192.0818299
20
-39.7745567
40
0.5
50
280
51
10
0
LINE
8
0
10
159.3322903
20
-38.6112819
11
172.1347911
21
-36.3538556
0
LINE
8
0
10
161.7633647
20
-52.3985904
11
174.5658655
21
-50.1411641
0
LINE
8
0
10
158.9267105
20
-39.1905098
11
161.1841368
21
-51.9930106
0
LINE
8
0
10
172.714019
20
-36.7594354
11
174.9714453
21
-49.5619362
0
ARC
8
0
10
159.4191144
20
-39.1036858
40
0.5
50
100
51
190
0
ARC
8
0
10
172.2216151
20
-36.8462595
40
0.5
50
10
51
100
0
ARC
8
0
10
161.6765407
20
-51.9061865
40
0.5
50
190
51
280
0
ARC
8
0
10
174.4790414
20
-49.6487602
40
0.5
50
280
51
10
0
LINE
8
0
10
196.8534657
20
-31.9952864
11
209.6559665
21
-29.7378601
0
LINE
8
0
10
199.2845401
20
-45.7825949
11
212.0870409
21
-43.5251686
0
LINE
8
0
10
196.4478859
20
-32.5745143
11
198.7053122
21
-45.3770151
0
LINE
8
0
10
210.2351944
20
-30.1434399
11
212.4926207
21
-42.9459407
0
ARC
8
0
10
196.9402898
20
-32.4876903
40
0.5
50
100
51
190
0
ARC
8
0
10
209.7427905
20
-30.230264
40
0.5
50
10
51
100
0
ARC
8
0
10
199.1977161
20
-45.290191
40
0.5
50
190
51
280
0
ARC
8
0
10
212.0002168
20
-43.0327647
40
0.5
50
280
51
10
0
LINE
8
0
10
216.4410528
20
-33.3774355
11
229.2435536
21
-31.1200092
0
LINE
8
0
10
218.8721272
20
-47.164744
11
231.674628
21
-44.9073177
0
LINE
8
0
10
216.035473
20
-33.9566634
11
218.2928993
21
-46.7591642
0
LINE
8
0
10
229.8227815
20
-31.525589
11
232.0802078
21
-44.3280898
0
ARC
8
0
10
216.5278769
20
-33.8698394
40
0.5
50
100
51
190
0
ARC
8
0
10
229.3303776
20
-31.6124131
40
0.5
50
10
51
100
0
ARC
8
0
10
218.7853032
20
-46.6723401
40
0.5
50
190
51
280
0
ARC
8
0
10
231.5878039
20
-44.4149138
40
0.5
50
280
51
10
0
LINE
8
0
10
141.7295018
20
-48.4854854
11
154.5320026
21
-46.2280591
0
LINE
8
0
10
144.1605762
20
-62.2727939
11
156.963077
21
-60.0153676
0
LINE
8
0
10
141.323922
20
-49.0647133
11
143.5813483
21
-61.8672141
0
LINE
8
0
10
155.1112305
20
-46.6336389
11
157.3686568
21
-59.4361397
0
ARC
8
0
10
141.8163259
20
-48.9778893
40
0.5
50
100
51
190
0
ARC
8
0
10
154.6188266
20
-46.720463
40
0.5
50
10
51
100
0
ARC
8
0
10
144.0737522
20
-61.78039
40
0.5
50
190
51
280
0
ARC
8
0
10
156.8762529
20
-59.5229637
40
0.5
50
280
51
10
0
LINE
8
0
10
180.2430765
20
-47.4976661
11
193.0455773
21
-45.2402398
0
LINE
8
0
10
182.6741509
20
-61.2849746
11
195.4766517
21
-59.0275483
0
LINE
8
0
10
179.8374967
20
-48.076894
11
182.094923
21
-60.8793948
0
LINE
8
0
10
193.6248052
20
-45.6458196
11
195.8822315
21
-58.4483204
0
ARC
8
0
10
180.3299006
20
-47.99007
40
0.5
50
100
51
190
0
ARC
8
0
10
193.1324013
20
-45.7326437
40
0.5
50
10
51
100
0
ARC
8
0
10
182.5873269
20
-60.7925707
40
0.5
50
190
51
280
0
ARC
8
0
10
195.3898276
20
-58.5351444
40
0.5
50
280
51
10
0
LINE
8
0
10
162.6402881
20
-57.3718696
11
175.4427889
21
-55.1144433
0
LINE
8
0
10
165.0713625
20
-71.1591781
11
177.8738633
21
-68.9017518
0
LINE
8
0
10
162.2347083
20
-57.9510975
11
164.4921346
21
-70.7535983
0
LINE
8
0
10
176.0220168
20
-55.5200231
11
178.2794431
21
-68.3225239
0
ARC
8
0
10
162.7271122
20
-57.8642735
40
0.5
50
100
51
190
0
ARC
8
0
10
175.5296129
20
-55.6068472
40
0.5
50
10
51
100
0
ARC
8
0
10
164.9845385
20
-70.6667742
40
0.5
50
190
51
280
0
ARC
8
0
10
177.7870392
20
-68.4093479
40
0.5
50
280
51
10
0
LINE
8
0
10
200.1614635
20
-50.755874
11
212.9639643
21
-48.4984477
0
LINE
8
0
10
202.5925379
20
-64.5431825
11
215.3950387
21
-62.2857562
0
LINE
8
0
10
199.7558837
20
-51.3351019
11
202.01331
21
-64.1376027
0
LINE
8
0
10
213.5431922
20
-48.9040275
11
215.8006185
21
-61.7065283
0
ARC
8
0
10
200.2482876
20
-51.2482779
40
0.5
50
100
51
190
0
ARC
8
0
10
213.0507883
20
-48.9908516
40
0.5
50
10
51
100
0
ARC
8
0
10
202.5057139
20
-64.0507786
40
0.5
50
190
51
280
0
ARC
8
0
10
215.3082146
20
-61.7933523
40
0.5
50
280
51
10
0
LINE
8
0
10
219.7490506
20
-52.1380232
11
232.5515514
21
-49.8805969
0
LINE
8
0
10
222.180125
20
-65.9253317
11
234.9826258
21
-63.6679054
0
LINE
8
0
10
219.3434708
20
-52.7172511
11
221.6008971
21
-65.5197519
0
LINE
8
0
10
233.1307793
20
-50.2861767
11
235.3882056
21
-63.0886775
0
ARC
8
0
10
219.8358747
20
-52.6304271
40
0.5
50
100
51
190
0
ARC
8
0
10
232.6383754
20
-50.3730008
40
0.5
50
10
51
100
0
ARC
8
0
10
222.093301
20
-65.4329278
40
0.5
50
190
51
280
0
ARC
8
0
10
234.8958017
20
-63.1755015
40
0.5
50
280
51
10
0
LINE
8
0
10
145.0374996
20
-67.2460731
11
157.8400004
21
-64.9886468
0
LINE
8
0
10
147.468574
20
-81.0333816
11
160.2710748
21
-78.7759553
0
LINE
8
0
10
144.6319198
20
-67.825301
11
146.8893461
21
-80.6278018
0
LINE
8
0
10
158.4192283
20
-65.3942266
11
160.6766546
21
-78.1967274
0
ARC
8
0
10
145.1243237
20
-67.738477
40
0.5
50
100
51
190
0
ARC
8
0
10
157.9268244
20
-65.4810507
40
0.5
50
10
51
100
0
ARC
8
0
10
147.38175
20
-80.5409777
40
0.5
50
190
51
280
0
ARC
8
0
10
160.1842507
20
-78.2835514
40
0.5
50
280
51
10
0
LINE
8
0
10
8.9813005
20
-112.4650397
11
236.8908382
21
-112.4650397
0
LINE
8
0
10
8.9813005
20
-6.2164318
11
236.8908382
21
-6.2164318
0
LINE
8
0
10
8.9813005
20
-112.4650397
11
8.9813005
21
-6.2164318
0
LINE
8
0
10
236.8908382
20
-112.4650397
11
236.8908382
21
-6.2164318
0
ENDSEC
0
EOF