999
"DXF R12 Output" (www.mydxf.blogspot.com)
 0 
SECTION
 2 
HEADER
 9 
$ACADVER
 1 
AC1009
 9 
$EXTMIN
 10 
 0 
 20 
 0 
 9 
$EXTMAX
 10 
 8.5 
 20 
 11 
 0 
ENDSEC
 0 
SECTION
 2 
ENTITIES
0
LINE
8
Layer 1
10
0.793749
20
297.794000
11
-0.793749
21
296.206000
0
LINE
8
Layer 1
10
0.000000
20
298.323000
11
0.000000
21
295.677000
0
LINE
8
Layer 1
10
2.116660
20
295.942000
11
1.058330
21
294.883670
0
LINE
8
Layer 1
10
1.587500
20
296.471000
11
0.529170
21
295.412670
0
LINE
8
Layer 1
10
1.058330
20
297.000000
11
0.000000
21
295.941670
0
LINE
8
0
10
90.313500
20
262.280000
11
103.115900
21
260.023110
0
LINE
8
0
10
87.882200
20
248.492000
11
100.684800
21
246.235110
0
LINE
8
0
10
89.734300
20
261.875000
11
87.476880
21
249.071800
0
LINE
8
0
10
103.521000
20
259.444000
11
101.263580
21
246.640800
0
LINE
8
0
10
90.313400
20
262.280000
11
89.939790
21
262.197172
0
LINE
8
0
10
89.939790
20
262.197172
11
89.734175
21
261.874421
0
LINE
8
0
10
103.521000
20
259.444000
11
103.438173
21
259.817612
0
LINE
8
0
10
103.438173
20
259.817612
11
103.115421
21
260.023228
0
LINE
8
0
10
87.476800
20
249.072000
11
87.559627
21
248.698388
0
LINE
8
0
10
87.559627
20
248.698388
11
87.882379
21
248.492772
0
LINE
8
0
10
100.685000
20
246.236000
11
101.058610
21
246.318828
0
LINE
8
0
10
101.058610
20
246.318828
11
101.264225
21
246.641579
0
LINE
8
0
10
70.395100
20
259.023000
11
83.197500
21
256.766110
0
LINE
8
0
10
67.963900
20
245.235000
11
80.766500
21
242.978110
0
LINE
8
0
10
69.815700
20
258.615000
11
67.558280
21
245.814500
0
LINE
8
0
10
83.603100
20
256.187000
11
81.345680
21
243.383800
0
LINE
8
0
10
70.395000
20
259.022000
11
70.021388
21
258.939173
0
LINE
8
0
10
70.021388
20
258.939173
11
69.815772
21
258.616421
0
LINE
8
0
10
83.603100
20
256.186000
11
83.520273
21
256.559612
0
LINE
8
0
10
83.520273
20
256.559612
11
83.197521
21
256.765228
0
LINE
8
0
10
67.558400
20
245.814000
11
67.641227
21
245.440388
0
LINE
8
0
10
67.641227
20
245.440388
11
67.963979
21
245.234772
0
LINE
8
0
10
80.766500
20
242.978000
11
81.140112
21
243.060827
0
LINE
8
0
10
81.140112
20
243.060827
11
81.345728
21
243.383579
0
LINE
8
0
10
107.916000
20
252.406000
11
120.718400
21
250.149110
0
LINE
8
0
10
105.485000
20
238.618000
11
118.287400
21
236.361110
0
LINE
8
0
10
107.337000
20
252.001000
11
105.079580
21
239.197800
0
LINE
8
0
10
121.124000
20
249.569000
11
118.866580
21
236.765800
0
LINE
8
0
10
107.916000
20
252.406000
11
107.542388
21
252.323173
0
LINE
8
0
10
107.542388
20
252.323173
11
107.336772
21
252.000421
0
LINE
8
0
10
121.124000
20
249.570000
11
121.041173
21
249.943612
0
LINE
8
0
10
121.041173
20
249.943612
11
120.718421
21
250.149228
0
LINE
8
0
10
105.080000
20
239.198000
11
105.162827
21
238.824388
0
LINE
8
0
10
105.162827
20
238.824388
11
105.485579
21
238.618772
0
LINE
8
0
10
118.288000
20
236.362000
11
118.661612
21
236.444827
0
LINE
8
0
10
118.661612
20
236.444827
11
118.867228
21
236.767579
0
LINE
8
0
10
50.807500
20
257.639000
11
63.609900
21
255.382110
0
LINE
8
0
10
48.376400
20
243.852000
11
61.178900
21
241.595110
0
LINE
8
0
10
50.228300
20
257.234000
11
47.970880
21
244.430800
0
LINE
8
0
10
64.015500
20
254.803000
11
61.758080
21
241.999800
0
LINE
8
0
10
50.807500
20
257.640000
11
50.433888
21
257.557173
0
LINE
8
0
10
50.433888
20
257.557173
11
50.228272
21
257.234421
0
LINE
8
0
10
64.015500
20
254.803000
11
63.932672
21
255.176610
0
LINE
8
0
10
63.932672
20
255.176610
11
63.609921
21
255.382225
0
LINE
8
0
10
47.970800
20
244.432000
11
48.053627
21
244.058388
0
LINE
8
0
10
48.053627
20
244.058388
11
48.376379
21
243.852772
0
LINE
8
0
10
61.178900
20
241.595000
11
61.552510
21
241.677828
0
LINE
8
0
10
61.552510
20
241.677828
11
61.758125
21
242.000579
0
LINE
8
0
10
125.519000
20
242.531000
11
138.321600
21
240.274110
0
LINE
8
0
10
123.088000
20
228.744000
11
135.890400
21
226.487110
0
LINE
8
0
10
124.940000
20
242.127000
11
122.682580
21
229.323800
0
LINE
8
0
10
138.727000
20
239.695000
11
136.469580
21
226.891800
0
LINE
8
0
10
125.519000
20
242.532000
11
125.145388
21
242.449173
0
LINE
8
0
10
125.145388
20
242.449173
11
124.939772
21
242.126421
0
LINE
8
0
10
138.727000
20
239.695000
11
138.644172
21
240.068610
0
LINE
8
0
10
138.644172
20
240.068610
11
138.321421
21
240.274225
0
LINE
8
0
10
122.682000
20
229.324000
11
122.764828
21
228.950390
0
LINE
8
0
10
122.764828
20
228.950390
11
123.087579
21
228.744775
0
LINE
8
0
10
135.890000
20
226.487000
11
136.263612
21
226.569827
0
LINE
8
0
10
136.263612
20
226.569827
11
136.469228
21
226.892579
0
LINE
8
0
10
87.005400
20
243.521000
11
99.808000
21
241.261460
0
LINE
8
0
10
84.574400
20
229.734000
11
97.376800
21
227.474460
0
LINE
8
0
10
86.426200
20
243.114000
11
84.168780
21
230.313500
0
LINE
8
0
10
100.213000
20
240.682000
11
97.955580
21
227.881500
0
LINE
8
0
10
87.005400
20
243.520000
11
86.631790
21
243.437172
0
LINE
8
0
10
86.631790
20
243.437172
11
86.426175
21
243.114421
0
LINE
8
0
10
100.213000
20
240.683000
11
100.130172
21
241.056610
0
LINE
8
0
10
100.130172
20
241.056610
11
99.807421
21
241.262225
0
LINE
8
0
10
84.168800
20
230.312000
11
84.251628
21
229.938390
0
LINE
8
0
10
84.251628
20
229.938390
11
84.574379
21
229.732775
0
LINE
8
0
10
97.376800
20
227.475000
11
97.750410
21
227.557828
0
LINE
8
0
10
97.750410
20
227.557828
11
97.956025
21
227.880579
0
LINE
8
0
10
67.087000
20
240.261000
11
79.889400
21
238.004110
0
LINE
8
0
10
64.656100
20
226.474000
11
77.458500
21
224.217110
0
LINE
8
0
10
66.507900
20
239.857000
11
64.250480
21
227.053800
0
LINE
8
0
10
80.295000
20
237.425000
11
78.037580
21
224.621800
0
LINE
8
0
10
67.087100
20
240.262000
11
66.713488
21
240.179173
0
LINE
8
0
10
66.713488
20
240.179173
11
66.507872
21
239.856421
0
LINE
8
0
10
80.295100
20
237.425000
11
80.212273
21
237.798612
0
LINE
8
0
10
80.212273
20
237.798612
11
79.889521
21
238.004228
0
LINE
8
0
10
64.250400
20
227.054000
11
64.333227
21
226.680388
0
LINE
8
0
10
64.333227
20
226.680388
11
64.655979
21
226.474772
0
LINE
8
0
10
77.458500
20
224.217000
11
77.832112
21
224.299827
0
LINE
8
0
10
77.832112
20
224.299827
11
78.037728
21
224.622579
0
LINE
8
0
10
104.608000
20
233.647000
11
117.410600
21
231.387460
0
LINE
8
0
10
102.177000
20
219.859000
11
114.979400
21
217.599460
0
LINE
8
0
10
104.029000
20
233.239000
11
101.771580
21
220.438500
0
LINE
8
0
10
117.816000
20
230.808000
11
115.558580
21
218.007500
0
LINE
8
0
10
104.608000
20
233.646000
11
104.234388
21
233.563173
0
LINE
8
0
10
104.234388
20
233.563173
11
104.028772
21
233.240421
0
LINE
8
0
10
117.816000
20
230.809000
11
117.733173
21
231.182612
0
LINE
8
0
10
117.733173
20
231.182612
11
117.410421
21
231.388228
0
LINE
8
0
10
101.772000
20
220.438000
11
101.854827
21
220.064388
0
LINE
8
0
10
101.854827
20
220.064388
11
102.177579
21
219.858772
0
LINE
8
0
10
114.980000
20
217.601000
11
115.353612
21
217.683827
0
LINE
8
0
10
115.353612
20
217.683827
11
115.559228
21
218.006579
0
LINE
8
0
10
47.499500
20
238.880000
11
60.302100
21
236.623110
0
LINE
8
0
10
45.068400
20
225.093000
11
57.870800
21
222.836110
0
LINE
8
0
10
46.920300
20
238.473000
11
44.662880
21
225.672500
0
LINE
8
0
10
60.707700
20
236.044000
11
58.450010
21
223.240800
0
LINE
8
0
10
47.499500
20
238.880000
11
47.125888
21
238.797173
0
LINE
8
0
10
47.125888
20
238.797173
11
46.920272
21
238.474421
0
LINE
8
0
10
60.707600
20
236.043000
11
60.624773
21
236.416612
0
LINE
8
0
10
60.624773
20
236.416612
11
60.302021
21
236.622228
0
LINE
8
0
10
44.662800
20
225.671000
11
44.745627
21
225.297388
0
LINE
8
0
10
44.745627
20
225.297388
11
45.068379
21
225.091772
0
LINE
8
0
10
57.870900
20
222.835000
11
58.244512
21
222.917827
0
LINE
8
0
10
58.244512
20
222.917827
11
58.450128
21
223.240579
0
LINE
8
0
10
122.211000
20
223.773000
11
135.013400
21
221.513460
0
LINE
8
0
10
119.780000
20
209.985000
11
132.582600
21
207.725460
0
LINE
8
0
10
121.632000
20
223.365000
11
119.374580
21
210.564500
0
LINE
8
0
10
135.419000
20
220.934000
11
133.161580
21
208.133500
0
LINE
8
0
10
122.211000
20
223.771000
11
121.837390
21
223.688172
0
LINE
8
0
10
121.837390
20
223.688172
11
121.631775
21
223.365421
0
LINE
8
0
10
135.419000
20
220.935000
11
135.336173
21
221.308612
0
LINE
8
0
10
135.336173
20
221.308612
11
135.013421
21
221.514228
0
LINE
8
0
10
119.374000
20
210.563000
11
119.456827
21
210.189388
0
LINE
8
0
10
119.456827
20
210.189388
11
119.779579
21
209.983772
0
LINE
8
0
10
132.582000
20
207.727000
11
132.955612
21
207.809827
0
LINE
8
0
10
132.955612
20
207.809827
11
133.161228
21
208.132579
0
LINE
8
0
10
83.697300
20
224.759000
11
96.499900
21
222.502110
0
LINE
8
0
10
81.266300
20
210.972000
11
94.068900
21
208.715110
0
LINE
8
0
10
83.118100
20
224.355000
11
80.860680
21
211.551800
0
LINE
8
0
10
96.905600
20
221.923000
11
94.648180
21
209.119800
0
LINE
8
0
10
83.697400
20
224.759000
11
83.323788
21
224.676173
0
LINE
8
0
10
83.323788
20
224.676173
11
83.118172
21
224.353421
0
LINE
8
0
10
96.905500
20
221.923000
11
96.822673
21
222.296612
0
LINE
8
0
10
96.822673
20
222.296612
11
96.499921
21
222.502228
0
LINE
8
0
10
80.860800
20
211.551000
11
80.943627
21
211.177388
0
LINE
8
0
10
80.943627
20
211.177388
11
81.266379
21
210.971772
0
LINE
8
0
10
94.068800
20
208.715000
11
94.442412
21
208.797827
0
LINE
8
0
10
94.442412
20
208.797827
11
94.648028
21
209.120579
0
LINE
8
0
10
63.779000
20
221.502000
11
76.581600
21
219.242460
0
LINE
8
0
10
61.348000
20
207.715000
11
74.150400
21
205.455460
0
LINE
8
0
10
63.199800
20
221.095000
11
60.942380
21
208.291800
0
LINE
8
0
10
76.987200
20
218.663000
11
74.729780
21
205.862500
0
LINE
8
0
10
63.779100
20
221.501000
11
63.405488
21
221.418173
0
LINE
8
0
10
63.405488
20
221.418173
11
63.199872
21
221.095421
0
LINE
8
0
10
76.987100
20
218.664000
11
76.904273
21
219.037612
0
LINE
8
0
10
76.904273
20
219.037612
11
76.581521
21
219.243228
0
LINE
8
0
10
60.942400
20
208.293000
11
61.025227
21
207.919388
0
LINE
8
0
10
61.025227
20
207.919388
11
61.347979
21
207.713772
0
LINE
8
0
10
74.150500
20
205.456000
11
74.524112
21
205.538827
0
LINE
8
0
10
74.524112
20
205.538827
11
74.729728
21
205.861579
0
LINE
8
0
10
101.300000
20
214.885000
11
114.102400
21
212.628110
0
LINE
8
0
10
98.869000
20
201.098000
11
111.671600
21
198.841110
0
LINE
8
0
10
100.721000
20
214.480000
11
98.463580
21
201.676800
0
LINE
8
0
10
114.508000
20
212.049000
11
112.250580
21
199.245800
0
LINE
8
0
10
101.300000
20
214.885000
11
100.926388
21
214.802173
0
LINE
8
0
10
100.926388
20
214.802173
11
100.720772
21
214.479421
0
LINE
8
0
10
114.508000
20
212.048000
11
114.425173
21
212.421612
0
LINE
8
0
10
114.425173
20
212.421612
11
114.102421
21
212.627228
0
LINE
8
0
10
98.463500
20
201.677000
11
98.546327
21
201.303388
0
LINE
8
0
10
98.546327
20
201.303388
11
98.869079
21
201.097772
0
LINE
8
0
10
111.672000
20
198.840000
11
112.045612
21
198.922827
0
LINE
8
0
10
112.045612
20
198.922827
11
112.251228
21
199.245579
0
LINE
8
0
10
44.191500
20
220.119000
11
56.994000
21
217.862110
0
LINE
8
0
10
41.760400
20
206.331000
11
54.562900
21
204.074110
0
LINE
8
0
10
43.612300
20
219.714000
11
41.354880
21
206.910800
0
LINE
8
0
10
57.399600
20
217.282000
11
55.142120
21
204.478800
0
LINE
8
0
10
44.191500
20
220.119000
11
43.817888
21
220.036173
0
LINE
8
0
10
43.817888
20
220.036173
11
43.612272
21
219.713421
0
LINE
8
0
10
57.399600
20
217.282000
11
57.316773
21
217.655612
0
LINE
8
0
10
57.316773
20
217.655612
11
56.994021
21
217.861228
0
LINE
8
0
10
41.354800
20
206.911000
11
41.437627
21
206.537388
0
LINE
8
0
10
41.437627
20
206.537388
11
41.760379
21
206.331772
0
LINE
8
0
10
54.562900
20
204.074000
11
54.936512
21
204.156827
0
LINE
8
0
10
54.936512
20
204.156827
11
55.142128
21
204.479579
0
LINE
8
0
10
118.903000
20
205.011000
11
131.705400
21
202.754110
0
LINE
8
0
10
116.472000
20
191.224000
11
129.274400
21
188.967110
0
LINE
8
0
10
118.324000
20
204.606000
11
116.066580
21
191.802800
0
LINE
8
0
10
132.111000
20
202.175000
11
129.853580
21
189.371800
0
LINE
8
0
10
118.903000
20
205.011000
11
118.529390
21
204.928172
0
LINE
8
0
10
118.529390
20
204.928172
11
118.323775
21
204.605421
0
LINE
8
0
10
132.111000
20
202.174000
11
132.028173
21
202.547612
0
LINE
8
0
10
132.028173
20
202.547612
11
131.705421
21
202.753228
0
LINE
8
0
10
116.066000
20
191.803000
11
116.148827
21
191.429388
0
LINE
8
0
10
116.148827
20
191.429388
11
116.471579
21
191.223772
0
LINE
8
0
10
129.274000
20
188.966000
11
129.647610
21
189.048828
0
LINE
8
0
10
129.647610
20
189.048828
11
129.853225
21
189.371579
0
LINE
8
0
10
114.976000
20
180.960000
11
127.533100
21
177.594500
0
LINE
8
0
10
111.353000
20
167.437000
11
123.910100
21
164.071500
0
LINE
8
0
10
114.364000
20
180.606000
11
110.999300
21
168.048900
0
LINE
8
0
10
127.887000
20
176.984000
11
124.522300
21
164.426900
0
LINE
8
0
10
114.976000
20
180.960000
11
114.596590
21
180.910050
0
LINE
8
0
10
114.596590
20
180.910050
11
114.363628
21
180.606446
0
LINE
8
0
10
127.887000
20
176.983000
11
127.837050
21
177.362410
0
LINE
8
0
10
127.837050
20
177.362410
11
127.533446
21
177.595372
0
LINE
8
0
10
110.999000
20
168.049000
11
111.048950
21
167.669590
0
LINE
8
0
10
111.048950
20
167.669590
11
111.352554
21
167.436628
0
LINE
8
0
10
123.910000
20
164.072000
11
124.289410
21
164.121950
0
LINE
8
0
10
124.289410
20
164.121950
11
124.522372
21
164.425554
0
LINE
8
0
10
135.217000
20
175.536000
11
147.774100
21
172.170500
0
LINE
8
0
10
131.594000
20
162.014000
11
144.151100
21
158.648500
0
LINE
8
0
10
134.605000
20
175.182000
11
131.240300
21
162.624900
0
LINE
8
0
10
148.128000
20
171.560000
11
144.763560
21
159.002900
0
LINE
8
0
10
135.217000
20
175.536000
11
134.837590
21
175.486050
0
LINE
8
0
10
134.837590
20
175.486050
11
134.604628
21
175.182446
0
LINE
8
0
10
148.128000
20
171.559000
11
148.078050
21
171.938409
0
LINE
8
0
10
148.078050
20
171.938409
11
147.774448
21
172.171372
0
LINE
8
0
10
131.240000
20
162.626000
11
131.289950
21
162.246591
0
LINE
8
0
10
131.289950
20
162.246591
11
131.593552
21
162.013628
0
LINE
8
0
10
144.151000
20
158.649000
11
144.530408
21
158.698952
0
LINE
8
0
10
144.530408
20
158.698952
11
144.763369
21
159.002554
0
LINE
8
0
10
36.548300
20
203.323000
11
48.612800
21
273.581000
0
LINE
8
0
10
48.612800
20
273.581000
11
147.968000
21
257.613000
0
LINE
8
0
10
147.968000
20
257.613000
11
136.968000
21
188.419000
0
LINE
8
0
10
136.968000
20
188.419000
11
157.548000
21
180.968000
0
LINE
8
0
10
157.548000
20
180.968000
11
149.742000
21
150.097000
0
LINE
8
0
10
149.742000
20
150.097000
11
91.193400
21
165.710000
0
LINE
8
0
10
91.193400
20
165.710000
11
36.548300
21
203.323000
0
LINE
8
0
10
119.935000
20
158.383000
11
91.193400
21
166.092000
0
LINE
8
0
10
91.193400
20
166.092000
11
64.149900
21
184.707000
0
LINE
8
0
10
64.149900
20
184.707000
11
43.914525
21
198.787675
0
LINE
8
0
10
43.914525
20
198.787675
11
38.808263
21
202.491056
0
LINE
8
0
10
38.808263
20
202.491056
11
37.093500
21
203.933900
0
LINE
8
0
10
37.093500
20
203.933900
11
42.954178
21
238.722944
0
LINE
8
0
10
42.954178
20
238.722944
11
48.983400
21
273.004500
0
LINE
8
0
10
48.983400
20
273.004500
11
64.403235
21
270.662710
0
LINE
8
0
10
64.403235
20
270.662710
11
98.156853
21
265.300329
0
LINE
8
0
10
98.156853
20
265.300329
11
131.924420
21
259.850833
0
LINE
8
0
10
131.924420
20
259.850833
11
147.386100
21
257.247700
0
LINE
8
0
10
147.386100
20
257.247700
11
145.924626
21
247.145399
0
LINE
8
0
10
145.924626
20
247.145399
11
142.166520
21
223.101200
0
LINE
8
0
10
142.166520
20
223.101200
11
136.789200
21
188.596400
0
LINE
8
0
10
136.789200
20
188.596400
11
137.367434
21
188.152553
0
LINE
8
0
10
137.367434
20
188.152553
11
139.143925
21
187.354542
0
LINE
8
0
10
139.143925
20
187.354542
11
146.644580
21
184.551170
0
LINE
8
0
10
146.644580
20
184.551170
11
156.789880
21
180.767580
0
LINE
8
0
10
156.789880
20
180.767580
11
156.345742
21
178.237877
0
LINE
8
0
10
156.345742
20
178.237877
11
154.851179
21
171.778969
0
LINE
8
0
10
154.851179
20
171.778969
11
149.882300
21
151.959380
0
LINE
8
0
10
149.882300
20
151.959380
11
149.512166
21
151.026286
0
LINE
8
0
10
149.512166
20
151.026286
11
149.107143
21
150.651450
0
LINE
8
0
10
149.107143
20
150.651450
11
119.935343
21
158.382980
0
LINE
8
0
10
119.935343
20
158.382980
11
119.935000
21
158.383000
0
LINE
8
0
10
145.434200
20
160.298090
11
147.686015
21
168.721669
0
LINE
8
0
10
147.686015
20
168.721669
11
148.222167
21
171.226398
0
LINE
8
0
10
148.222167
20
171.226398
11
148.280210
21
172.236790
0
LINE
8
0
10
148.280210
20
172.236790
11
141.779597
21
174.146549
0
LINE
8
0
10
141.779597
20
174.146549
11
134.952610
21
175.822250
0
LINE
8
0
10
134.952610
20
175.822250
11
134.609741
21
175.471380
0
LINE
8
0
10
134.609741
20
175.471380
11
134.140313
21
174.332161
0
LINE
8
0
10
134.140313
20
174.332161
11
132.641260
21
169.169030
0
LINE
8
0
10
132.641260
20
169.169030
11
131.425556
21
164.360560
0
LINE
8
0
10
131.425556
20
164.360560
11
130.998990
21
162.142590
0
LINE
8
0
10
130.998990
20
162.142590
11
132.912062
21
161.413428
0
LINE
8
0
10
132.912062
20
161.413428
11
137.090706
21
160.177763
0
LINE
8
0
10
137.090706
20
160.177763
11
141.505643
21
159.004451
0
LINE
8
0
10
141.505643
20
159.004451
11
144.127590
21
158.462350
0
LINE
8
0
10
144.127590
20
158.462350
11
144.538327
21
158.524303
0
LINE
8
0
10
144.538327
20
158.524303
11
144.854857
21
158.797303
0
LINE
8
0
10
144.854857
20
158.797303
11
145.434230
21
160.298070
0
LINE
8
0
10
145.434230
20
160.298070
11
145.434200
21
160.298090
0
LINE
8
0
10
124.861200
20
164.378730
11
127.085619
21
172.777654
0
LINE
8
0
10
127.085619
20
172.777654
11
127.842505
21
176.147936
0
LINE
8
0
10
127.842505
20
176.147936
11
128.035990
21
177.605130
0
LINE
8
0
10
128.035990
20
177.605130
11
125.958514
21
178.310134
0
LINE
8
0
10
125.958514
20
178.310134
11
121.687881
21
179.510018
0
LINE
8
0
10
121.687881
20
179.510018
11
117.309702
21
180.642378
0
LINE
8
0
10
117.309702
20
180.642378
11
114.909590
21
181.144810
0
LINE
8
0
10
114.909590
20
181.144810
11
114.467849
21
180.932067
0
LINE
8
0
10
114.467849
20
180.932067
11
114.002187
21
180.023061
0
LINE
8
0
10
114.002187
20
180.023061
11
112.381840
21
174.491590
0
LINE
8
0
10
112.381840
20
174.491590
11
111.131161
21
169.456296
0
LINE
8
0
10
111.131161
20
169.456296
11
110.893191
21
168.069017
0
LINE
8
0
10
110.893191
20
168.069017
11
110.923500
21
167.483530
0
LINE
8
0
10
110.923500
20
167.483530
11
112.972218
21
166.759832
0
LINE
8
0
10
112.972218
20
166.759832
11
117.221786
21
165.515388
0
LINE
8
0
10
117.221786
20
165.515388
11
121.611435
21
164.329837
0
LINE
8
0
10
121.611435
20
164.329837
11
124.080400
21
163.782820
0
LINE
8
0
10
124.080400
20
163.782820
11
124.556040
21
163.947503
0
LINE
8
0
10
124.556040
20
163.947503
11
124.861182
21
164.378693
0
LINE
8
0
10
124.861182
20
164.378693
11
124.861200
21
164.378730
0
LINE
8
0
10
130.037000
20
189.395000
11
130.653437
21
192.014431
0
LINE
8
0
10
130.653437
20
192.014431
11
131.458475
21
196.509275
0
LINE
8
0
10
131.458475
20
196.509275
11
132.108762
21
200.805481
0
LINE
8
0
10
132.108762
20
200.805481
11
132.260950
21
202.829000
0
LINE
8
0
10
132.260950
20
202.829000
11
129.926287
21
203.409591
0
LINE
8
0
10
129.926287
20
203.409591
11
125.235878
21
204.228107
0
LINE
8
0
10
125.235878
20
204.228107
11
120.577329
21
204.903119
0
LINE
8
0
10
120.577329
20
204.903119
11
118.338250
21
205.053200
0
LINE
8
0
10
118.338250
20
205.053200
11
117.820160
21
203.038113
0
LINE
8
0
10
117.820160
20
203.038113
11
116.980791
21
198.813711
0
LINE
8
0
10
116.980791
20
198.813711
11
116.199196
21
194.399979
0
LINE
8
0
10
116.199196
20
194.399979
11
115.854430
21
191.816900
0
LINE
8
0
10
115.854430
20
191.816900
11
115.938028
21
191.315084
0
LINE
8
0
10
115.938028
20
191.315084
11
116.683539
21
190.937537
0
LINE
8
0
10
116.683539
20
190.937537
11
123.128620
21
189.685500
0
LINE
8
0
10
123.128620
20
189.685500
11
129.072289
21
188.709876
0
LINE
8
0
10
129.072289
20
188.709876
11
129.532737
21
188.735870
0
LINE
8
0
10
129.532737
20
188.735870
11
129.781002
21
188.861497
0
LINE
8
0
10
129.781002
20
188.861497
11
130.037000
21
189.394998
0
LINE
8
0
10
130.037000
20
189.394998
11
130.037000
21
189.395000
0
LINE
8
0
10
113.657000
20
205.408000
11
114.440955
21
210.256214
0
LINE
8
0
10
114.440955
20
210.256214
11
114.677520
21
212.505970
0
LINE
8
0
10
114.677520
20
212.505970
11
114.020215
21
212.801152
0
LINE
8
0
10
114.020215
20
212.801152
11
112.427683
21
213.202305
0
LINE
8
0
10
112.427683
20
213.202305
11
107.678684
21
214.112097
0
LINE
8
0
10
107.678684
20
214.112097
11
102.914028
21
214.814490
0
LINE
8
0
10
102.914028
20
214.814490
11
101.301924
21
214.956395
0
LINE
8
0
10
101.301924
20
214.956395
11
100.617220
21
214.888630
0
LINE
8
0
10
100.617220
20
214.888630
11
100.055124
21
212.494659
0
LINE
8
0
10
100.055124
20
212.494659
11
99.220040
21
207.829428
0
LINE
8
0
10
99.220040
20
207.829428
11
98.504638
21
203.237398
0
LINE
8
0
10
98.504638
20
203.237398
11
98.301590
21
201.063030
0
LINE
8
0
10
98.301590
20
201.063030
11
100.365175
21
200.541804
0
LINE
8
0
10
100.365175
20
200.541804
11
104.673279
21
199.711139
0
LINE
8
0
10
104.673279
20
199.711139
11
109.119164
21
198.953319
0
LINE
8
0
10
109.119164
20
198.953319
11
111.596090
21
198.650630
0
LINE
8
0
10
111.596090
20
198.650630
11
112.122715
21
198.809267
0
LINE
8
0
10
112.122715
20
198.809267
11
112.521366
21
199.593696
0
LINE
8
0
10
112.521366
20
199.593696
11
113.656950
21
205.407970
0
LINE
8
0
10
113.656950
20
205.407970
11
113.657000
21
205.408000
0
LINE
8
0
10
55.294400
20
204.120660
11
55.825919
21
206.492097
0
LINE
8
0
10
55.825919
20
206.492097
11
56.637681
21
211.156193
0
LINE
8
0
10
56.637681
20
211.156193
11
57.342864
21
215.751747
0
LINE
8
0
10
57.342864
20
215.751747
11
57.554650
21
217.917560
0
LINE
8
0
10
57.554650
20
217.917560
11
55.432706
21
218.424890
0
LINE
8
0
10
55.432706
20
218.424890
11
50.659920
21
219.315720
0
LINE
8
0
10
50.659920
20
219.315720
11
45.343040
21
220.141073
0
LINE
8
0
10
45.343040
20
220.141073
11
44.124955
21
220.204637
0
LINE
8
0
10
44.124955
20
220.204637
11
43.614250
21
220.062249
0
LINE
8
0
10
43.614250
20
220.062249
11
42.978391
21
217.727677
0
LINE
8
0
10
42.978391
20
217.727677
11
42.103122
21
213.104182
0
LINE
8
0
10
42.103122
20
213.104182
11
41.389907
21
208.519096
0
LINE
8
0
10
41.389907
20
208.519096
11
41.240210
21
206.299749
0
LINE
8
0
10
41.240210
20
206.299749
11
43.166113
21
205.808172
0
LINE
8
0
10
43.166113
20
205.808172
11
47.231365
21
205.006600
0
LINE
8
0
10
47.231365
20
205.006600
11
54.180110
21
203.889219
0
LINE
8
0
10
54.180110
20
203.889219
11
54.901323
21
203.942927
0
LINE
8
0
10
54.901323
20
203.942927
11
55.294430
21
204.120703
0
LINE
8
0
10
55.294430
20
204.120703
11
55.294400
21
204.120660
0
LINE
8
0
10
75.361100
20
207.482990
11
76.835226
21
216.304244
0
LINE
8
0
10
76.835226
20
216.304244
11
77.117055
21
218.488923
0
LINE
8
0
10
77.117055
20
218.488923
11
77.111220
21
219.296490
0
LINE
8
0
10
77.111220
20
219.296490
11
74.805265
21
219.875581
0
LINE
8
0
10
74.805265
20
219.875581
11
70.118043
21
220.718236
0
LINE
8
0
10
70.118043
20
220.718236
11
65.451860
21
221.426196
0
LINE
8
0
10
65.451860
20
221.426196
11
63.209020
21
221.601200
0
LINE
8
0
10
63.209020
20
221.601200
11
62.605411
21
219.293414
0
LINE
8
0
10
62.605411
20
219.293414
11
61.719785
21
214.602179
0
LINE
8
0
10
61.719785
20
214.602179
11
60.971994
21
209.933405
0
LINE
8
0
10
60.971994
20
209.933405
11
60.781890
21
207.693000
0
LINE
8
0
10
60.781890
20
207.693000
11
62.695305
21
207.195562
0
LINE
8
0
10
62.695305
20
207.195562
11
66.716786
21
206.406059
0
LINE
8
0
10
66.716786
20
206.406059
11
70.995145
21
205.665709
0
LINE
8
0
10
70.995145
20
205.665709
11
73.679190
21
205.315730
0
LINE
8
0
10
73.679190
20
205.315730
11
74.971920
21
205.273939
0
LINE
8
0
10
74.971920
20
205.273939
11
75.361100
21
207.482990
0
LINE
8
0
10
134.575900
20
214.284550
11
135.369137
21
219.135066
0
LINE
8
0
10
135.369137
20
219.135066
11
135.610820
21
221.382520
0
LINE
8
0
10
135.610820
20
221.382520
11
134.966010
21
221.649906
0
LINE
8
0
10
134.966010
20
221.649906
11
133.383225
21
222.038205
0
LINE
8
0
10
133.383225
20
222.038205
11
128.644427
21
222.959396
0
LINE
8
0
10
128.644427
20
222.959396
11
123.875826
21
223.709810
0
LINE
8
0
10
123.875826
20
223.709810
11
122.255786
21
223.884636
0
LINE
8
0
10
122.255786
20
223.884636
11
121.558820
21
223.853160
0
LINE
8
0
10
121.558820
20
223.853160
11
120.987375
21
221.524995
0
LINE
8
0
10
120.987375
20
221.524995
11
120.138530
21
216.831180
0
LINE
8
0
10
120.138530
20
216.831180
11
119.415660
21
212.172105
0
LINE
8
0
10
119.415660
20
212.172105
11
119.222140
21
209.948160
0
LINE
8
0
10
119.222140
20
209.948160
11
121.281101
21
209.424628
0
LINE
8
0
10
121.281101
20
209.424628
11
125.578949
21
208.592882
0
LINE
8
0
10
125.578949
20
208.592882
11
130.022144
21
207.833910
0
LINE
8
0
10
130.022144
20
207.833910
11
132.517140
21
207.528700
0
LINE
8
0
10
132.517140
20
207.528700
11
133.034799
21
207.687994
0
LINE
8
0
10
133.034799
20
207.687994
11
133.432157
21
208.478803
0
LINE
8
0
10
133.432157
20
208.478803
11
134.575860
21
214.284520
0
LINE
8
0
10
134.575860
20
214.284520
11
134.575900
21
214.284550
0
LINE
8
0
10
94.924200
20
208.733560
11
95.988480
21
214.854520
0
LINE
8
0
10
95.988480
20
214.854520
11
96.724756
21
219.092599
0
LINE
8
0
10
96.724756
20
219.092599
11
97.000773
21
221.441757
0
LINE
8
0
10
97.000773
20
221.441757
11
96.835855
21
222.493630
0
LINE
8
0
10
96.835855
20
222.493630
11
96.594085
21
222.717969
0
LINE
8
0
10
96.594085
20
222.717969
11
96.249327
21
222.839850
0
LINE
8
0
10
96.249327
20
222.839850
11
88.631107
21
224.209669
0
LINE
8
0
10
88.631107
20
224.209669
11
84.848476
21
224.740122
0
LINE
8
0
10
84.848476
20
224.740122
11
83.130527
21
224.853410
0
LINE
8
0
10
83.130527
20
224.853410
11
82.612498
21
222.890511
0
LINE
8
0
10
82.612498
20
222.890511
11
81.805419
21
218.788441
0
LINE
8
0
10
81.805419
20
218.788441
11
81.060937
21
214.458281
0
LINE
8
0
10
81.060937
20
214.458281
11
80.730697
21
211.811110
0
LINE
8
0
10
80.730697
20
211.811110
11
80.725167
21
210.719290
0
LINE
8
0
10
80.725167
20
210.719290
11
86.846127
21
209.630560
0
LINE
8
0
10
86.846127
20
209.630560
11
93.309690
21
208.588340
0
LINE
8
0
10
93.309690
20
208.588340
11
94.568693
21
208.529672
0
LINE
8
0
10
94.568693
20
208.529672
11
94.840091
21
208.600947
0
LINE
8
0
10
94.840091
20
208.600947
11
94.924217
21
208.733581
0
LINE
8
0
10
94.924217
20
208.733581
11
94.924200
21
208.733560
0
LINE
8
0
10
115.854100
20
217.590220
11
116.938330
21
224.015160
0
LINE
8
0
10
116.938330
20
224.015160
11
117.672219
21
228.593979
0
LINE
8
0
10
117.672219
20
228.593979
11
117.914133
21
230.934010
0
LINE
8
0
10
117.914133
20
230.934010
11
117.665628
21
231.369772
0
LINE
8
0
10
117.665628
20
231.369772
11
116.755665
21
231.745880
0
LINE
8
0
10
116.755665
20
231.745880
11
111.076243
21
232.842480
0
LINE
8
0
10
111.076243
20
232.842480
11
106.218279
21
233.577815
0
LINE
8
0
10
106.218279
20
233.577815
11
104.042233
21
233.700676
0
LINE
8
0
10
104.042233
20
233.700676
11
103.472473
21
231.479839
0
LINE
8
0
10
103.472473
20
231.479839
11
102.588154
21
226.906782
0
LINE
8
0
10
102.588154
20
226.906782
11
101.808949
21
222.297922
0
LINE
8
0
10
101.808949
20
222.297922
11
101.554533
21
219.969676
0
LINE
8
0
10
101.554533
20
219.969676
11
103.444692
21
219.378878
0
LINE
8
0
10
103.444692
20
219.378878
11
107.796933
21
218.498796
0
LINE
8
0
10
107.796933
20
218.498796
11
114.226529
21
217.461042
0
LINE
8
0
10
114.226529
20
217.461042
11
115.495543
21
217.396102
0
LINE
8
0
10
115.495543
20
217.396102
11
115.770498
21
217.462806
0
LINE
8
0
10
115.770498
20
217.462806
11
115.854093
21
217.590173
0
LINE
8
0
10
115.854093
20
217.590173
11
115.854100
21
217.590220
0
LINE
8
0
10
58.731200
20
222.928000
11
59.795480
21
229.048960
0
LINE
8
0
10
59.795480
20
229.048960
11
60.738264
21
234.878145
0
LINE
8
0
10
60.738264
20
234.878145
11
60.867083
21
236.355827
0
LINE
8
0
10
60.867083
20
236.355827
11
60.766002
21
236.863340
0
LINE
8
0
10
60.766002
20
236.863340
11
53.935362
21
238.079410
0
LINE
8
0
10
53.935362
20
238.079410
11
49.094411
21
238.855566
0
LINE
8
0
10
49.094411
20
238.855566
11
46.922912
21
239.025138
0
LINE
8
0
10
46.922912
20
239.025138
11
46.418795
21
237.032152
0
LINE
8
0
10
46.418795
20
237.032152
11
45.611653
21
232.834420
0
LINE
8
0
10
45.611653
20
232.834420
11
44.862509
21
228.427922
0
LINE
8
0
10
44.862509
20
228.427922
11
44.532382
21
225.808638
0
LINE
8
0
10
44.532382
20
225.808638
11
44.602471
21
225.269364
0
LINE
8
0
10
44.602471
20
225.269364
11
45.007748
21
224.918768
0
LINE
8
0
10
45.007748
20
224.918768
11
47.991812
21
224.261168
0
LINE
8
0
10
47.991812
20
224.261168
11
53.757932
21
223.196168
0
LINE
8
0
10
53.757932
20
223.196168
11
57.248698
21
222.722333
0
LINE
8
0
10
57.248698
20
222.722333
11
58.328448
21
222.735527
0
LINE
8
0
10
58.328448
20
222.735527
11
58.731182
21
222.928040
0
LINE
8
0
10
58.731182
20
222.928040
11
58.731200
21
222.928000
0
LINE
8
0
10
78.405300
20
224.879610
11
79.806151
21
232.756352
0
LINE
8
0
10
79.806151
20
232.756352
11
80.317313
21
236.387429
0
LINE
8
0
10
80.317313
20
236.387429
11
80.424590
21
238.008110
0
LINE
8
0
10
80.424590
20
238.008110
11
78.424554
21
238.515008
0
LINE
8
0
10
78.424554
20
238.515008
11
74.224217
21
239.323609
0
LINE
8
0
10
74.224217
20
239.323609
11
69.815691
21
240.073319
0
LINE
8
0
10
69.815691
20
240.073319
11
67.191090
21
240.403540
0
LINE
8
0
10
67.191090
20
240.403540
11
66.666780
21
240.347297
0
LINE
8
0
10
66.666780
20
240.347297
11
66.336272
21
240.069320
0
LINE
8
0
10
66.336272
20
240.069320
11
65.864070
21
238.194670
0
LINE
8
0
10
65.864070
20
238.194670
11
64.405126
21
229.506075
0
LINE
8
0
10
64.405126
20
229.506075
11
64.074160
21
226.420970
0
LINE
8
0
10
64.074160
20
226.420970
11
65.985888
21
225.948196
0
LINE
8
0
10
65.985888
20
225.948196
11
70.031012
21
225.178469
0
LINE
8
0
10
70.031012
20
225.178469
11
76.904460
21
224.116340
0
LINE
8
0
10
76.904460
20
224.116340
11
78.011682
21
224.238674
0
LINE
8
0
10
78.011682
20
224.238674
11
78.263325
21
224.476823
0
LINE
8
0
10
78.263325
20
224.476823
11
78.405340
21
224.879591
0
LINE
8
0
10
78.405340
20
224.879591
11
78.405300
21
224.879610
0
LINE
8
0
10
136.578200
20
226.509180
11
137.089665
21
228.706207
0
LINE
8
0
10
137.089665
20
228.706207
11
137.881268
21
233.070337
0
LINE
8
0
10
137.881268
20
233.070337
11
138.589431
21
237.475664
0
LINE
8
0
10
138.589431
20
237.475664
11
138.850580
21
239.796280
0
LINE
8
0
10
138.850580
20
239.796280
11
138.598991
21
240.229917
0
LINE
8
0
10
138.598991
20
240.229917
11
137.684970
21
240.608652
0
LINE
8
0
10
137.684970
20
240.608652
11
132.026230
21
241.721440
0
LINE
8
0
10
132.026230
20
241.721440
11
127.002402
21
242.502420
0
LINE
8
0
10
127.002402
20
242.502420
11
125.574572
21
242.630306
0
LINE
8
0
10
125.574572
20
242.630306
11
124.976070
21
242.570288
0
LINE
8
0
10
124.976070
20
242.570288
11
124.394520
21
240.345275
0
LINE
8
0
10
124.394520
20
240.345275
11
123.503710
21
235.781063
0
LINE
8
0
10
123.503710
20
235.781063
11
122.724078
21
231.183563
0
LINE
8
0
10
122.724078
20
231.183563
11
122.476060
21
228.858688
0
LINE
8
0
10
122.476060
20
228.858688
11
124.369152
21
228.275586
0
LINE
8
0
10
124.369152
20
228.275586
11
128.726450
21
227.389958
0
LINE
8
0
10
128.726450
20
227.389958
11
135.100036
21
226.328652
0
LINE
8
0
10
135.100036
20
226.328652
11
136.194196
21
226.292492
0
LINE
8
0
10
136.194196
20
226.292492
11
136.578200
21
226.509161
0
LINE
8
0
10
136.578200
20
226.509161
11
136.578200
21
226.509180
0
LINE
8
0
10
98.281200
20
228.073150
11
99.712408
21
236.047227
0
LINE
8
0
10
99.712408
20
236.047227
11
100.193269
21
239.625570
0
LINE
8
0
10
100.193269
20
239.625570
11
100.262280
21
241.234950
0
LINE
8
0
10
100.262280
20
241.234950
11
97.941099
21
241.853868
0
LINE
8
0
10
97.941099
20
241.853868
11
93.254949
21
242.748847
0
LINE
8
0
10
93.254949
20
242.748847
11
88.598840
21
243.498315
0
LINE
8
0
10
88.598840
20
243.498315
11
86.367780
21
243.680700
0
LINE
8
0
10
86.367780
20
243.680700
11
85.776268
21
241.338288
0
LINE
8
0
10
85.776268
20
241.338288
11
84.950673
21
236.655692
0
LINE
8
0
10
84.950673
20
236.655692
11
84.273460
21
232.007575
0
LINE
8
0
10
84.273460
20
232.007575
11
84.127090
21
229.768600
0
LINE
8
0
10
84.127090
20
229.768600
11
86.024077
21
229.246472
0
LINE
8
0
10
86.024077
20
229.246472
11
89.986764
21
228.435739
0
LINE
8
0
10
89.986764
20
228.435739
11
94.226065
21
227.678437
0
LINE
8
0
10
94.226065
20
227.678437
11
96.952890
21
227.316600
0
LINE
8
0
10
96.952890
20
227.316600
11
97.906054
21
227.443180
0
LINE
8
0
10
97.906054
20
227.443180
11
98.141195
21
227.681186
0
LINE
8
0
10
98.141195
20
227.681186
11
98.281260
21
228.073194
0
LINE
8
0
10
98.281260
20
228.073194
11
98.281200
21
228.073150
0
LINE
8
0
10
119.211800
20
236.944100
11
120.638451
21
244.977456
0
LINE
8
0
10
120.638451
20
244.977456
11
121.115963
21
248.528162
0
LINE
8
0
10
121.115963
20
248.528162
11
121.188250
21
250.115400
0
LINE
8
0
10
121.188250
20
250.115400
11
118.870399
21
250.729796
0
LINE
8
0
10
118.870399
20
250.729796
11
114.185841
21
251.620637
0
LINE
8
0
10
114.185841
20
251.620637
11
109.529562
21
252.367912
0
LINE
8
0
10
109.529562
20
252.367912
11
107.296550
21
252.551610
0
LINE
8
0
10
107.296550
20
252.551610
11
106.698182
21
250.212154
0
LINE
8
0
10
106.698182
20
250.212154
11
105.870393
21
245.534588
0
LINE
8
0
10
105.870393
20
245.534588
11
105.195310
21
240.889383
0
LINE
8
0
10
105.195310
20
240.889383
11
105.055060
21
238.647010
0
LINE
8
0
10
105.055060
20
238.647010
11
106.952438
21
238.121518
0
LINE
8
0
10
106.952438
20
238.121518
11
110.912340
21
237.308647
0
LINE
8
0
10
110.912340
20
237.308647
11
115.151928
21
236.550080
0
LINE
8
0
10
115.151928
20
236.550080
11
117.888360
21
236.187500
0
LINE
8
0
10
117.888360
20
236.187500
11
118.840953
21
236.313727
0
LINE
8
0
10
118.840953
20
236.313727
11
119.074275
21
236.551698
0
LINE
8
0
10
119.074275
20
236.551698
11
119.211820
21
236.944094
0
LINE
8
0
10
119.211820
20
236.944094
11
119.211800
21
236.944100
0
LINE
8
0
10
62.098200
20
242.266000
11
63.467990
21
249.884009
0
LINE
8
0
10
63.467990
20
249.884009
11
63.998500
21
253.666735
0
LINE
8
0
10
63.998500
20
253.666735
11
64.111850
21
255.384700
0
LINE
8
0
10
64.111850
20
255.384700
11
62.113213
21
255.894927
0
LINE
8
0
10
62.113213
20
255.894927
11
57.919309
21
256.706681
0
LINE
8
0
10
57.919309
20
256.706681
11
53.515975
21
257.458742
0
LINE
8
0
10
53.515975
20
257.458742
11
50.889050
21
257.789890
0
LINE
8
0
10
50.889050
20
257.789890
11
50.342414
21
257.683475
0
LINE
8
0
10
50.342414
20
257.683475
11
49.945580
21
256.964305
0
LINE
8
0
10
49.945580
20
256.964305
11
48.848730
21
251.290280
0
LINE
8
0
10
48.848730
20
251.290280
11
47.725760
21
244.226310
0
LINE
8
0
10
47.725760
20
244.226310
11
47.891101
21
243.925304
0
LINE
8
0
10
47.891101
20
243.925304
11
48.454974
21
243.651813
0
LINE
8
0
10
48.454974
20
243.651813
11
51.185430
21
243.048820
0
LINE
8
0
10
51.185430
20
243.048820
11
56.951550
21
241.984850
0
LINE
8
0
10
56.951550
20
241.984850
11
59.293641
21
241.589519
0
LINE
8
0
10
59.293641
20
241.589519
11
60.835118
21
241.499295
0
LINE
8
0
10
60.835118
20
241.499295
11
61.721466
21
241.722125
0
LINE
8
0
10
61.721466
20
241.722125
11
62.098170
21
242.265956
0
LINE
8
0
10
62.098170
20
242.265956
11
62.098200
21
242.266000
0
LINE
8
0
10
81.346000
20
242.975678
11
81.985250
21
245.358974
0
LINE
8
0
10
81.985250
20
245.358974
11
82.847908
21
249.978105
0
LINE
8
0
10
82.847908
20
249.978105
11
83.544336
21
254.538897
0
LINE
8
0
10
83.544336
20
254.538897
11
83.684900
21
256.747178
0
LINE
8
0
10
83.684900
20
256.747178
11
81.459112
21
257.333082
0
LINE
8
0
10
81.459112
20
257.333082
11
76.930891
21
258.188043
0
LINE
8
0
10
76.930891
20
258.188043
11
72.364275
21
258.917613
0
LINE
8
0
10
72.364275
20
258.917613
11
70.023300
21
259.127338
0
LINE
8
0
10
70.023300
20
259.127338
11
69.723632
21
258.647836
0
LINE
8
0
10
69.723632
20
258.647836
11
69.354176
21
257.369388
0
LINE
8
0
10
69.354176
20
257.369388
11
68.337150
21
252.130388
0
LINE
8
0
10
68.337150
20
252.130388
11
67.557356
21
247.279188
0
LINE
8
0
10
67.557356
20
247.279188
11
67.329770
21
245.164678
0
LINE
8
0
10
67.329770
20
245.164678
11
74.021860
21
243.808498
0
LINE
8
0
10
74.021860
20
243.808498
11
80.770980
21
242.575068
0
LINE
8
0
10
80.770980
20
242.575068
11
81.345966
21
242.975708
0
LINE
8
0
10
81.345966
20
242.975708
11
81.346000
21
242.975678
0
LINE
8
0
10
101.423900
20
246.346638
11
101.939486
21
248.684282
0
LINE
8
0
10
101.939486
20
248.684282
11
102.761483
21
253.343658
0
LINE
8
0
10
102.761483
20
253.343658
11
103.490771
21
257.942723
0
LINE
8
0
10
103.490771
20
257.942723
11
103.728230
21
260.099438
0
LINE
8
0
10
103.728230
20
260.099438
11
101.638497
21
260.603974
0
LINE
8
0
10
101.638497
20
260.603974
11
97.290906
21
261.383469
0
LINE
8
0
10
97.290906
20
261.383469
11
92.824927
21
262.079696
0
LINE
8
0
10
92.824927
20
262.079696
11
90.380030
21
262.334428
0
LINE
8
0
10
90.380030
20
262.334428
11
89.834143
21
262.151975
0
LINE
8
0
10
89.834143
20
262.151975
11
89.426862
21
261.359456
0
LINE
8
0
10
89.426862
20
261.359456
11
88.278540
21
255.510078
0
LINE
8
0
10
88.278540
20
255.510078
11
87.531486
21
250.678778
0
LINE
8
0
10
87.531486
20
250.678778
11
87.396613
21
248.493448
0
LINE
8
0
10
87.396613
20
248.493448
11
89.282001
21
247.986697
0
LINE
8
0
10
89.282001
20
247.986697
11
93.232094
21
247.197409
0
LINE
8
0
10
93.232094
20
247.197409
11
97.448321
21
246.461495
0
LINE
8
0
10
97.448321
20
246.461495
11
100.132113
21
246.114868
0
LINE
8
0
10
100.132113
20
246.114868
11
100.978629
21
246.168773
0
LINE
8
0
10
100.978629
20
246.168773
11
101.423853
21
246.346624
0
LINE
8
0
10
101.423853
20
246.346624
11
101.423900
21
246.346638
 0 
ENDSEC
 0 
EOF