999
"DXF R12 Output" (www.mydxf.blogspot.com)
 0 
SECTION
 2 
HEADER
 9 
$ACADVER
 1 
AC1009
 9 
$EXTMIN
 10 
 0 
 20 
 0 
 9 
$EXTMAX
 10 
 8.5 
 20 
 11 
 0 
ENDSEC
 0 
SECTION
 2 
ENTITIES
0
LINE
8
Layer 1
10
0.793749
20
297.794000
11
-0.793749
21
296.206000
0
LINE
8
Layer 1
10
0.000000
20
298.323000
11
0.000000
21
295.677000
0
LINE
8
Layer 1
10
2.116660
20
295.942000
11
1.058330
21
294.883670
0
LINE
8
Layer 1
10
1.587500
20
296.471000
11
0.529170
21
295.412670
0
LINE
8
Layer 1
10
1.058330
20
297.000000
11
0.000000
21
295.941670
0
LINE
8
0
10
0.095085
20
114.910000
11
121.754000
21
114.910000
0
LINE
8
0
10
121.754000
20
114.910000
11
121.754000
21
0.304561
0
LINE
8
0
10
121.754000
20
1.014250
11
79.578900
21
1.014250
0
LINE
8
0
10
0.272504
20
45.369000
11
0.272504
21
114.910000
0
LINE
8
0
10
103.699000
20
19.579400
11
102.926000
21
19.785800
0
LINE
8
0
10
102.926000
20
19.785800
11
102.124000
21
16.790700
0
LINE
8
0
10
102.124000
20
16.790700
11
102.897000
21
16.584400
0
LINE
8
0
10
102.897000
20
16.584400
11
101.396000
21
10.983100
0
LINE
8
0
10
101.396000
20
10.983100
11
100.623000
21
11.189500
0
LINE
8
0
10
100.623000
20
11.189500
11
99.820800
21
8.194430
0
LINE
8
0
10
99.820800
20
8.194430
11
100.593000
21
7.988050
0
LINE
8
0
10
100.593000
20
7.988050
11
100.335000
21
7.022320
0
LINE
8
0
10
100.335000
20
7.022320
11
113.858000
21
3.397540
0
LINE
8
0
10
113.858000
20
3.397540
11
114.115000
21
4.365910
0
LINE
8
0
10
114.115000
20
4.365910
11
114.888000
21
4.156890
0
LINE
8
0
10
114.888000
20
4.156890
11
115.690000
21
7.151970
0
LINE
8
0
10
115.690000
20
7.151970
11
114.919000
21
7.358340
0
LINE
8
0
10
114.919000
20
7.358340
11
116.419000
21
12.959600
0
LINE
8
0
10
116.419000
20
12.959600
11
117.192000
21
12.753200
0
LINE
8
0
10
117.192000
20
12.753200
11
117.995000
21
15.748300
0
LINE
8
0
10
117.995000
20
15.748300
11
117.221000
21
15.954600
0
LINE
8
0
10
117.221000
20
15.954600
11
117.481000
21
16.920400
0
LINE
8
0
10
117.481000
20
16.920400
11
103.958000
21
20.545200
0
LINE
8
0
10
103.958000
20
20.545200
11
103.699000
21
19.579400
0
LINE
8
0
10
83.457900
20
25.000700
11
82.685100
21
25.209800
0
LINE
8
0
10
82.685100
20
25.209800
11
81.882900
21
22.214700
0
LINE
8
0
10
81.882900
20
22.214700
11
82.656000
21
22.008300
0
LINE
8
0
10
82.656000
20
22.008300
11
81.154000
21
16.407100
0
LINE
8
0
10
81.154000
20
16.407100
11
80.381100
21
16.613500
0
LINE
8
0
10
80.381100
20
16.613500
11
79.578900
21
13.618400
0
LINE
8
0
10
79.578900
20
13.618400
11
80.352000
21
13.412000
0
LINE
8
0
10
80.352000
20
13.412000
11
80.092700
21
12.446300
0
LINE
8
0
10
80.092700
20
12.446300
11
93.616900
21
8.821490
0
LINE
8
0
10
93.616900
20
8.821490
11
93.874800
21
9.789860
0
LINE
8
0
10
93.874800
20
9.789860
11
94.647700
21
9.580840
0
LINE
8
0
10
94.647700
20
9.580840
11
95.449600
21
12.575900
0
LINE
8
0
10
95.449600
20
12.575900
11
94.677900
21
12.782300
0
LINE
8
0
10
94.677900
20
12.782300
11
96.178800
21
18.383500
0
LINE
8
0
10
96.178800
20
18.383500
11
96.951700
21
18.177100
0
LINE
8
0
10
96.951700
20
18.177100
11
97.753900
21
21.172200
0
LINE
8
0
10
97.753900
20
21.172200
11
96.980500
21
21.378600
0
LINE
8
0
10
96.980500
20
21.378600
11
97.239800
21
22.344300
0
LINE
8
0
10
97.239800
20
22.344300
11
83.715900
21
25.969100
0
LINE
8
0
10
83.715900
20
25.969100
11
83.457900
21
25.000700
0
LINE
8
0
10
87.459800
20
48.992300
11
86.673200
21
49.131800
0
LINE
8
0
10
86.673200
20
49.131800
11
86.132600
21
46.077700
0
LINE
8
0
10
86.132600
20
46.077700
11
86.921100
21
45.940100
0
LINE
8
0
10
86.921100
20
45.940100
11
85.914900
21
40.228000
0
LINE
8
0
10
85.914900
20
40.228000
11
85.126900
21
40.365900
0
LINE
8
0
10
85.126900
20
40.365900
11
84.588000
21
37.313600
0
LINE
8
0
10
84.588000
20
37.313600
11
85.376400
21
37.174200
0
LINE
8
0
10
85.376400
20
37.174200
11
85.202900
21
36.190500
0
LINE
8
0
10
85.202900
20
36.190500
11
98.990000
21
33.758200
0
LINE
8
0
10
98.990000
20
33.758200
11
99.163600
21
34.743500
0
LINE
8
0
10
99.163600
20
34.743500
11
99.951800
21
34.604300
0
LINE
8
0
10
99.951800
20
34.604300
11
100.489000
21
37.657900
0
LINE
8
0
10
100.489000
20
37.657900
11
99.701000
21
37.796000
0
LINE
8
0
10
99.701000
20
37.796000
11
100.710000
21
43.507800
0
LINE
8
0
10
100.710000
20
43.507800
11
101.497000
21
43.370200
0
LINE
8
0
10
101.497000
20
43.370200
11
102.035000
21
46.422400
0
LINE
8
0
10
102.035000
20
46.422400
11
101.247000
21
46.561300
0
LINE
8
0
10
101.247000
20
46.561300
11
101.421000
21
47.546600
0
LINE
8
0
10
101.421000
20
47.546600
11
87.633300
21
49.977600
0
LINE
8
0
10
87.633300
20
49.977600
11
87.459800
21
48.992300
0
LINE
8
0
10
69.857100
20
58.865800
11
69.069900
21
59.005200
0
LINE
8
0
10
69.069900
20
59.005200
11
68.531200
21
55.952700
0
LINE
8
0
10
68.531200
20
55.952700
11
69.317800
21
55.813500
0
LINE
8
0
10
69.317800
20
55.813500
11
68.312200
21
50.101700
0
LINE
8
0
10
68.312200
20
50.101700
11
67.523700
21
50.240900
0
LINE
8
0
10
67.523700
20
50.240900
11
66.985000
21
47.188700
0
LINE
8
0
10
66.985000
20
47.188700
11
67.773200
21
47.049200
0
LINE
8
0
10
67.773200
20
47.049200
11
67.599600
21
46.063900
0
LINE
8
0
10
67.599600
20
46.063900
11
81.386800
21
43.633200
0
LINE
8
0
10
81.386800
20
43.633200
11
81.560400
21
44.618500
0
LINE
8
0
10
81.560400
20
44.618500
11
82.348800
21
44.479300
0
LINE
8
0
10
82.348800
20
44.479300
11
82.886200
21
47.531600
0
LINE
8
0
10
82.886200
20
47.531600
11
82.099300
21
47.670700
0
LINE
8
0
10
82.099300
20
47.670700
11
83.106600
21
53.382600
0
LINE
8
0
10
83.106600
20
53.382600
11
83.895000
21
53.243700
0
LINE
8
0
10
83.895000
20
53.243700
11
84.432400
21
56.295900
0
LINE
8
0
10
84.432400
20
56.295900
11
83.644200
21
56.435300
0
LINE
8
0
10
83.644200
20
56.435300
11
83.819100
21
57.420600
0
LINE
8
0
10
83.819100
20
57.420600
11
70.030600
21
59.851100
0
LINE
8
0
10
70.030600
20
59.851100
11
69.857100
21
58.865800
0
LINE
8
0
10
12.748200
20
64.099800
11
11.960000
21
64.238900
0
LINE
8
0
10
11.960000
20
64.238900
11
11.422600
21
61.186400
0
LINE
8
0
10
11.422600
20
61.186400
11
12.210800
21
61.047500
0
LINE
8
0
10
12.210800
20
61.047500
11
11.203400
21
55.336800
0
LINE
8
0
10
11.203400
20
55.336800
11
10.415200
21
55.474600
0
LINE
8
0
10
10.415200
20
55.474600
11
9.876380
21
52.421100
0
LINE
8
0
10
9.876380
20
52.421100
11
10.664600
21
52.281600
0
LINE
8
0
10
10.664600
20
52.281600
11
10.491000
21
51.297600
0
LINE
8
0
10
10.491000
20
51.297600
11
24.278300
21
48.867200
0
LINE
8
0
10
24.278300
20
48.867200
11
24.451900
21
49.850900
0
LINE
8
0
10
24.451900
20
49.850900
11
25.240200
21
49.713100
0
LINE
8
0
10
25.240200
20
49.713100
11
25.779000
21
52.765300
0
LINE
8
0
10
25.779000
20
52.765300
11
24.990700
21
52.904700
0
LINE
8
0
10
24.990700
20
52.904700
11
25.998100
21
58.616300
0
LINE
8
0
10
25.998100
20
58.616300
11
26.784800
21
58.477400
0
LINE
8
0
10
26.784800
20
58.477400
11
27.323800
21
61.529600
0
LINE
8
0
10
27.323800
20
61.529600
11
26.535600
21
61.669000
0
LINE
8
0
10
26.535600
20
61.669000
11
26.709100
21
62.654300
0
LINE
8
0
10
26.709100
20
62.654300
11
12.921900
21
65.085100
0
LINE
8
0
10
12.921900
20
65.085100
11
12.748200
21
64.099800
0
LINE
8
0
10
32.337100
20
65.481900
11
31.548900
21
65.621100
0
LINE
8
0
10
31.548900
20
65.621100
11
31.009900
21
62.568600
0
LINE
8
0
10
31.009900
20
62.568600
11
31.796800
21
62.429700
0
LINE
8
0
10
31.796800
20
62.429700
11
30.790800
21
56.717400
0
LINE
8
0
10
30.790800
20
56.717400
11
30.002700
21
56.856800
0
LINE
8
0
10
30.002700
20
56.856800
11
29.463700
21
53.803000
0
LINE
8
0
10
29.463700
20
53.803000
11
30.252200
21
53.665100
0
LINE
8
0
10
30.252200
20
53.665100
11
30.078300
21
52.679800
0
LINE
8
0
10
30.078300
20
52.679800
11
43.867100
21
50.249400
0
LINE
8
0
10
43.867100
20
50.249400
11
44.039300
21
51.234100
0
LINE
8
0
10
44.039300
20
51.234100
11
44.827500
21
51.095200
0
LINE
8
0
10
44.827500
20
51.095200
11
45.365100
21
54.147500
0
LINE
8
0
10
45.365100
20
54.147500
11
44.578000
21
54.286900
0
LINE
8
0
10
44.578000
20
54.286900
11
45.585500
21
59.998700
0
LINE
8
0
10
45.585500
20
59.998700
11
46.372100
21
59.859500
0
LINE
8
0
10
46.372100
20
59.859500
11
46.911400
21
62.911800
0
LINE
8
0
10
46.911400
20
62.911800
11
46.122900
21
63.051200
0
LINE
8
0
10
46.122900
20
63.051200
11
46.297800
21
64.036500
0
LINE
8
0
10
46.297800
20
64.036500
11
32.509300
21
66.467200
0
LINE
8
0
10
32.509300
20
66.467200
11
32.337100
21
65.481900
0
LINE
8
0
10
90.768600
20
67.753100
11
89.980400
21
67.892000
0
LINE
8
0
10
89.980400
20
67.892000
11
89.441500
21
64.839800
0
LINE
8
0
10
89.441500
20
64.839800
11
90.229900
21
64.700400
0
LINE
8
0
10
90.229900
20
64.700400
11
89.222400
21
58.988500
0
LINE
8
0
10
89.222400
20
58.988500
11
88.434200
21
59.127700
0
LINE
8
0
10
88.434200
20
59.127700
11
87.896600
21
56.073900
0
LINE
8
0
10
87.896600
20
56.073900
11
88.685000
21
55.935000
0
LINE
8
0
10
88.685000
20
55.935000
11
88.510200
21
54.951000
0
LINE
8
0
10
88.510200
20
54.951000
11
102.297000
21
52.518700
0
LINE
8
0
10
102.297000
20
52.518700
11
102.471000
21
53.504000
0
LINE
8
0
10
102.471000
20
53.504000
11
103.259000
21
53.365100
0
LINE
8
0
10
103.259000
20
53.365100
11
103.798000
21
56.418600
0
LINE
8
0
10
103.798000
20
56.418600
11
103.010000
21
56.557600
0
LINE
8
0
10
103.010000
20
56.557600
11
104.017000
21
62.269900
0
LINE
8
0
10
104.017000
20
62.269900
11
104.804000
21
62.130500
0
LINE
8
0
10
104.804000
20
62.130500
11
105.344000
21
65.183200
0
LINE
8
0
10
105.344000
20
65.183200
11
104.556000
21
65.321900
0
LINE
8
0
10
104.556000
20
65.321900
11
104.729000
21
66.305800
0
LINE
8
0
10
104.729000
20
66.305800
11
90.940600
21
68.736800
0
LINE
8
0
10
90.940600
20
68.736800
11
90.768600
21
67.753100
0
LINE
8
0
10
52.253800
20
68.740800
11
51.466900
21
68.878900
0
LINE
8
0
10
51.466900
20
68.878900
11
50.928000
21
65.826400
0
LINE
8
0
10
50.928000
20
65.826400
11
51.716500
21
65.688600
0
LINE
8
0
10
51.716500
20
65.688600
11
50.708900
21
59.976800
0
LINE
8
0
10
50.708900
20
59.976800
11
49.920700
21
60.115900
0
LINE
8
0
10
49.920700
20
60.115900
11
49.381800
21
57.062100
0
LINE
8
0
10
49.381800
20
57.062100
11
50.170200
21
56.922700
0
LINE
8
0
10
50.170200
20
56.922700
11
49.998000
21
55.939000
0
LINE
8
0
10
49.998000
20
55.939000
11
63.783800
21
53.506900
0
LINE
8
0
10
63.783800
20
53.506900
11
63.959000
21
54.492200
0
LINE
8
0
10
63.959000
20
54.492200
11
64.745600
21
54.352800
0
LINE
8
0
10
64.745600
20
54.352800
11
65.284500
21
57.406900
0
LINE
8
0
10
65.284500
20
57.406900
11
64.496100
21
57.545800
0
LINE
8
0
10
64.496100
20
57.545800
11
65.503600
21
63.257900
0
LINE
8
0
10
65.503600
20
63.257900
11
66.291800
21
63.118700
0
LINE
8
0
10
66.291800
20
63.118700
11
66.829400
21
66.170900
0
LINE
8
0
10
66.829400
20
66.170900
11
66.041000
21
66.308800
0
LINE
8
0
10
66.041000
20
66.308800
11
66.215900
21
67.294100
0
LINE
8
0
10
66.215900
20
67.294100
11
52.428700
21
69.725100
0
LINE
8
0
10
52.428700
20
69.725100
11
52.253800
21
68.740800
0
LINE
8
0
10
73.165400
20
77.627900
11
72.377200
21
77.766000
0
LINE
8
0
10
72.377200
20
77.766000
11
71.839800
21
74.713200
0
LINE
8
0
10
71.839800
20
74.713200
11
72.626700
21
74.574300
0
LINE
8
0
10
72.626700
20
74.574300
11
71.619400
21
68.862200
0
LINE
8
0
10
71.619400
20
68.862200
11
70.831000
21
69.001400
0
LINE
8
0
10
70.831000
20
69.001400
11
70.293600
21
65.947900
0
LINE
8
0
10
70.293600
20
65.947900
11
71.081800
21
65.810000
0
LINE
8
0
10
71.081800
20
65.810000
11
70.906900
21
64.824700
0
LINE
8
0
10
70.906900
20
64.824700
11
84.695400
21
62.393700
0
LINE
8
0
10
84.695400
20
62.393700
11
84.867600
21
63.378800
0
LINE
8
0
10
84.867600
20
63.378800
11
85.656100
21
63.239900
0
LINE
8
0
10
85.656100
20
63.239900
11
86.194800
21
66.292100
0
LINE
8
0
10
86.194800
20
66.292100
11
85.408200
21
66.431500
0
LINE
8
0
10
85.408200
20
66.431500
11
86.413900
21
72.143300
0
LINE
8
0
10
86.413900
20
72.143300
11
87.202300
21
72.003900
0
LINE
8
0
10
87.202300
20
72.003900
11
87.741000
21
75.058000
0
LINE
8
0
10
87.741000
20
75.058000
11
86.952600
21
75.195600
0
LINE
8
0
10
86.952600
20
75.195600
11
87.126400
21
76.180900
0
LINE
8
0
10
87.126400
20
76.180900
11
73.337900
21
78.611900
0
LINE
8
0
10
73.337900
20
78.611900
11
73.165400
21
77.627900
0
LINE
8
0
10
16.056900
20
82.861900
11
15.268700
21
83.000800
0
LINE
8
0
10
15.268700
20
83.000800
11
14.729800
21
79.947200
0
LINE
8
0
10
14.729800
20
79.947200
11
15.518100
21
79.808000
0
LINE
8
0
10
15.518100
20
79.808000
11
14.512100
21
74.096000
0
LINE
8
0
10
14.512100
20
74.096000
11
13.723900
21
74.235400
0
LINE
8
0
10
13.723900
20
74.235400
11
13.185100
21
71.182600
0
LINE
8
0
10
13.185100
20
71.182600
11
13.971900
21
71.043700
0
LINE
8
0
10
13.971900
20
71.043700
11
13.799700
21
70.058400
0
LINE
8
0
10
13.799700
20
70.058400
11
27.585700
21
67.627400
0
LINE
8
0
10
27.585700
20
67.627400
11
27.759300
21
68.612700
0
LINE
8
0
10
27.759300
20
68.612700
11
28.547400
21
68.473800
0
LINE
8
0
10
28.547400
20
68.473800
11
29.086100
21
71.526100
0
LINE
8
0
10
29.086100
20
71.526100
11
28.297900
21
71.665200
0
LINE
8
0
10
28.297900
20
71.665200
11
29.305500
21
77.377100
0
LINE
8
0
10
29.305500
20
77.377100
11
30.093700
21
77.237900
0
LINE
8
0
10
30.093700
20
77.237900
11
30.631000
21
80.291700
0
LINE
8
0
10
30.631000
20
80.291700
11
29.844200
21
80.430900
0
LINE
8
0
10
29.844200
20
80.430900
11
30.017700
21
81.414600
0
LINE
8
0
10
30.017700
20
81.414600
11
16.230500
21
83.847200
0
LINE
8
0
10
16.230500
20
83.847200
11
16.056900
21
82.861900
0
LINE
8
0
10
35.644400
20
84.244000
11
34.856200
21
84.381600
0
LINE
8
0
10
34.856200
20
84.381600
11
34.317200
21
81.329400
0
LINE
8
0
10
34.317200
20
81.329400
11
35.105400
21
81.190200
0
LINE
8
0
10
35.105400
20
81.190200
11
34.098100
21
75.478100
0
LINE
8
0
10
34.098100
20
75.478100
11
33.309900
21
75.617600
0
LINE
8
0
10
33.309900
20
75.617600
11
32.772600
21
72.564800
0
LINE
8
0
10
32.772600
20
72.564800
11
33.560800
21
72.425900
0
LINE
8
0
10
33.560800
20
72.425900
11
33.386900
21
71.440600
0
LINE
8
0
10
33.386900
20
71.440600
11
47.174400
21
69.009600
0
LINE
8
0
10
47.174400
20
69.009600
11
47.347900
21
69.994900
0
LINE
8
0
10
47.347900
20
69.994900
11
48.134800
21
69.855800
0
LINE
8
0
10
48.134800
20
69.855800
11
48.673700
21
72.908300
0
LINE
8
0
10
48.673700
20
72.908300
11
47.885300
21
73.047400
0
LINE
8
0
10
47.885300
20
73.047400
11
48.894100
21
78.759200
0
LINE
8
0
10
48.894100
20
78.759200
11
49.681000
21
78.620100
0
LINE
8
0
10
49.681000
20
78.620100
11
50.219700
21
81.673900
0
LINE
8
0
10
50.219700
20
81.673900
11
49.431500
21
81.813100
0
LINE
8
0
10
49.431500
20
81.813100
11
49.605100
21
82.796800
0
LINE
8
0
10
49.605100
20
82.796800
11
35.817900
21
85.227800
0
LINE
8
0
10
35.817900
20
85.227800
11
35.644400
21
84.244000
0
LINE
8
0
10
94.075900
20
86.513400
11
93.288800
21
86.652800
0
LINE
8
0
10
93.288800
20
86.652800
11
92.748800
21
83.599000
0
LINE
8
0
10
92.748800
20
83.599000
11
93.537200
21
83.459800
0
LINE
8
0
10
93.537200
20
83.459800
11
92.531000
21
77.748000
0
LINE
8
0
10
92.531000
20
77.748000
11
91.742800
21
77.886900
0
LINE
8
0
10
91.742800
20
77.886900
11
91.203900
21
74.834700
0
LINE
8
0
10
91.203900
20
74.834700
11
91.992300
21
74.696800
0
LINE
8
0
10
91.992300
20
74.696800
11
91.818500
21
73.711500
0
LINE
8
0
10
91.818500
20
73.711500
11
105.606000
21
71.280800
0
LINE
8
0
10
105.606000
20
71.280800
11
105.780000
21
72.264800
0
LINE
8
0
10
105.780000
20
72.264800
11
106.568000
21
72.126700
0
LINE
8
0
10
106.568000
20
72.126700
11
107.105000
21
75.178100
0
LINE
8
0
10
107.105000
20
75.178100
11
106.317000
21
75.316800
0
LINE
8
0
10
106.317000
20
75.316800
11
107.326000
21
81.029100
0
LINE
8
0
10
107.326000
20
81.029100
11
108.113000
21
80.889700
0
LINE
8
0
10
108.113000
20
80.889700
11
108.651000
21
83.943500
0
LINE
8
0
10
108.651000
20
83.943500
11
107.863000
21
84.082700
0
LINE
8
0
10
107.863000
20
84.082700
11
108.037000
21
85.068000
0
LINE
8
0
10
108.037000
20
85.068000
11
94.249500
21
87.498700
0
LINE
8
0
10
94.249500
20
87.498700
11
94.075900
21
86.513400
0
LINE
8
0
10
55.562400
20
87.502900
11
54.774200
21
87.640800
0
LINE
8
0
10
54.774200
20
87.640800
11
54.236600
21
84.586900
0
LINE
8
0
10
54.236600
20
84.586900
11
55.025100
21
84.447800
0
LINE
8
0
10
55.025100
20
84.447800
11
54.017500
21
78.736000
0
LINE
8
0
10
54.017500
20
78.736000
11
53.229600
21
78.875100
0
LINE
8
0
10
53.229600
20
78.875100
11
52.690400
21
75.822900
0
LINE
8
0
10
52.690400
20
75.822900
11
53.478800
21
75.683500
0
LINE
8
0
10
53.478800
20
75.683500
11
53.305300
21
74.699500
0
LINE
8
0
10
53.305300
20
74.699500
11
67.092700
21
72.267400
0
LINE
8
0
10
67.092700
20
72.267400
11
67.266300
21
73.252700
0
LINE
8
0
10
67.266300
20
73.252700
11
68.052900
21
73.113600
0
LINE
8
0
10
68.052900
20
73.113600
11
68.591800
21
76.165800
0
LINE
8
0
10
68.591800
20
76.165800
11
67.804700
21
76.305000
0
LINE
8
0
10
67.804700
20
76.305000
11
68.810900
21
82.016800
0
LINE
8
0
10
68.810900
20
82.016800
11
69.599100
21
81.877900
0
LINE
8
0
10
69.599100
20
81.877900
11
70.137800
21
84.931700
0
LINE
8
0
10
70.137800
20
84.931700
11
69.349600
21
85.070900
0
LINE
8
0
10
69.349600
20
85.070900
11
69.523200
21
86.056200
0
LINE
8
0
10
69.523200
20
86.056200
11
55.736000
21
88.486600
0
LINE
8
0
10
55.736000
20
88.486600
11
55.562400
21
87.502900
0
LINE
8
0
10
76.472700
20
96.387300
11
75.685800
21
96.526300
0
LINE
8
0
10
75.685800
20
96.526300
11
75.147100
21
93.474000
0
LINE
8
0
10
75.147100
20
93.474000
11
75.934000
21
93.334600
0
LINE
8
0
10
75.934000
20
93.334600
11
74.928100
21
87.624400
0
LINE
8
0
10
74.928100
20
87.624400
11
74.139600
21
87.761900
0
LINE
8
0
10
74.139600
20
87.761900
11
73.600900
21
84.709700
0
LINE
8
0
10
73.600900
20
84.709700
11
74.389100
21
84.570500
0
LINE
8
0
10
74.389100
20
84.570500
11
74.215500
21
83.585500
0
LINE
8
0
10
74.215500
20
83.585500
11
88.002700
21
81.154200
0
LINE
8
0
10
88.002700
20
81.154200
11
88.176500
21
82.139600
0
LINE
8
0
10
88.176500
20
82.139600
11
88.964700
21
82.000400
0
LINE
8
0
10
88.964700
20
82.000400
11
89.502100
21
85.052900
0
LINE
8
0
10
89.502100
20
85.052900
11
88.715500
21
85.191800
0
LINE
8
0
10
88.715500
20
85.191800
11
89.722500
21
90.904100
0
LINE
8
0
10
89.722500
20
90.904100
11
90.510700
21
90.764700
0
LINE
8
0
10
90.510700
20
90.764700
11
91.048300
21
93.817200
0
LINE
8
0
10
91.048300
20
93.817200
11
90.259800
21
93.956400
0
LINE
8
0
10
90.259800
20
93.956400
11
90.435300
21
94.941700
0
LINE
8
0
10
90.435300
20
94.941700
11
76.646500
21
97.372700
0
LINE
8
0
10
76.646500
20
97.372700
11
76.472700
21
96.387300
0
LINE
8
0
10
19.364200
20
101.621000
11
18.576000
21
101.760000
0
LINE
8
0
10
18.576000
20
101.760000
11
18.038500
21
98.707700
0
LINE
8
0
10
18.038500
20
98.707700
11
18.826800
21
98.568600
0
LINE
8
0
10
18.826800
20
98.568600
11
17.819400
21
92.858100
0
LINE
8
0
10
17.819400
20
92.858100
11
17.031200
21
92.995700
0
LINE
8
0
10
17.031200
20
92.995700
11
16.492400
21
89.943400
0
LINE
8
0
10
16.492400
20
89.943400
11
17.280600
21
89.804500
0
LINE
8
0
10
17.280600
20
89.804500
11
17.107000
21
88.819200
0
LINE
8
0
10
17.107000
20
88.819200
11
30.894000
21
86.388200
0
LINE
8
0
10
30.894000
20
86.388200
11
31.067900
21
87.374900
0
LINE
8
0
10
31.067900
20
87.374900
11
31.856100
21
87.234100
0
LINE
8
0
10
31.856100
20
87.234100
11
32.394700
21
90.288200
0
LINE
8
0
10
32.394700
20
90.288200
11
31.606600
21
90.425800
0
LINE
8
0
10
31.606600
20
90.425800
11
32.614100
21
96.137800
0
LINE
8
0
10
32.614100
20
96.137800
11
33.401000
21
95.998400
0
LINE
8
0
10
33.401000
20
95.998400
11
33.939600
21
99.050600
0
LINE
8
0
10
33.939600
20
99.050600
11
33.151500
21
99.190100
0
LINE
8
0
10
33.151500
20
99.190100
11
33.325000
21
100.175000
0
LINE
8
0
10
33.325000
20
100.175000
11
19.537800
21
102.606000
0
LINE
8
0
10
19.537800
20
102.606000
11
19.364200
21
101.621000
0
LINE
8
0
10
38.953000
20
103.003000
11
38.164800
21
103.142000
0
LINE
8
0
10
38.164800
20
103.142000
11
37.625800
21
100.090000
0
LINE
8
0
10
37.625800
20
100.090000
11
38.413000
21
99.950800
0
LINE
8
0
10
38.413000
20
99.950800
11
37.406700
21
94.238900
0
LINE
8
0
10
37.406700
20
94.238900
11
36.618600
21
94.377800
0
LINE
8
0
10
36.618600
20
94.377800
11
36.081200
21
91.325600
0
LINE
8
0
10
36.081200
20
91.325600
11
36.868100
21
91.186200
0
LINE
8
0
10
36.868100
20
91.186200
11
36.694500
21
90.201100
0
LINE
8
0
10
36.694500
20
90.201100
11
50.483200
21
87.770400
0
LINE
8
0
10
50.483200
20
87.770400
11
50.655200
21
88.755700
0
LINE
8
0
10
50.655200
20
88.755700
11
51.443400
21
88.616300
0
LINE
8
0
10
51.443400
20
88.616300
11
51.981000
21
91.668800
0
LINE
8
0
10
51.981000
20
91.668800
11
51.194200
21
91.807900
0
LINE
8
0
10
51.194200
20
91.807900
11
52.201400
21
97.520000
0
LINE
8
0
10
52.201400
20
97.520000
11
52.988300
21
97.380600
0
LINE
8
0
10
52.988300
20
97.380600
11
53.527000
21
100.433000
0
LINE
8
0
10
53.527000
20
100.433000
11
52.738800
21
100.572000
0
LINE
8
0
10
52.738800
20
100.572000
11
52.913700
21
101.557000
0
LINE
8
0
10
52.913700
20
101.557000
11
39.125200
21
103.988000
0
LINE
8
0
10
39.125200
20
103.988000
11
38.953000
21
103.003000
0
LINE
8
0
10
58.871000
20
106.262000
11
58.083100
21
106.401000
0
LINE
8
0
10
58.083100
20
106.401000
11
57.544200
21
103.349000
0
LINE
8
0
10
57.544200
20
103.349000
11
58.332300
21
103.210000
0
LINE
8
0
10
58.332300
20
103.210000
11
57.324800
21
97.497800
0
LINE
8
0
10
57.324800
20
97.497800
11
56.538200
21
97.635700
0
LINE
8
0
10
56.538200
20
97.635700
11
55.997700
21
94.583200
0
LINE
8
0
10
55.997700
20
94.583200
11
56.786100
21
94.444300
0
LINE
8
0
10
56.786100
20
94.444300
11
56.613600
21
93.458900
0
LINE
8
0
10
56.613600
20
93.458900
11
70.400000
21
91.028000
0
LINE
8
0
10
70.400000
20
91.028000
11
70.574900
21
92.013300
0
LINE
8
0
10
70.574900
20
92.013300
11
71.361700
21
91.874100
0
LINE
8
0
10
71.361700
20
91.874100
11
71.900700
21
94.927900
0
LINE
8
0
10
71.900700
20
94.927900
11
71.112200
21
95.066800
0
LINE
8
0
10
71.112200
20
95.066800
11
72.119800
21
100.779000
0
LINE
8
0
10
72.119800
20
100.779000
11
72.907700
21
100.639000
0
LINE
8
0
10
72.907700
20
100.639000
11
73.445100
21
103.692000
0
LINE
8
0
10
73.445100
20
103.692000
11
72.657100
21
103.832000
0
LINE
8
0
10
72.657100
20
103.832000
11
72.832000
21
104.815000
0
LINE
8
0
10
72.832000
20
104.815000
11
59.044600
21
107.246000
0
LINE
8
0
10
59.044600
20
107.246000
11
58.871000
21
106.262000
0
LINE
8
0
10
0.000000
20
45.774500
11
79.838600
21
0.710061
0
LINE
8
0
10
0.095085
20
114.910000
11
121.754000
21
114.910000
 0 
ENDSEC
 0 
EOF